<svg xmlns="http://www.w3.org/2000/svg" width="249" height="30" fill="none"><path fill="#AFAFAF" d="M.787 1.787a.5.5 0 0 1 .426-.905l-.426.905ZM249 1.334l-3.314 4.728-2.437-5.234 5.751.506ZM1.213.882c.876.413 1.754.822 2.634 1.227l-.417.908a290.13 290.13 0 0 1-2.643-1.23l.426-.905Zm7.94 3.6c1.775.772 3.559 1.528 5.352 2.266l-.38.925c-1.8-.74-3.59-1.499-5.371-2.274l.399-.917ZM19.9 8.906c1.805.7 3.617 1.383 5.439 2.048l-.343.94a289.998 289.998 0 0 1-5.458-2.056l.362-.932Zm10.918 3.987c1.831.627 3.67 1.237 5.517 1.828l-.305.952a288.952 288.952 0 0 1-5.536-1.834l.324-.946Zm11.07 3.544c1.854.553 3.716 1.087 5.586 1.604l-.266.964a288.924 288.924 0 0 1-5.605-1.61l.285-.958Zm11.204 3.095c1.875.477 3.757.936 5.646 1.377l-.227.974a288.533 288.533 0 0 1-5.666-1.382l.247-.969Zm11.32 2.64c1.892.402 3.79.785 5.696 1.15l-.188.982c-1.912-.366-3.817-.75-5.716-1.153l.208-.978Zm11.416 2.184c1.906.325 3.82.631 5.738.92l-.148.988a291.35 291.35 0 0 1-5.758-.922l.168-.986Zm11.494 1.723c1.918.248 3.842.478 5.772.689l-.11.994a292.23 292.23 0 0 1-5.79-.691l.128-.992Zm11.555 1.262c1.926.172 3.858.325 5.795.459l-.069.997a292.64 292.64 0 0 1-5.815-.46l.089-.995Zm11.596.802c1.931.095 3.867.171 5.808.229l-.029 1a294.915 294.915 0 0 1-5.829-.23l.05-.999Zm11.619.343c.968.01 1.937.014 2.907.014v1c-.974 0-1.946-.005-2.917-.014l.01-1ZM125 28.5c.97 0 1.939-.005 2.908-.014l.009 1c-.971.01-1.943.014-2.917.014v-1Zm8.718-.128c1.941-.058 3.877-.134 5.808-.229l.05.999c-1.938.095-3.881.172-5.829.23l-.029-1Zm11.609-.572a292.96 292.96 0 0 0 5.795-.459l.089.996c-1.933.173-3.871.326-5.815.46l-.069-.997Zm11.579-1.032c1.929-.21 3.853-.44 5.771-.689l.128.992c-1.924.25-3.855.48-5.791.691l-.108-.994Zm11.527-1.493c1.919-.288 3.832-.594 5.738-.92l.168.987c-1.913.326-3.832.633-5.758.922l-.148-.989Zm11.458-1.953c1.905-.365 3.804-.748 5.696-1.15l.208.979a290.35 290.35 0 0 1-5.716 1.153l-.188-.982Zm11.37-2.413c1.889-.44 3.771-.9 5.646-1.377l.247.969c-1.882.48-3.77.94-5.666 1.382l-.227-.974Zm11.264-2.868c1.87-.517 3.732-1.051 5.586-1.604l.285.958a287.69 287.69 0 0 1-5.605 1.61l-.266-.964Zm11.139-3.32c1.847-.591 3.686-1.2 5.517-1.828l.324.946c-1.837.63-3.683 1.24-5.536 1.834l-.305-.952Zm10.996-3.767a292.146 292.146 0 0 0 5.439-2.048l.362.932c-1.811.703-3.63 1.388-5.458 2.056l-.343-.94Zm10.835-4.206a289.335 289.335 0 0 0 5.352-2.266l.399.917a290.536 290.536 0 0 1-5.37 2.274l-.381-.925ZM.573 2.238A1 1 0 1 1 1.427.43L.573 2.239ZM249 1.335l-6.629 9.455L237.498.321 249 1.334ZM1.427.43c.874.412 1.75.82 2.63 1.224L3.22 3.472A290.38 290.38 0 0 1 .573 2.239l.854-1.81Zm7.925 3.593c1.772.772 3.553 1.526 5.343 2.263l-.761 1.849a290.189 290.189 0 0 1-5.38-2.278l.798-1.834Zm10.73 4.417c1.801.699 3.611 1.38 5.43 2.045l-.686 1.879a290.038 290.038 0 0 1-5.468-2.06l.724-1.864Zm10.9 3.98c1.827.626 3.663 1.234 5.507 1.825l-.61 1.905a290.176 290.176 0 0 1-5.546-1.838l.648-1.892Zm11.05 3.538c1.851.552 3.71 1.085 5.576 1.6l-.532 1.929c-1.88-.52-3.751-1.057-5.615-1.612l.571-1.917Zm11.185 3.09c1.87.476 3.75.934 5.635 1.374l-.454 1.948c-1.899-.443-3.79-.905-5.675-1.384l.494-1.939Zm11.3 2.636c1.888.4 3.784.783 5.686 1.146l-.376 1.965a290.77 290.77 0 0 1-5.726-1.155l.415-1.956Zm11.396 2.179c1.903.325 3.813.63 5.728.918l-.296 1.978c-1.93-.29-3.852-.598-5.768-.924l.336-1.972Zm11.475 1.72c1.914.248 3.835.478 5.76.688l-.216 1.988c-1.94-.212-3.873-.443-5.801-.692l.257-1.984Zm11.534 1.26c1.923.172 3.852.324 5.785.458l-.138 1.995a293.825 293.825 0 0 1-5.824-.46l.177-1.992Zm11.576.8c1.928.096 3.861.172 5.799.229l-.059 1.999a295.827 295.827 0 0 1-5.838-.23l.098-1.997Zm11.599.343c.967.01 1.934.014 2.903.014v2c-.975 0-1.949-.005-2.922-.014l.019-2ZM125 28c.969 0 1.936-.005 2.903-.014l.019 2c-.973.01-1.947.014-2.922.014v-2Zm8.703-.128c1.938-.057 3.871-.133 5.799-.228l.098 1.997c-1.941.096-3.887.173-5.838.23l-.059-2Zm11.59-.57c1.933-.135 3.862-.287 5.785-.459l.177 1.993c-1.936.172-3.877.326-5.824.46l-.138-1.995Zm11.558-1.031c1.926-.21 3.847-.44 5.761-.688l.257 1.984c-1.928.25-3.861.48-5.801.692l-.217-1.988Zm11.508-1.49c1.915-.288 3.825-.593 5.728-.918l.336 1.972c-1.916.326-3.839.634-5.768.924l-.296-1.978Zm11.438-1.95c1.902-.364 3.798-.747 5.687-1.147l.415 1.956c-1.902.404-3.811.789-5.726 1.155l-.376-1.965Zm11.351-2.409c1.885-.44 3.764-.898 5.636-1.375l.493 1.939c-1.884.48-3.776.94-5.675 1.384l-.454-1.948Zm11.244-2.863c1.866-.516 3.725-1.05 5.576-1.601l.571 1.917a289.423 289.423 0 0 1-5.615 1.612l-.532-1.928Zm11.119-3.314c1.844-.59 3.68-1.199 5.508-1.825l.648 1.892c-1.84.63-3.689 1.243-5.546 1.838l-.61-1.905Zm10.977-3.76a285.808 285.808 0 0 0 5.43-2.045l.724 1.864a291.51 291.51 0 0 1-5.467 2.06l-.687-1.88Zm10.817-4.2c1.79-.736 3.571-1.49 5.343-2.262l.798 1.834a288.32 288.32 0 0 1-5.38 2.278l-.761-1.85Z"/></svg>