<svg xmlns="http://www.w3.org/2000/svg" width="253" height="143" fill="none"><path fill="#fff" fill-opacity=".06" d="m-1.056 119.169-9.86-23.665h19.72l9.861 23.665-9.86 23.665h-19.721l9.86-23.665ZM34.837 119.169l-9.861-23.665h19.721l9.86 23.665-9.86 23.665H24.976l9.86-23.665ZM70.729 119.169l-9.86-23.665h19.72l9.86 23.665-9.86 23.665H60.87l9.86-23.665ZM106.621 119.169l-9.86-23.665h19.721l9.86 23.665-9.86 23.665H96.761l9.86-23.665ZM142.513 119.169l-9.86-23.665h19.721l9.86 23.665-9.86 23.665h-19.721l9.86-23.665ZM178.406 119.169l-9.861-23.665h19.721l9.861 23.665-9.861 23.665h-19.721l9.861-23.665ZM214.298 119.169l-9.86-23.665h19.721l9.86 23.665-9.86 23.665h-19.721l9.86-23.665ZM250.19 119.169l-9.86-23.665h19.721l9.86 23.665-9.86 23.665H240.33l9.86-23.665ZM16.693 71.838l-9.86-23.665h19.72l9.861 23.665-9.86 23.666H6.833l9.86-23.666ZM52.585 71.838l-9.86-23.665h19.72l9.861 23.665-9.86 23.666H42.725l9.86-23.666ZM88.478 71.838l-9.86-23.665h19.72l9.861 23.665-9.86 23.666H78.617l9.86-23.666ZM124.37 71.838l-9.86-23.665h19.721l9.86 23.665-9.86 23.666H114.51l9.86-23.666ZM160.262 71.838l-9.86-23.665h19.721l9.86 23.665-9.86 23.666h-19.721l9.86-23.666ZM196.155 71.838l-9.861-23.665h19.721l9.861 23.665-9.861 23.666h-19.721l9.861-23.666ZM232.047 71.838l-9.861-23.665h19.722l9.86 23.665-9.86 23.666h-19.722l9.861-23.666Z"/><path fill="#fff" fill-opacity=".06" d="M-1.45 24.508-11.31.842H8.41l9.86 23.666-9.86 23.665h-19.72l9.86-23.665ZM34.442 24.508 24.582.842h19.72l9.861 23.666-9.86 23.665H24.582l9.86-23.665ZM70.334 24.508 60.474.842h19.72l9.861 23.666-9.86 23.665H60.474l9.86-23.665ZM106.227 24.508 96.367.842h19.72l9.861 23.666-9.861 23.665h-19.72l9.86-23.665ZM142.119 24.508 132.258.842h19.722l9.86 23.666-9.86 23.665h-19.722l9.861-23.665ZM178.011 24.508 168.151.842h19.721l9.86 23.666-9.86 23.665h-19.721l9.86-23.665ZM213.904 24.508 204.043.842h19.721l9.861 23.666-9.861 23.665h-19.721l9.861-23.665ZM249.796 24.508 239.935.842h19.722l9.86 23.666-9.86 23.665h-19.722l9.861-23.665Z"/></svg>