<svg xmlns="http://www.w3.org/2000/svg" width="693" height="294.165" data-name="Layer 1"><path fill="#f2f2f2" d="M693 22.69v247.62a22.722 22.722 0 0 1-2.77 10.85 22.6 22.6 0 0 1-4.69 5.95q-.21.195-.42.36a22.082 22.082 0 0 1-5.73 3.63 21.486 21.486 0 0 1-2.85 1.03c-.64.18-1.3.34-1.96.46a20.284 20.284 0 0 1-2.71.35q-.765.06-1.56.06H441.45l-11.45.62-10.82-.62H22.69c-.46 0-.93-.01-1.38-.05a22.19 22.19 0 0 1-3.68-.52A22.685 22.685 0 0 1 0 270.31V22.69A22.717 22.717 0 0 1 22.69 0h647.62A22.717 22.717 0 0 1 693 22.69Z"/><path fill="#e4e4e4" d="M161.84 0c-35.487 82.774-28.682 183.297 0 293h199.09c24.897-109.828 37.5-213.651 0-293Z"/><path fill="#cacaca" d="M81.54 0c-64.844 79.8-46.753 182.451 0 293h80.3c-28.959-104.437-33.693-203.211 0-293Z"/><path fill="#fff" d="M294.01 6.792h30.114v30.114H294.01zM245.494 6.792h30.114v30.114h-30.114zM196.977 6.792h30.114v30.114h-30.114zM293.174 75.385h30.114v30.114h-30.114zM244.657 75.385h30.114v30.114h-30.114zM196.14 75.385h30.114v30.114H196.14zM292.337 143.978h30.114v30.114h-30.114zM243.821 143.978h30.114v30.114h-30.114zM195.304 143.978h30.114v30.114h-30.114zM291.501 212.57h30.114v30.114h-30.114zM242.984 212.57h30.114v30.114h-30.114zM194.467 212.57h30.114v30.114h-30.114zM290.66 281.16h30.12V293h-30.12zM242.15 281.16h30.11V293h-30.11zM193.63 281.16h30.11V293h-30.11z"/><path fill="#e4e4e4" d="M0 155.63v114.68a22.685 22.685 0 0 0 17.63 22.12 22.19 22.19 0 0 0 3.68.52c.45.04.92.05 1.38.05h87.29C128.306 239.33 162 9 24 29Z"/><path fill="#fff" d="M40.552 212.57h30.114v30.114H40.552zM0 212.57h22.15v30.11H0zM39.72 281.16h30.11V293H39.72zM2.76 281.16a22.814 22.814 0 0 0 14.87 11.27 22.19 22.19 0 0 0 3.68.52v-11.79Z"/><path fill="#3f3d56" d="M693 187.8v82.51a22.722 22.722 0 0 1-2.77 10.85l-1.56-1.31-3.01-2.52L669 263.4l4.14 17.06-4.87.26-.38.02-8.84.48-7.73.42h-.03l-11.03.6-10.77.58-3.59.19-22.87 1.24-9.75.53-4.42.24-11.69.63-15.68.85-2.91.16-46.02 2.49-29.27 1.59-4.54.24-.34.02-1.85.1h-.01l-4.01.22-5.76.31-9.33.5-4.12.22-11.88.65-11.45.62-10.82-.62-34.89-2-22.62-1.3-.74-.04-40.15-2.3-30.12-1.73-18.4-1.05-30.11-1.73-13.88-.79-4.53-.26-11.14-.64-50.76-2.91-3.78-.22-.21-.01-18.39-1.05-11.48-.66 24.12-22.41.33-.31 9.41-8.74c6.77-12.15 13.27-24.42 32.63-30.32l2.11-1.96 29.07-27.01 4.96-.07 130.32-1.72 19.68-.26 40.32-.53 14.61-.19 10.79.63 93.48 5.48 6.09.36 31.08 1.82 28.76 1.68 13.67.8 3.34.2.22.01 1.68.1 4.5-.4 5.53-.49 2.05-.18.94-.09 19.69-1.74 1.65-.15 4.71-.42L691 228Z"/><path fill="#fff" d="M587.445 276.987c-13.854-20.055-23.952-70.976-20-92-.173-.686 8.092 10.847 8.119 10.132.131-3.532 2.647-6.268 5.62-6.113l37.36 1.958a5.306 5.306 0 0 1 4.34 3.02l28.246 54.094a7.244 7.244 0 0 1 .786 2.78c.276 3.52-1.903 6.639-4.866 6.966l-50.089 5.532a4.548 4.548 0 0 1-.497.027c-2.38-.006-8.331 16.31-9.02 13.604ZM428.414 276.8l.368 1.99 1.421 7.66a23.417 23.417 0 0 0 1.327 4.55 17.847 17.847 0 0 0 .924 2H535.02l17.024-1.97.213-.03a16.5 16.5 0 0 0 9.3-4.56 22.495 22.495 0 0 0 6.622-15.94 21.802 21.802 0 0 0-.071-2.48 22.853 22.853 0 0 0-.545-3.47c1.915-21.75-3.132-42.953-14.75-63.64a21.37 21.37 0 0 0-6.657-11.44 16.233 16.233 0 0 0-9.998-4.06l-82.795-3.4a15.778 15.778 0 0 0-8.932 2.43c-5.07 3.14-8.755 9.06-9.477 16.18a172.17 172.17 0 0 0-6.836 69.26 24.624 24.624 0 0 0 .296 6.92ZM398.103 286.997l-212.733-6.191c-2.675-.078-42.228 15.53-44.148 13.103-4.205-5.316-4.308-14.068-.23-19.549l92.933-92.16a9.645 9.645 0 0 1 7.614-4.2H412.78a8.265 8.265 0 0 1 2.39.356c5.708 1.72 9.264 9.146 7.944 16.584l-14.44 81.351c-1.128 6.258-5.404 10.688-10.336 10.709-.078 0-.157 0-.235-.003Z"/><path fill="#f7f6ff" d="M620.495 197.338 439.697 184.87l-214.047.692c26.33-27.842 142.058-61.788 266-20.781 123.996 4.156 133.001 29.094 133.001 29.094l1.546 2.424ZM692.12 276.55a22.216 22.216 0 0 1-1.89 4.61 22.6 22.6 0 0 1-4.69 5.95q-.21.195-.42.36a22.082 22.082 0 0 1-5.73 3.63 21.486 21.486 0 0 1-2.85 1.03c-.64.18-1.3.34-1.96.46a20.284 20.284 0 0 1-2.71.35q-.765.06-1.56.06H441.45l-11.45.62-10.82-.62H22.69c-.46 0-.93-.01-1.38-.05a22.19 22.19 0 0 1-3.68-.52l3.68-.54 6.1-.89 12.31-1.8 30.11-4.4 11.71-1.71 28.44-4.15 4.75-.69 13.25-1.94 11.69.23 17.89.36h.22l4.06.08 27.19.54 9.99.2 73.28 1.45 6.7.13 9.99.2 31.81.64 40.13.79 2.68.05 42.97.86.56.01 21.92-1.55 21.45-1.51 16.25-1.14 5.24-.37.2-.01 1.16-.08.76-.06 6.38-.45 23.87-1.68 10.63-.75 4.58-.32 4.79-.34 43.81-3.09 12.2-.86h.01l6.67-.47 12.23-.86h.01l12.57-.89h.01l4.88-.34 1.87-.13 14.24-1 8.61-.61 14.78-1.04 4.57-.32 6.14-.44 1.68-.12.35-.02s5.14.11 11.84 3.83a38.64 38.64 0 0 1 5.99 4.12 44.246 44.246 0 0 1 3.68 3.43c.54.56 1.07 1.15 1.61 1.77Z"/><path fill="#cacaca" d="M465.41 293h15.51l-1.42-1.32-.73-.68-.02-.02-3.27-3.03-2.6-2.42-2.11 2.11-.85.85-2.51 2.51-.63.63-1.37 1.37z"/><path fill="#ffb6b6" d="M550.38 293h23.85l3.67-2 10.96-5.98 2.58-1.41 20.43-16.19h.01l5.13-4.06 2.66-2.11 3.29-2.61 16.25-12.87a10.011 10.011 0 0 0 1.25-1.18 9.827 9.827 0 0 0 2.42-7.39 1.997 1.997 0 0 0-.05-.34 9.786 9.786 0 0 0-4.61-7.17 9.828 9.828 0 0 0-11.55.93l-11.92 10.05-4.76 4.01-18.43 15.54-11.17 9.42h-.01l-2.13 1.8-19.67 15.22-5.62 4.34Z"/><path fill="#f7f6ff" d="M632.954 257.872a2.9 2.9 0 0 0 3.06-1.731 3.763 3.763 0 0 1 1.538-1.705 3.461 3.461 0 0 1 .409-.198 5.676 5.676 0 0 0 3.5-3.91c.7-2.924 2.948-5.76 5.207-7.949 2.471-2.394 5.11-4.69 6.936-7.606 2.635-4.206 3.374-10.11-1.71-13.62a11.425 11.425 0 0 0-7.422-1.872c-5.476.446-10.004 3.787-14.306 7.025l1.077-2.114a43.68 43.68 0 0 1-15.641 7.777c.983.894.13 2.682-1.132 3.098-1.262.416-2.623-.023-3.923-.299-1.639-.348-3.665-.318-4.311 1.639a3.576 3.576 0 0 0 .346 2.844 67.59 67.59 0 0 0 18.202 20.833c1.653 1.246 3.572 2.472 5.628 2.228s3.804-2.799 2.542-4.44Z"/><path fill="#ffb6b6" d="m628.42 274.42 1.07 8.4 1.04 8.18.11.87.15 1.13h39.52q.795 0 1.56-.06a20.284 20.284 0 0 0 2.71-.35l.45-2.13.26-1.27-16.53-5.21-7.44-2.34h-.02l-10.75-3.4Z"/><path fill="#2f2e41" d="M613.07 254.68c.81 1.79 1.9 4.18 3.12 6.89.27.58.54 1.18.82 1.79a10142.163 10142.163 0 0 0 8.89 19.65c1.75 3.89 3.11 6.89 3.6 7.99.15.31.22.47.22.47l.92.4 2.63 1.13h37.04q.795 0 1.56-.06a20.284 20.284 0 0 0 2.71-.35c.66-.12 1.32-.28 1.96-.46a21.486 21.486 0 0 0 2.85-1.03 22.082 22.082 0 0 0 5.73-3.63c.08-.69.24-1.8.41-3.15a49.943 49.943 0 0 0 .43-6.08c0-1.63-4-4.27-5.12-11.01a24.781 24.781 0 0 1-.01-7.43c2.07-15.18 1.34-38.41-13.29-42.95l-10.52-18.42h-20.07l-3.26 9.61v.01l-1.87 5.51-1.12 3.29-.24.32-7.16 9.39s-1.14 1.45-2.7 3.74v.01a67.439 67.439 0 0 0-5.85 10.36 30.823 30.823 0 0 0-2.3 7.35 11.697 11.697 0 0 0 .62 6.66ZM655.366 179.866c-14.746 11.217-31.168 20.145-34.264 32.49 0 0 1.855-19.397-6.795-15.72-14.533 6.177-9.615-27.418-5.54-32.911 6.792-9.156 29.697-14.359 29.697-14.359l16.248 8.92Z"/><circle cx="629.689" cy="168.011" r="25.468" fill="#ffb6b6"/><path fill="#2f2e41" d="m638.86 158.266.98 4.305-17.13 3.9a6.318 6.318 0 0 0-2.108-4.6 10.764 10.764 0 0 1-.123 5.107c-9.239 5.185-8.708 7.021-16.175 5.7a3.912 3.912 0 0 1-4.683-2.947c-3.004-13.197-3.991-26.685 9.141-29.961a24.719 24.719 0 0 1 30.099 18.496Z"/><path fill="#2f2e41" d="M634.67 175.44a25.48 25.48 0 0 0-35.281-17.575 15.538 15.538 0 0 1 6.797-8.382l19.284-8.372c9.511-2.166 24.569-8.312 31.439-2.426 6.33 5.407 3.249 15.99 9.078 21.917 6.388 6.496 6.93 14.177 5.119 18.595-2.096 5.11-6.289 12.084-11.521 13.593a7.739 7.739 0 0 0-2.534-4.647 13.25 13.25 0 0 1 .096 5.213l-31.677 25.265c2.958-2.574 5.479-9.204 7.215-16.672 1.027-4.42 7.159-5.972 2.186-13.474s.475-10.07-.2-13.035Z"/><path fill="#2f2e41" d="m660.042 147.26-.089.178c-.108.237-.217.474-.306.72l-.01.01c-.483.178-1.027-.108-1.56-.562.083 1.067.143 2.1.187 3.113L641.4 144.12c2.933.506 3.366-9.928 5.47-7.929.119.109.227.217.336.326a7.881 7.881 0 0 1-.533-1.965 6.94 6.94 0 0 1 .197-2.528.036.036 0 0 0 .01-.03 7.328 7.328 0 0 1 .968-2.093 9.232 9.232 0 0 1 2.32-2.4 9.334 9.334 0 0 1 8.294-1.54 14.078 14.078 0 0 1 7.485 6.626 14.248 14.248 0 0 1 2.143 7.83 8.25 8.25 0 0 1-.464 2.123 6.557 6.557 0 0 1-4.049 4.177c-.237.079-.513.168-.81.276a16.913 16.913 0 0 1-.03-3.87 16.76 16.76 0 0 0-2.695 4.137Z"/><path fill="#f7f6ff" d="M643.71 143.449a10.31 10.31 0 0 0 .198 1.639 1.532 1.532 0 0 0 .04.207c.69 3.071 4.433-3.318 7.326-1.175a20.7 20.7 0 0 0 5.924 2.962c.09-.246.88.237.988 0 .03-.059-.03-.928 0-.987a16.727 16.727 0 0 1-4.937-2.962c-2.716-2.005-2.33-.129-2.962-2.963-.731-3.268-5.036-1.866-2.824-3.416l-.257-.355a8.476 8.476 0 0 0-3.288 4.492.036.036 0 0 1-.01.03 10.752 10.752 0 0 0-.198 2.528Z"/><path fill="#ffb6b6" d="M639.48 293h18.35l.21-2 .72-7.02.29-2.76 1.24-12.01.54-5.23 1.19-11.53.4-3.88a9.845 9.845 0 0 0-8.66-10.75 10.678 10.678 0 0 0-1.12-.07h-.03a12.262 12.262 0 0 0-1.36.09 9.864 9.864 0 0 0-5.98 3.22 9.746 9.746 0 0 0-2.46 5.92l-.01.15v.01l-.87 12.04-.45 6.16-.24 3.41-.69 9.49-.29 4-.63 8.76Z"/><path fill="#f7f6ff" d="M666.71 261.502a2.9 2.9 0 0 0 .897-3.4 3.763 3.763 0 0 1-.148-2.29 3.46 3.46 0 0 1 .144-.432 5.676 5.676 0 0 0-.356-5.235c-1.605-2.543-2.067-6.133-2.057-9.277.01-3.441.208-6.933-.605-10.276-1.173-4.823-4.885-9.474-10.946-8.283a11.425 11.425 0 0 0-6.522 4.007c-3.503 4.232-4.272 9.808-4.956 15.148l-.762-2.246a43.68 43.68 0 0 1-5.35 16.628c1.327-.08 2.012 1.778 1.429 2.972-.583 1.195-1.847 1.863-2.952 2.601-1.393.93-2.786 2.402-1.837 4.231a3.576 3.576 0 0 0 2.279 1.738 67.59 67.59 0 0 0 27.623 1.508c2.046-.313 4.264-.832 5.524-2.474s.651-4.677-1.405-4.92Z"/><path fill="#cacaca" d="M472 282.38A10.62 10.62 0 0 0 482.62 293h21.76A10.62 10.62 0 0 0 515 282.38v-8.097a10.62 10.62 0 0 0-14.324-9.953l-21.76 8.096A10.62 10.62 0 0 0 472 282.38Z"/><path fill="#3f3d56" d="M22.69 291c-.46 0-.92-.02-1.38-.05v.94l6.1-.89Zm87.29 0v2h51.86v-2Zm274.31 0 34.89 2h22.27l11.88-.65 4.12-.22 9.33-.5 5.76-.31 4.01-.22h.01l1.85-.1Zm286.02 0h-1.88l.11 2h1.77q.795 0 1.56-.06l.09-1.25.06-.77a16.061 16.061 0 0 1-1.71.08Zm-647.62 0c-.46 0-.92-.02-1.38-.05v.94l6.1-.89Zm87.29 0v2h51.86v-2Zm274.31 0 34.89 2h22.27l11.88-.65 4.12-.22 9.33-.5 5.76-.31 4.01-.22h.01l1.85-.1Zm-361.6 0c-.46 0-.92-.02-1.38-.05v.94l6.1-.89Zm17.03 0v2h184.02v-2Zm344.57 0 34.89 2h22.27l11.88-.65 4.12-.22 9.33-.5 5.76-.31 4.01-.22h.01l1.85-.1Zm286.02 0h-78.36c-.11.66-.21 1.33-.3 2h78.66q.795 0 1.56-.06l.09-1.25.06-.77a16.061 16.061 0 0 1-1.71.08Zm-647.62 0c-.46 0-.92-.02-1.38-.05v.94l6.1-.89Zm0 0c-.46 0-.92-.02-1.38-.05v.94l6.1-.89Zm0 0c-.46 0-.92-.02-1.38-.05v.94l6.1-.89Zm0 0c-.46 0-.92-.02-1.38-.05v.94l6.1-.89Zm0 0c-.46 0-.92-.02-1.38-.05v.94l6.1-.89Zm0 0c-.46 0-.92-.02-1.38-.05v.94l6.1-.89Zm0 0c-.46 0-.92-.02-1.38-.05v.94l6.1-.89Zm0 0c-.46 0-.92-.02-1.38-.05a20.635 20.635 0 0 1-16.23-9.79H2.76a22.814 22.814 0 0 0 14.87 11.27l3.68-.54 6.1-.89ZM670.31 0H22.69A22.717 22.717 0 0 0 0 22.69v247.62a22.685 22.685 0 0 0 17.63 22.12 22.19 22.19 0 0 0 3.68.52c.45.04.92.05 1.38.05h647.62q.795 0 1.56-.06a20.284 20.284 0 0 0 2.71-.35c.66-.12 1.32-.28 1.96-.46a21.486 21.486 0 0 0 2.85-1.03 22.082 22.082 0 0 0 5.73-3.63q.21-.165.42-.36a22.6 22.6 0 0 0 4.69-5.95 22.722 22.722 0 0 0 2.77-10.85V22.69A22.717 22.717 0 0 0 670.31 0ZM691 270.31a20.615 20.615 0 0 1-.49 4.47 20.073 20.073 0 0 1-1.84 5.07 20.327 20.327 0 0 1-2.87 4.17v.01l-.01.01c-.08.09-.17.19-.26.28a20.526 20.526 0 0 1-9.11 5.76c-.32.1-.64.19-.96.28-.14.04-.28.07-.43.1a19.668 19.668 0 0 1-3.01.46 16.061 16.061 0 0 1-1.71.08H22.69c-.46 0-.92-.02-1.38-.05A20.701 20.701 0 0 1 2 270.31V157.68c0-.69 0-1.37.01-2.05A155.611 155.611 0 0 1 157.68 2h512.63A20.686 20.686 0 0 1 691 22.69ZM22.69 291c-.46 0-.92-.02-1.38-.05v.94l6.1-.89Zm0 0c-.46 0-.92-.02-1.38-.05v.94l6.1-.89Zm0 0c-.46 0-.92-.02-1.38-.05v.94l6.1-.89Zm0 0c-.46 0-.92-.02-1.38-.05v.94l6.1-.89Zm0 0c-.46 0-.92-.02-1.38-.05v.94l6.1-.89Zm0 0c-.46 0-.92-.02-1.38-.05v.94l6.1-.89Zm0 0c-.46 0-.92-.02-1.38-.05v.94l6.1-.89Zm0 0c-.46 0-.92-.02-1.38-.05v.94l6.1-.89Zm361.6 0 34.89 2h22.27l11.88-.65 4.12-.22 9.33-.5 5.76-.31 4.01-.22h.01l1.85-.1Zm-274.31 0v2h51.86v-2Zm-87.29 0c-.46 0-.92-.02-1.38-.05v.94l6.1-.89Zm361.6 0 34.89 2h22.27l11.88-.65 4.12-.22 9.33-.5 5.76-.31 4.01-.22h.01l1.85-.1Zm-274.31 0v2h51.86v-2Zm-87.29 0c-.46 0-.92-.02-1.38-.05v.94l6.1-.89Zm647.62 0h-1.88l.11 2h1.77q.795 0 1.56-.06l.09-1.25.06-.77a16.061 16.061 0 0 1-1.71.08Zm-286.02 0 34.89 2h22.27l11.88-.65 4.12-.22 9.33-.5 5.76-.31 4.01-.22h.01l1.85-.1Zm-274.31 0v2h51.86v-2Z"/></svg>