<svg xmlns="http://www.w3.org/2000/svg" width="1719" height="1512" fill="none"><g fill="#fff" clip-path="url(#a)" opacity=".05"><path d="M-94.008-231.76c19.311 12.524 40.342 17.446 60.913 24.514 12.745 4.391 25.165 10.496 37.718 15.871 1.245.531 2.416 1.378 3.527 2.027-.03.729.06 1.202-.074 1.378-23.846 30.165-33.642 68.226-34.932 110.854-.978 32.646 3.587 64.09 12.776 94.354 2.475 8.132 4.712 16.401 7.662 24.219 1.615 4.31 4.016 8.604 6.877 11.48 4.312 4.31 9.425 3.975 14.079.215 4.802-3.878 7.114-9.924 6.566-17.228-.341-4.53-1.512-9.058-2.713-13.37C7.276-17.396 4.445-58.095 11.856-99.758c2.741-15.456 7.766-29.673 13.53-43.495 3.38-8.113 6.581-16.362 10.153-25.262 3.809 3.663 7.395 7.285 11.115 10.614 3.498 3.13 7.336 3.7 11.086.866 3.735-2.835 5.247-7.502 5.113-13.115-.03-1.593-.044-3.346-.548-4.724-2.55-7.049-4.669-14.513-8.003-20.853-7.796-14.826-18.793-24.768-31.494-30.519-18.081-8.171-36.28-16.126-54.762-22.446-20.734-7.109-40.786-15.949-59.43-30.086-.786-.591-1.735-.847-2.594-1.26-.03 16.066-.03 32.172-.03 48.279M-94.008 667.691c.608.65 1.32 1.201 1.793 1.989 11.53 18.725 25.685 33 41.898 43.79 14.006 9.313 27.285 20.064 39.2 33.729 17.919 20.556 31.598 45.365 41.943 73.423 9.44 25.597 10.448 51.883 1.912 78.327-1.794 5.532-3.972 11.124-6.832 15.732C13.87 933.957.087 950.615-16.763 962.33c-6.328 4.391-8.818 11.322-6.55 18.784 2.193 7.167 8.27 10.751 14.538 7.64 4.491-2.225 8.878-5.238 12.91-8.702 13.412-11.54 25.639-25.184 35.776-41.508 23.965-38.65 28.322-81.692 13.427-127.511-9.648-29.692-23.787-55.623-41.571-77.774-13.383-16.678-27.685-32.213-43.958-43.417-26.87-18.508-45.04-47.452-59.416-81.653-.711-1.694-1.6-3.229-2.4-4.844zM796.442 143.056c14.88 21.502 30.042 41.152 48.019 56.923-.667 1.24-1.022 2.167-1.556 2.875-11.9 16.284-16.85 36.21-17.236 58.459-.029 2.127.148 4.313.563 6.36.919 4.489 3.038 7.58 6.625 8.329 3.69.788 6.848-.905 8.626-5.178 1.333-3.211 2.193-6.911 2.726-10.555 2.194-14.865 5.173-29.2 12.554-41.348 2.415-3.978 4.165-4.844 7.455-1.438 10.714 11.106 21.8 21.581 32.486 32.726 10.27 10.711 22.972 7.54 28.84-7.995 1.795-4.765 3.084-9.943 4.165-15.082 4.714-22.388 9.218-44.855 13.888-67.281 1.615-7.757 3.482-15.417 5.201-23.135 5.913-26.641 18.792-46.252 35.466-62.043.534-.513 1.141-.886 2.12-1.615.695 1.851 1.348 3.544 1.955 5.258 7.337 20.91 13.901 42.372 22.171 62.614 9.49 23.194 20.23 45.543 30.95 67.811 5.78 12.031 18.58 11.026 24.08-1.989 3.57-8.466 6.22-17.917 8.02-27.348 2.95-15.397 4.99-31.13 7.2-46.763 3.75-26.582 10.24-51.863 19.98-75.65 5.79-14.137 11.59-28.274 17.49-42.332 10.33-24.632 23.59-46.271 39.6-64.622 7.99-9.156 16.97-17.051 26.16-24.002 13.79-10.435 28.15-19.513 42.28-29.161.71-.491 1.45-.945 2.21-1.32 5.56-2.658 6.16-4.331 3.73-11.616-2.47-7.404-7.02-11.892-12.98-11.499-6.77.433-13.87 1.182-20.16 4.233-13.11 6.38-26.07 13.664-38.6 21.875-23.95 15.733-42.41 40.346-58.37 68.147-15.37 26.78-28.53 55.545-40.09 85.553-10.7 27.802-15.32 57.908-18.41 88.525-.29 3.013-.66 6.006-1.03 8.997-.03.258-.36.454-.83 1.025-.7-1.536-1.44-2.954-2-4.469-10.98-30.166-20.62-61-25.92-93.94-3.04-18.884-15.684-28.846-29.096-21.62-30.782 16.618-56.022 41.94-67.835 84.981-7.084 25.833-12.405 52.514-18.51 78.818-.43 1.871-.8 3.762-1.363 6.4-1.409-1.163-2.505-1.989-3.558-2.934-6.387-5.671-12.538-11.833-19.162-16.933-26.797-20.615-48.405-48.694-67.153-81.024-1.808-3.111-3.587-6.28-5.631-9.116-8.211-11.421-20.483-11.006-27.152 2.047-3.438 6.715-5.676 15.064-6.966 23.097-9.144 56.825-7.87 113.393 3.543 169.469 2.489 12.249 5.261 24.435 8.552 36.348 9.351 33.886 24.808 62.063 44.491 87.029 39.096 49.579 86.24 79.902 136.141 104.337 18.052 8.84 36.147 17.682 53.759 27.899 9.39 5.456 18.09 13.331 26.63 21.031 8.79 7.935 14.24 19.315 16.17 33.432.43 3.17 1.07 6.281 1.75 9.373.97 4.469 2.87 7.876 6.72 7.777 3.8-.098 5.95-3.426 6.69-7.935 1.88-11.498 2.22-23.037-.33-34.496-3.33-14.886-9.94-27.133-18.73-36.859-7.31-8.073-15.04-15.989-23.51-21.562-18.06-11.911-36.44-23.115-55.173-33.019-26.736-14.137-52.109-31.799-77.081-50.543-7.322-5.493-13.991-12.76-20.454-20.006-9.47-10.593-18.524-21.835-27.684-32.922-17.711-21.421-30.219-47.412-37.912-77.44-8.58-33.492-15.027-67.673-16.228-103.135-.533-15.83.579-31.759.979-47.649.044-.965.34-1.949.725-4.174M1463.49 250.227c-7.44.591-14.72.473-21.83 1.931-11.83 2.402-22.76 8.644-32.82 17.228-13.6 11.638-19.75 29.733-23.31 49.697-3.51 19.73-2.65 39.479 1.25 58.951 7.02 35.068 20.81 64.523 41.72 88.014 16.55 18.568 34.83 33.65 53.82 47.256 1.51 1.082 3 2.245 4.33 3.229-3.34 7.127-6.51 13.902-9.75 20.813-6.15-1.773-12.62-4.116-19.2-5.456-12.32-2.52-24.16-.353-35.17 7.858-16.99 12.68-23.12 34.279-16.32 58.458 6.27 22.447 18.36 38.907 32.3 53.104 4.97 5.06 10.49 4.41 14.11-.217 3.41-4.351 3.82-11.066.53-18.272-3.36-7.325-7.39-14.118-10.69-21.482-3.56-7.954-7.04-16.067-9.77-24.553-2.24-6.97-1.03-11.263 4.11-14.748 4.35-2.933 9.25-5.493 14.04-5.966 7.19-.709 14.49.591 21.73 1.004 2.33.138 2.94 2.009 3.5 4.765 1.6 7.739 3.37 15.418 5.51 22.919.87 3.052 2.56 5.947 4.36 8.231 3.29 4.194 7.39 5.08 11.63 2.894 4.14-2.126 6.46-6.478 6.84-12.247.2-3.327-.18-6.754-.55-10.101-.98-8.663-2.46-17.228-3.07-25.932-.65-9.391 1.23-17.917 7.79-23.115 1.37-1.084 3.82-1.615 5.09-.729 10.94 7.66 22.01 15.062 32.44 23.824 10.87 9.158 15.2 23.944 16.72 40.07-6.21 1.811-12.33 2.914-18.12 5.395-32.27 13.803-47.06 49.953-38.48 93.783 7.05 36.052 26.42 54.048 52.47 60.841 21.32 5.553 40.72-2.107 57.66-19.65 24.84-25.696 37.17-60.409 39.92-101.56 1.06-15.752.67-31.425-1.96-46.961-6.32-37.411-22.91-63.697-48.95-79.566-24.01-14.65-49.38-17.977-75.43-14.65-3.62.453-7.34.689-10.77 2.069-4.85 1.929-8.75.275-12.9-2.994-21.43-16.894-42.68-34.123-61.79-55.625-14.07-15.848-25.47-34.397-32.74-57.098-5.62-17.644-8.36-35.877-5.2-54.974 3.03-18.215 9.93-33.197 21.88-43.437 11.58-9.904 23.75-18.173 38.25-22.564.9 6.891 1.79 13.447 2.6 20.024.45 3.525.56 7.167 1.31 10.553 1.94 8.782 7.77 13.804 14.11 12.504 6.1-1.24 10.5-8.231 10.73-17.032.02-.709.08-1.456-.02-2.147-3.83-28.964-10.18-56.39-26.82-77.538-8.97-11.42-19.57-19.275-31.72-22.248-19.85-4.865-39.8-9-59.77-12.976-17.59-3.506-35.13-7.01-52.13-14.335-15.11-6.497-25.27-19.808-29.84-39.714-1.82-7.975-1.66-16.855-1.84-25.342-.11-6.064-1.09-8.426-5.77-8.722-6.61-.413-11.31 4.214-14.77 11.087-5.63 11.182-8.43 23.548-7.35 37.114 2.34 29.595 13.68 51.154 33.53 64.583 16.89 11.44 35.09 17.544 53.88 19.275 23.76 2.187 47.61 2.895 71.39 4.549 5.75.393 11.58 1.34 17.16 3.191 11.02 3.622 18.04 13.368 22.14 26.737m84.63 274.772c19.45-.669 38.01 2.994 54.48 17.387 11.21 9.786 18.9 23.115 22.94 40.187 3.83 16.165 4.42 32.606 3.1 49.322-2.32 29.575-10.3 55.368-27.81 74.96-15.32 17.13-34.63 19.197-51.8 5.631-8.12-6.419-13.32-15.634-14.89-27.96-3.77-29.672 8.03-51.193 29.21-64.543 0 2.087.01 3.997 0 5.887-.05 5.356-.36 10.751-.08 16.067.27 5.356 2.26 9.511 6.41 11.165 3.7 1.476 7.85-.296 10.16-5.238 1.67-3.564 3.31-7.699 3.6-11.755.9-12.404 2.11-24.967 1.46-37.312-1.47-29.003-11.12-52.276-30.08-67.949-2.27-1.871-4.46-3.9-6.7-5.849M1192.67 864.59c1.75-10.928 3.74-20.222 4.64-29.673 2.21-23.313-.49-46.389-2.86-69.426-5.45-53.123-16.02-104.711-26.57-156.318-6.01-29.397-10.72-59.246-9.98-89.902.3-12.209 1.68-24.653 4.08-36.428 4.03-19.709 13.87-32.488 29.06-37.902 13.9-4.962 27.82-6.144 41.99-2.777 25.59 6.064 49.16 18.548 70.16 39.065 17.37 16.953 29.98 38.651 34.77 66.945 1.43 8.487 1.3 17.878.29 26.542-2.34 20.202-11.19 33.512-26.23 39.281-16.39 6.281-32.71 6.399-48.91-.787-15.1-6.695-28.13-18.056-39.14-33.178-7.88-10.849-14.33-23.607-11.26-39.4 4.49-23.037 12.64-43.316 29.8-54.598 1.48-.965 2.48-3.211 3.71-4.864-1.43-1.143-2.74-2.796-4.3-3.327-15.19-5.298-28.53-.433-39.9 13.724-7.82 9.746-14.21 21.048-18.95 33.846-7.47 20.201-7.95 40.797-.28 60.959 3.24 8.526 7.08 17.268 12.18 23.805 31.92 40.837 69.46 57.062 113.35 43.554.78-.236 1.55-.59 2.32-.905 27.84-10.593 44.24-34.851 49.85-72.557 3.51-23.53 1.19-45.937-6.2-67.516-5.96-17.406-13.81-33.297-24.28-46.47-30.75-38.728-67.33-59.638-109.77-61.647-11.38-.533-22.53 2.342-33.38 6.931-29.27 12.424-44.64 40.579-50.25 79.309-4.26 29.397-1.41 58.558 3.73 87.227 6.52 36.347 14.18 72.321 20.73 108.648 7.49 41.447 13.18 83.347 13.17 126.173 0 9.726-1.53 19.512-2.84 29.141-1.06 7.915-5.11 12.266-11.11 13.428-3.47.67-6.95 1.24-10.35 2.324-6.56 2.087-11.17 7.226-12.37 16.362-1.19 9.077 1.51 16.559 7.32 21.009 4.46 3.406 9.53 6.182 14.58 7.403 32.68 7.876 64.9 5.631 96.32-9.451 14.81-7.108 27.55-18.587 38.83-33.039 15.91-20.399 21.54-46.37 22.8-74.664a4.72 4.72 0 0 0 0-.532c-.42-4.017-.11-9.49-3.69-10.16-1.96-.374-4.85 3.131-6.51 5.789-3.16 5.08-5.87 10.691-8.52 16.283-18.13 38.179-45.01 57.967-77.82 64.8-9.18 1.851-18.65 1.988-28.21 2.973M717.152-13.557c-9.722-8.033-19.814-16.264-29.759-24.77-.785-.67-1.29-3.663-.83-4.843 3.245-8.388 6.195-17.11 10.329-24.672 5.692-10.396 12.435-19.749 18.526-29.77 2.075-3.427 3.988-7.305 5.173-11.381 1.941-6.755.814-13.173-3.29-18.115-4.002-4.824-8.581-4.982-13.591-2.619-2.104 1.004-4.817 1.417-6.921.571-14.036-5.611-28.055-11.34-41.913-17.682-4.757-2.185-9.04-6.24-13.501-9.529-1.763-1.3-3.364-3.013-5.144-4.213-4.386-2.993-8.832-3.211-12.997.669-4.061 3.78-5.291 9.235-4.712 15.555.636 6.911 1.689 13.822 1.852 20.753.444 19.473.489 38.965.741 58.458.059 4.233.371 8.447.607 13.784-7.514-2.875-14.539-5.16-21.356-8.29-16.021-7.363-31.894-15.278-47.899-22.702-5.454-2.54-11.057-4.607-16.688-6.34-10.064-3.111-19.816 6.575-21.417 20.93-1.067 9.491 1.008 18.075 4.58 26.129 5.957 13.388 13.502 25.104 22.542 34.83 14.762 15.85 29.493 31.839 44.981 46.35 15.724 14.728 32.204 28.019 48.656 41.33 7.099 5.748 14.805 10.22 22.409 14.748 11.278 6.733 21.682 15.062 30.618 26.522 3.84 4.922 7.707 5.729 11.324 2.815 3.615-2.913 5.335-8.92 3.141-15.122-2.134-6.044-4.742-12.384-8.373-16.775-6.729-8.153-14.257-15.142-21.623-22.29-9.663-9.391-19.549-18.37-29.211-27.722-8.715-8.428-17.415-16.855-25.863-25.735C600.44-.64 583.5-18.873 566.576-37.126c-2.254-2.422-4.047-5.573-6.684-9.293 2.726.491 4.786.65 6.758 1.26 18.08 5.553 36.147 11.242 54.227 16.755 2.684.827 3.72 2.778 4.002 6.243.46 5.69 1.083 11.361 1.823 16.992 1.245 9.53 6.195 15.378 12.183 14.669 6.105-.729 10.701-7.384 10.24-17.013a386.227 386.227 0 0 0-3.408-36.15c-3.868-27.23-3.764-54.797-4.786-82.283-.015-.295.206-.631.355-1.004 16.569 4.173 33.138 8.367 50.493 12.74-1.66 2.893-2.608 4.586-3.571 6.26-10.345 17.997-19.608 36.82-24.439 58.834-.756 3.426-1.364 6.93-1.704 10.455-.994 10.71 1.911 17.11 8.936 22.328 13.857 10.318 27.521 21.068 41.32 31.504 2.297 1.753 3.112 3.78 2.83 7.364a145.1 145.1 0 0 0-.4 16.066c.193 6.44 2.787 10.79 6.625 12.109 4.002 1.36 8.225-.827 10.389-6.753 2.268-6.222 4.52-12.818 5.291-19.571 4.032-34.655 13.473-67.32 20.423-100.89 9.752-47.159 10.878-93.803-1.985-140.232a179.828 179.828 0 0 0-5.9-17.622c-13.264-33.748-34.368-51.312-62.868-54.541-20.186-2.284-40.045.571-59.979 3.76-13.769 2.206-27.552 4.371-41.379 5.631-8.018.729-16.14.08-24.172-.747-12.049-1.222-21.328-9.019-27.922-22.526-4.299-8.802-7.811-17.997-8.834-28.53-.756-7.896 1.409-10.593 7.307-9.669 1.645.258 3.335-.078 5.009-.137-.267-2.383-.178-4.962-.844-7.127-2.964-9.688-9.975-14.631-18.392-13.271-10.138 1.634-17.711 10.809-20.039 24.415-1.999 11.617-.636 22.84 2.876 33.551 11.604 35.323 31.746 54.738 60.868 57.927 17.992 1.971 35.777-.669 53.606-2.796 17.162-2.046 34.294-5.08 51.487-5.946 10.374-.511 20.882 1.871 31.256 3.702 7.366 1.3 13.813 6.026 19.163 12.937 22.172 28.569 33.91 62.87 31.094 104.395-.697 10.376-2.772 20.851-5.424 30.697-8.048 29.653-16.659 58.932-25.255 89.076M234.132-304.554c18.6-21.224 41.083-35.126 57.355-60.289 1.987 2.146 3.927 3.977 5.662 6.124 10.048 12.424 20.008 24.946 30.071 37.332 2.075 2.558 1.971 4.627.652 7.855a1924.48 1924.48 0 0 0-17.296 44.264c-1.482 3.937-2.623 8.308-3.157 12.64-1.007 8.033 1.009 14.946 6.18 19.63 5.159 4.667 10.924 4.982 15.992.533 3.942-3.466 7.78-8.015 10.36-13.213 6.935-14.019 13.204-28.628 19.667-43.081 2.519-5.651 4.832-11.479 7.722-18.37 11.604 11.341 22.704 22.17 34.087 33.294-1.26 2.443-2.09 4.234-3.054 5.889-6.935 11.873-14.019 23.588-20.793 35.599-2.89 5.118-5.646 10.553-7.588 16.382-3.335 10.022-1.022 20.673 5.009 26.463 6.033 5.789 14.154 5.08 20.408-2.384 3.187-3.799 6.298-7.993 8.611-12.737 8.685-17.86 17.444-35.679 25.388-54.128 6.224-14.453 3.157-30.501-6.625-40.739-12.791-13.408-25.596-26.797-38.46-40.069-15.443-15.909-25.803-15.536-40.742 1.202-.504.571-1.051 1.044-1.852 1.811-1.719-2.107-3.408-4.116-5.053-6.182-11.575-14.611-24.958-25.913-38.06-37.884-10.893-9.944-19.608-5.631-28.914 2.067-9.59 7.915-19.134 15.948-28.663 23.983-9.323 7.836-18.689 15.594-27.909 23.647-15.798 13.804-13.233 35.954-5.913 50.878 2.549 5.198 5.81 9.905 9.174 14.236 24.084 30.972 47.782 62.536 72.606 92.444 17.415 20.99 36.03 40.285 54.777 59.207C375.52-86.095 405.501-51.794 429.66-9.244c3.067 5.413 6.52 10.473 10.019 15.417 1.733 2.42 3.823 4.607 6.046 6.142 4.817 3.327 9.708 3.033 14.02-1.615 4.312-4.627 5.543-10.907 4.106-17.877-.668-3.23-1.808-6.38-3.158-9.216-11.099-23.41-23.712-45.187-39.748-63.125-19.563-21.895-38.845-44.263-58.838-65.429-25.981-27.488-49.144-58.992-73.362-88.96-17.429-21.579-34.279-43.966-51.382-66.018-1.068-1.36-2.001-2.836-3.231-4.629M577.886 466.521c1.037 49.205 6.92 94.491 21.194 137.297 14.078 42.254 36.813 73.521 68.974 92.109 18.378 10.612 36.948 19.63 57.592 18.016 40.461-3.17 69.554-54.443 60.498-107.132-2.608-15.181-8.908-27.547-16.925-38.415-17.37-23.53-35.465-45.957-55.77-65.076-13.294-12.522-26.247-25.635-39.452-38.317-2.608-2.5-3.113-4.684-1.304-8.308 5.943-11.911 11.575-24.12 17.651-35.915 4.209-8.171 9.811-14.195 17.355-16.42 1.171-.335 2.342-.946 3.379-1.753 1.971-1.535 5.068-2.855 5.513-5.04 1.29-6.4 2.312-13.428-2.935-18.273-.666-.611-1.23-1.397-1.926-1.949-23.417-18.312-42.521-43.751-62.824-67.202-3.765-4.331-7.44-8.84-11.442-12.738-7.751-7.542-12.997-6.517-19.133 3.169-.518.807-1.082 1.636-1.734 2.225-6.684 5.888-10.938 14.453-13.724 24.021-10.271 35.226-19.992 70.707-23.209 108.571-.979 11.204-1.304 22.486-1.778 31.13m106.233-70.609c-.681.847-1.022 1.38-1.422 1.773-14.687 14.019-25.076 32.842-33.198 53.872-7.025 18.193-8.656 37.823-5.973 57.965.726 5.475 2.741 10.102 6.506 12.977 3.557 2.736 7.618 2.107 10.878-1.537 4.21-4.685 4.669-7.362 2.846-14.176-.386-1.437-.06-3.228-.06-4.057 11.487 9.433 22.527 19.375 34.162 27.862 21.163 15.417 40.075 34.832 58.245 55.663 3.245 3.722 6.15 8.034 8.863 12.444 4.105 6.695 6.269 14.472 6.565 23.195 1.408 39.951-25.372 71.159-55.621 61.983-40.12-12.148-71.362-41.584-88.835-92.502-18.407-53.595-25.566-110.087-18.912-168.485 3.291-28.886 9.65-57.161 14.644-85.711.103-.591.504-1.102.933-2.009 15.325 28.688 36.504 46.508 60.379 60.743"/><path d="M1657.37 290.197c.39.966.67 1.575.9 2.206 1.89 5.12 4.93 8.151 9.27 7.916 4.67-.256 8.14-3.82 9.25-9.569 1.45-7.562 2.08-15.417 2.85-23.195.53-5.671.64-11.402 1-17.11.66-10.711 4.4-19.258 11.25-24.771 5.25-4.213 11.02-7.206 16.45-11.046.83-.591 1.66-3.051 1.38-4.174-1.71-6.93-6.03-9.726-11-11.006-15.68-4.037-33.21 9.253-39.4 29.83-4.22 13.98-4.68 28.589-3.63 43.317.3 4.253-.57 5.869-3.6 7.069-11.73 4.666-20.29 14.551-25.34 29.357-5.45 16.008-3.32 32.174 6.26 44.341 12.15 15.457 26.64 20.204 42.91 14.355 4.11-1.478 8.15-3.78 11.96-6.36 33.3-22.348 53.44-73.956 49.06-123.003-4.07-45.877-19.65-83.425-44.76-114.575-9.4-11.675-20.25-20.084-32.82-24.237-15.27-5.042-28.92 3.051-36.4 21.501-4.72 11.636-6.24 24.356-6.4 37.313-.2 14.117.16 28.255.23 42.392.05 6.378 0 12.778 0 19.355-1.24 0-1.7.196-1.96-.02-14.44-12.091-28.26-25.106-37.18-45.17-4-8.997-7.8-18.271-6.81-29.159.35-3.8 1.68-7.915 3.48-10.929 3.51-5.926 4.62-11.046 2.49-16.677-2.07-5.473-6.8-8.86-11.83-8.171-6.67.905-11.51 5.867-15.05 13.035-6.23 12.64-7.19 26.758-5.64 41.288.55 5.1 1.63 10.142 2.78 15.084.66 2.776.22 4.193-1.33 6.36-4.47 6.32-9.46 12.542-12.47 20.044-4.8 11.931-8.89 24.553-11.94 37.43-8.97 38.099-16.55 76.672-19.65 116.564-.07 1.044-.32 2.086-.59 3.8-1.6-.492-3.09-1.043-4.59-1.418-4.26-1.062-8.1.984-9.75 5.317-1.94 5.02-.98 9.765 1.98 13.153 5.5 6.3 11.07 12.6 17.11 17.878 6.69 5.828 15.23 2.382 18.74-7.66 2.34-6.713 3.89-14.137 4.85-21.462 6.75-52.098 16.62-103.135 29.02-153.344.28-1.163.63-2.303 1.06-3.898.68.729 1.25 1.142 1.64 1.751 11.51 18.49 26.36 30.421 43.23 38.003 19.66 8.82 32.22-2.384 33.16-29.95.45-12.817-.81-25.715-.81-38.572 0-13.722.32-27.486 1.05-41.17.23-4.234 1.84-8.645 3.56-12.367 3.64-7.875 9.05-11.34 16.15-9.706 7.48 1.733 14.35 5.611 19.96 12.168 29.37 34.28 44.54 76.81 41.82 129.441-.15 2.836-.4 5.769-1.1 8.447-7.78 29.575-21.69 51.49-44.5 62.063-6.48 2.993-12.7 2.224-18.54-2.896-11.03-9.646-9.95-30.852 2.24-39.163"/><path d="M1740.02 781.952c-10.91-8.211-21.1-15.713-31.11-23.648-1.06-.847-1.5-4.41-1.3-6.557 2.03-21.462 4.41-42.884 6.42-64.366 5.71-61.038-1.58-120.225-15.4-178.212-2.93-12.287-7.58-24.22-12.83-35.088-13.12-27.133-27.99-52.552-46.1-74.349-7.67-9.254-14.77-19.355-22.47-28.569-6.97-8.368-14.09-16.677-21.78-23.826-4.14-3.839-9.43-6.397-14.45-7.442-9.28-1.929-15.93 8.309-13 20.162 1.62 6.518 4.72 12.995 8.4 17.86 12.29 16.302 24.74 32.448 37.85 47.57 16.6 19.159 30.63 41.192 43.83 64.307 6.83 11.933 12.1 25.006 15.3 39.399 7.21 32.626 13.9 65.449 15.97 99.513 1.8 29.2-.63 57.848-6.83 85.965-2.2 9.963-4.49 19.887-6.27 29.968-3.94 22.289 1.98 38.218 18.19 46.075 13.37 6.478 27.21 11.321 40.94 16.401 3.15 1.162 4.03 2.737 4.01 6.813-.03 5.513.14 11.144.96 16.52 1.76 11.518 8.92 18.705 17.1 17.839 8.12-.847 14.1-9.589 14.57-21.423.09-2.323 0-4.647-.04-6.97-1.02-56.904-.36-113.748 3.13-170.494.56-9.274 1.45-18.509 2-27.763.6-10.14-1.57-16.047-6.28-17.741-4.73-1.693-9.3 2.403-12.53 11.42-4.64 12.957-6.29 26.956-7.51 40.995-3.44 39.438-6.68 78.917-9.98 118.375-.16 1.752-.39 3.485-.79 7.266M1013.04 820.445c-5.94-1.063-11.35-2.107-16.775-2.993-15.502-2.52-30.974-5.178-46.507-7.325-3.794-.531-7.87-.019-11.544 1.339-8.33 3.072-12.316 13.449-9.738 24.455.756 3.21 1.972 6.261 3.217 9.215 18.377 43.495 36.874 86.911 55.133 130.505 4.965 11.833 12.315 18.193 22.214 19.532 15.27 2.067 30.59 3.465 45.81 5.927 31.41 5.06 62.75 10.67 94.13 15.97 2.92.49 5.91.75 8.86.59 6.34-.36 11.17-5.91 11.94-13.35.82-7.819-2.63-15.123-9.14-17.132-8.37-2.58-16.91-4.293-25.42-6.064-38.16-7.915-76.34-15.791-114.53-23.471-4.71-.944-7.38-3.917-9.8-9.391-12.683-28.669-25.77-57.022-38.679-85.513-2.46-5.435-4.801-10.987-7.676-17.583 6.728.807 12.434 1.476 18.141 2.165 10.996 1.32 21.974 2.777 32.974 3.899 2.52.256 3.42 1.536 3.96 4.647 1.47 8.722 3.14 17.386 4.84 26.03.51 2.579 1.15 5.178 2.08 7.521 2.62 6.616 7.65 9.786 12.8 8.388 5.35-1.457 9.3-7.127 9.39-14.787.06-5.296-.46-10.731-1.35-15.909-7.18-42.195-14.5-84.351-21.74-126.527-1.74-10.101-3.35-20.221-5.16-31.248 1.88.177 3.27.197 4.65.433 20.41 3.623 40.89 6.675 60.77 14.315 2.63 1.004 5.61 1.043 8.37.669 4.36-.59 7.5-3.918 8.85-9.589 1.39-5.887.28-11.4-3.29-14.984-3.04-3.032-6.69-5.611-10.35-6.793-18.42-5.985-36.95-11.42-55.44-17.09-7.6-2.324-15.13-5.238-22.83-6.911-3.97-.867-8.46-.69-12.266.886-6.536 2.697-10.019 9.785-10.048 18.803-.015 6.163.784 12.484 1.94 18.489 6.848 35.324 13.904 70.569 20.884 105.833.41 2.048.77 4.095 1.33 7.049M190.46 25.566c4.371 6.302 8.418 13.095 13.22 18.746 4.89 5.749 10.181 11.282 15.946 15.298 11.205 7.797 21.446 1.004 23.461-15.633 3.365-27.644 3.749-55.545 2.045-83.445-.607-9.984-1.378-19.946-2.37-29.87-.401-4.018-1.201-8.113-2.505-11.755-1.794-4.982-5.959-6.005-8.611-1.791-2.239 3.544-4.238 8.13-4.817 12.601-3.453 26.758-6.461 53.635-9.633 80.472-.178 1.555-.356 3.09-.652 5.73-1.512-1.693-2.653-2.757-3.602-4.057-6.165-8.506-12.137-17.248-18.482-25.517-2.934-3.82-6.268-7.502-9.915-9.924-8.55-5.691-17.903-.354-20.793 11.735-1.125 4.686-1.511 9.824-1.555 14.768-.149 16.44-.015 32.902.059 49.361.03 7.325-1.734 9.451-7.158 7.444-17.755-6.597-33.243-18.588-46.004-36.23C87.353-6.547 80.728-42.717 86.256-83.022c2.994-21.797 15.636-31.761 31.76-26.051 8.181 2.896 15.562 7.994 21.846 15.633 3.971 4.805 4.076 6.834 1.201 12.958-.149.295-.253.649-.445.886a3527.67 3527.67 0 0 1-7.247 8.643c-2.461-3.682-5.558-6.931-7.188-11.184-1.749-4.587-4.18-7.658-7.574-7.305-2.742.276-5.869 2.482-7.81 5.14-1.542 2.106-2.268 6.262-2.134 9.39.548 12.898 3.112 25.087 9.47 35.246 6.788 10.83 16.91 14 26.677 8.84 16.199-8.564 29.523-40.659 25.536-63.165-1.186-6.673-3.735-13.782-7.232-18.744-13.309-18.921-29.568-31.739-49.072-35.461-26.691-5.08-49.322 13.802-57.77 47.788-11.13 44.694-6.536 112.979 36.829 156.573 18.081 18.173 38.534 29.042 60.942 33.393 7.114 1.38 13.962.217 20.186-5.06.666-.571 1.452-.945 2.223-1.26 8.226-3.307 11.175-8.151 11.545-19.59.342-10.536.46-21.09.696-31.642.046-1.713.149-3.447.223-5.16.504-.433 1.022-.847 1.542-1.28M506.877 1095.04c-14.405-30.22-35.554-46.05-60.661-54.21-2.49-.8-4.906-1.93-7.396-2.68-26.617-7.91-46.521-28.96-62.571-57.096-8.552-14.982-13.058-32.075-11.516-51.173.326-4.076 1.63-8.289 3.261-11.794 1.748-3.761 1.141-5.69-1.349-7.837-9.812-8.486-23.298-2.638-28.307 12.444-3.024 9.058-2.965 18.49-1.364 27.901 4.105 24.179 12.346 45.305 26.484 61.945 3.824 4.51 7.693 8.98 11.442 13.6 13.204 16.29 28.603 27.18 45.929 33.52 9.203 3.38 18.406 6.85 27.536 10.61 12.524 5.18 23.624 13.8 33.362 25.46 4.876 5.83 8.67 12.5 10.463 21.22.667 3.31 3.053 5.99 4.668 8.94.874 1.58 2.195 2.98 2.593 4.73 2.21 9.75 9.871 13.31 15.504 6.24 3.008-3.76 5.291-9.04 6.89-14.2 4.165-13.4 5.277-27.72 5.306-42.07.119-52.12-9.662-100.5-31.759-143.995-14.91-29.357-29.642-58.872-45.115-87.678-7.632-14.216-16.51-27.33-25.284-40.365-13.665-20.32-27.062-40.797-36.828-64.996-7.366-18.272-13.117-37.41-15.815-57.75-1.407-10.573-1.081-21.659-.755-32.468.133-4.332 2.164-8.703 3.72-12.799 1.585-4.174 3.986-6.675 7.885-4.332.755.453 2.134.04 2.844-.669.386-.374.135-2.304-.147-3.367-2.328-8.447-8.73-13.586-15.161-10.751-4.314 1.89-8.729 5.12-11.975 9.314-14.08 18.232-17.429 40.954-13.621 65.764 5.78 37.666 19.015 70.588 37.689 99.61 8.3 12.897 17.295 25.046 26.306 37.076 10.775 14.394 20.275 30.027 28.96 46.724 10.404 20.005 20.941 39.951 32.278 58.991 26.144 43.908 37.156 94.101 36.786 149.391-.045 2.22-.192 4.49-.282 6.75M551.917 74.476c-8.136 2.875-16.465 5.06-24.379 8.802-13.768 6.497-26.337 16.284-38.266 27.428-37.704 35.244-68.872 78.778-93.222 130.779-8.507 18.155-15.458 37.312-17.712 58.854a80.715 80.715 0 0 0-.4 10.691c.55 20.319 10.539 34.299 25.863 34.201 7.499-.058 15.28-2.264 22.424-5.453 14.39-6.42 27.314-16.718 39.141-29.497 3.201-3.465 7.231-5.551 10.463-8.938 35.273-36.939 65.951-79.489 89.858-130.25 6.52-13.841 12.137-28.332 14.493-44.556.712-4.885 1.156-9.944 1.023-14.906-.562-22.091-11.827-35.795-29.004-35.677a19.887 19.887 0 0 0-.282-1.478m4.061 41.783c-1.007 5.178-1.422 10.731-3.126 15.455-5.291 14.631-10.227 29.673-16.807 43.239-21.386 44.008-50.198 78.858-81.261 110.204-10.553 10.653-23.594 16.993-35.673 24.83-3.305 2.145-7.189 2.972-10.894 3.72-5.557 1.103-6.994-.806-5.928-8.231.771-5.393 1.778-11.026 3.735-15.77 5.617-13.626 11.012-27.566 17.844-40.088 23.95-44.028 53.176-81.162 86.627-112.273 8.447-7.855 17.65-14.413 26.854-20.693 4.328-2.953 9.411-4.057 14.243-5.573 2.786-.904 4.372.945 4.386 5.18M1411.23-114.388c4.42-9.471 9.71-16.973 16.09-23.097 23.6-22.584 49.78-29.042 77.91-20.851 22.46 6.556 43.96 17.071 63.65 33.117 7.3 5.947 14.08 13.173 20.6 20.595 10.2 11.638 15.01 27.173 16.56 44.639.11 1.2.02 2.44.02 4.529-1.52-1.36-2.69-2.422-3.88-3.447-16.63-14.57-33.07-29.554-49.96-43.534-6.89-5.711-14.67-9.669-22.27-13.664-5.1-2.678-9.58-.376-11.7 4.566-2.13 4.962-1.39 11.402 2.57 16.009 3.73 4.33 7.81 8.21 12.03 11.675 6.18 5.062 12.57 9.709 18.96 14.275 18.86 13.449 35.83 30.382 51.9 49.048.9 1.064 1.82 2.127 2.82 3.053 8.99 8.407 20.91 2.067 21.4-12.424 1.31-37.057-3.07-72.676-25.1-98.706-34.77-41.113-75.19-65.883-122.57-65.823-23.96.04-46.17 9.393-65.89 28.077-10.2 9.669-18.06 21.817-22.75 37.45-3.18 10.673-2.95 21.304-.43 32.017 1.16 4.922 4.19 7.206 7.65 8.742 6.39 2.835 12.79 5.591 19.13 8.564 33.63 15.791 63.96 39.243 91.27 69.643 2.69 2.993 5.32 6.064 8.13 8.842 4 3.957 7.84 4.291 11.24 1.3 3.31-2.916 4.94-8.802 3.68-14.789-.73-3.406-1.7-6.89-3.17-9.786-2.35-4.547-4.81-9.233-7.93-12.778-28.55-32.31-59.74-58.596-96.07-72.833-4.42-1.653-8.91-2.816-13.89-4.409M189.185 324.833c15.266 3.111 30.294 4.943 44.344 12.896.726.413 1.363 1.122 2.016 1.773 6.475 6.438 12.405 5.671 16.894-3.309 4.002-8.013 7.145-16.795 10.79-25.123 2.06-4.707 4.387-9.196 7.262-15.182.786 4.431 1.186 7.168 1.764 9.846 6.432 29.693 16.287 57.081 30.946 81.278 4.52 7.444 10.269 9.157 16.969 7.897 7.988-1.497 15.962-3.288 23.994-4.253 4.55-.533 9.188.334 13.783.571l.134 1.536c-.564.689-1.097 1.398-1.689 2.047-34.681 38.414-56.586 86.97-65.316 145.842-.992 6.736-.651 13.862-.577 20.793.029 2.58.815 5.258 1.63 7.66 2.416 7.127 7.203 10.888 12.168 9.845 4.92-1.024 7.528-6.045 8.804-14.176 2.459-15.713 4.89-31.506 8.433-46.803 2.06-8.9 5.527-17.624 9.633-25.204 11.901-21.935 25.076-42.51 40.445-60.427 9.382-10.929 19.638-20.006 31.064-26.74 2.208-1.3 4.417-2.717 6.373-4.568 4.06-3.84 6.061-9.196 4.995-15.831-1.053-6.655-4.476-10.593-9.441-11.655-9.026-1.931-18.126-3.329-27.152-5.278-4.772-1.042-9.484-2.618-14.183-4.233-13.057-4.529-26.01-1.476-38.874 1.3-5.009 1.082-8.004-.591-10.656-6.104-11.487-23.884-20.646-48.968-23.625-77.401a51.956 51.956 0 0 0-.311-2.657c-2.282-15.773-8.715-19.553-19.919-13.391-9.366 5.14-15.932 13.744-21.015 24.77-3.29 7.167-6.254 14.611-9.248 21.993-1.023 2.522-1.853 3.545-4.343 2.58-15.636-5.984-31.271-12.011-47.055-17.228-11.842-3.918-19.133 2.657-21.149 18.706-1.704 13.566-2.534 27.328-4.076 40.934-.697 6.144-1.956 12.229-3.393 18.155-3.231 13.309 2.563 23.784 13.012 23.902 8.567.1 17.117 1.242 25.669 1.635 2.905.138 6.092.276 8.685-1.102 1.867-1.004 3.838-4.353 4.15-6.971.267-2.304-1.245-6.32-2.816-7.404-5.913-4.075-12.108-7.462-18.318-10.651-2.861-1.477-3.779-3.249-3.438-7.462.977-12.091 1.525-24.239 2.237-36.348.104-1.911.238-3.82.4-6.458M173.651 892.214c-2.549 6.4-4.712 12.129-7.084 17.702-4.045 9.49-8.506 18.685-12.271 28.372-4.623 11.893-6.654 24.515-3.839 37.884 4.091 19.435 16.748 33.508 33.347 34.788 9.025.69 18.185-1.39 27.284-2.36 3.749-.39 7.469-1.5 11.219-1.61 5.691-.18 6.981 1.61 6.521 9.25-.636 10.51-1.971 20.97-2.371 31.49-.266 7.06-.089 14.41 1.097 21.24 4.032 23.29 17.532 36.72 35.465 34.83 9.62-1 19.135-3.84 28.709-5.87 7.929-1.67 10.789.63 10.789 11.38 0 9.53-1.571 19.06-2.535 28.59-.163 1.58-.785 3.06-1.067 4.61-1.023 5.75.222 10.87 3.483 13.84 3.616 3.27 7.648 3.43 10.968.08 2.8-2.81 5.498-6.61 6.995-10.75 6.209-17.21 7.78-35.3 3.675-53.75-4.031-18.1-14.464-27.9-28.603-26.27-9.485 1.1-18.853 4.1-28.308 5.87-12.197 2.26-15.709-1.83-15.724-18.39-.016-7.68.622-15.36.933-23.04.222-5.71.563-11.44.548-17.15-.088-22.247-9.721-36.818-26.44-38.156-7.944-.631-16.02 1.575-24.038 2.442-5.87.649-11.842 2.382-17.593 1.536-10.359-1.518-14.865-11.48-11.693-24.693 1.675-6.949 4.135-13.566 6.462-20.201 4.135-11.833 8.61-23.47 12.627-35.383 5.127-15.18 3.112-27.172-6.431-37.942-4.196-4.725-8.79-8.88-13.414-12.857-16.97-14.63-33.272-30.441-48.359-48.359a192.888 192.888 0 0 1-10.923-14.275c-5.543-7.974-9.9-16.893-11.664-27.762-.281-1.772-1.541-3.997-2.727-4.549-.815-.374-2.608 1.438-3.453 2.836-9.16 15.22-11.916 32.193-7.218 50.858 4.032 15.969 11.205 29.24 20.557 40.483 17.577 21.127 37.437 36.682 60.794 43.613 1.126.354 2.252.886 4.282 1.673M-8.256 171.784c1.141.531 1.571.589 1.882.885 21.194 19.75 45.5 31.661 68.16 47.768 4.165 2.973 9.055 4.666 13.754 5.65 5.335 1.123 10.226-1.279 13.22-7.815 2.993-6.538 2.46-13.429-.875-19.139-2.994-5.14-6.58-10.062-10.626-13.645a185.78 185.78 0 0 0-21.683-16.539c-16.125-10.535-31.345-22.92-45.692-37.293-5.365-5.375-10.996-10.357-16.82-14.768-3.44-2.6-7.396-4.529-11.294-5.395-10.034-2.245-19.267 5.395-22.409 18.253-1.022 4.193-1.482 8.742-1.645 13.152-2.149 57.81-.593 115.422 4.031 172.996 2.92 36.426 4.254 73.089 6.358 109.632.356 6.045.815 12.129 1.63 18.095.475 3.445 1.364 6.989 2.698 10.003 3.29 7.424 8.329 11.184 14.88 10.081 6.565-1.102 10.893-6.36 12.434-14.728.934-5.12 1.186-10.653.964-15.949-1.394-33.374-2.742-66.769-4.595-100.123-2.86-51.37-5.943-102.702-4.654-154.29.06-2.106.178-4.173.282-6.831M859.119-211.165c1.467 1.655 2.712 2.973 3.883 4.391 38.252 46.449 76.519 92.877 114.711 139.425 4.654 5.67 8.656 12.306 13.427 17.78 3.04 3.484 6.745 6.693 10.55 8.092 5 1.831 9.56-1.142 12.73-6.773 3.16-5.633 3.74-12.01 1.38-18.214a29.704 29.704 0 0 0-5.51-9.038c-15.769-17.582-31.835-34.693-47.471-52.472-31.494-35.817-62.78-71.947-94.11-108.039-2.12-2.441-4.047-5.238-5.751-8.211-5.409-9.411-16.348-12.68-21.402-1.26-.326.729-.903 1.379-1.481 1.753-9.411 6.202-14.747 17.248-18.585 29.377-18.008 56.745-25.002 115.343-14.406 176.126 2.283 13.053 6.654 25.615 10.983 37.824 3.438 9.686 8.58 12.72 13.709 10.573 5.409-2.265 7.706-8.702 6.846-19.493a121.01 121.01 0 0 0-1.051-8.998c-7.87-51.567-5.07-102.072 8.609-151.435 3.44-12.385 7.352-24.553 11.087-36.8.429-1.457 1.097-2.775 1.852-4.608M1470.39 47.148c-.42-17.269-4.06-33.317-11.35-47.473-15.7-30.42-36.27-52.08-63.98-60.133-1.57-.454-3.19-.965-4.78-.985-4.77-.06-9.33-.06-14.06-2.5-4.58-2.364-9.27.69-12.31 5.571-3.93 6.282-8.22 12.76-10.48 20.144-9.4 30.815-18.23 61.923-26.93 93.093-2.18 7.798-3.53 16.146-4.3 24.395-.37 3.978 1.04 8.605 2.46 12.404.93 2.482 3.16 4.451 5.13 5.849 20.62 14.531 42.29 24.475 65.92 23.786 20.13-.611 38.61-9.215 55.19-24.357 13.06-11.913 19.23-28.884 19.49-49.794m-84.43-81.36c5.88 4.213 11.96 8.408 17.91 12.857 10.97 8.191 21.15 17.782 30.02 29.733 7.18 9.706 12.08 20.968 13.45 34.634 1.39 13.704-1.76 24.73-11.12 31.82-12.74 9.646-26.34 15.612-41.13 14.983-14.12-.61-27.64-5.395-40.81-11.952-.22-.098-.34-.532-.11-.138 10.6-37.333 21.08-74.25 31.79-111.937M1745.39-134.059c-4.79-4.922-8.77-9.548-13.15-13.35-10.18-8.88-20.59-4.745-24.8 10.475-2.11 7.582-3.2 15.949-3.52 24.042-.5 13.015 0 26.09.08 39.143.01 1.575 0 3.13 0 5.65-1.67-1.299-2.97-2.106-4.08-3.208-20.98-20.773-47.14 1.358-48.47 31.82-1.25 28.332 2.47 55.938 8.38 83.05.37 1.694 1.02 3.327 1.73 4.825 2.32 4.962 6.04 7.284 9.91 6.32 3.8-.965 7.09-4.983 7.38-10.731.34-7.267.09-14.649-.35-21.915-.92-14.787-2.35-29.515-3.08-44.321-.29-6.145.01-12.622 1.16-18.569 1.8-9.353 6.39-11.38 12.35-5.986 5.65 5.14 11.11 10.713 16.64 16.108 1.41 1.378 2.74 2.874 4.15 4.271 4.45 4.371 9.25 6.027 14.34 2.364 5.09-3.664 6.83-9.983 6.41-17.248-.73-12.662-1.79-25.282-2.59-37.943-.66-10.16-1.23-20.32-1.72-30.499-.16-3.131-.03-6.262-.03-9.411.46-.296.9-.591 1.36-.887 4.48 6.044 9.06 11.971 13.44 18.173 2.85 4.037 5.27 8.604 8.06 12.72 3.53 5.18 7.94 7.561 13.11 5.237 5.14-2.304 8.11-7.737 8.12-14.608.04-12.84-.55-25.697-1.1-38.535-.83-19.275-2.01-38.532-2.69-57.809-.2-5.809.69-11.735 1.35-17.542.72-6.38 3.72-10.457 8.15-12.918 7.34-4.095 14.77-3.466 22.13-.493 4.86 1.969 9.59 4.549 14.93 7.109 0-7.127.06-14.157-.08-21.186-.01-.907-.88-2.245-1.58-2.58-13.05-6.26-26.31-10.631-40.29-5.887-15.59 5.278-24.47 18.213-25.69 42.057-1.14 22.033-.19 44.263-.15 66.394-.01 1.733.11 3.426.19 5.868M907.162 760.588c9.279.591 18.556 1.418 27.833 1.654 4.535.118 9.19-.236 13.591-1.516 5.558-1.635 7.114-6.045 8.226-13.291 1.733-11.4-.282-22.033-2.461-32.724-5.306-25.873-10.271-51.903-16.346-77.46-3.661-15.417-8.818-30.283-13.991-44.952-1.349-3.82-4.995-7.206-8.152-8.782-21.875-10.968-45.943-2.678-61.371 20.734-11.309 17.169-16.675 37.686-18.809 59.975-2.548 26.542-.977 52.454 6.67 77.44 2.253 7.344 6.136 10.77 12.034 13.862 13.309 7.009 26.752 4.902 40.238 5.237 4.165.118 8.344.02 12.523.02.015-.04.015-.118.015-.197m26.426-24.258c-8.833-1.24-17.356-2.599-25.892-3.623-14.717-1.772-29.463-3.288-44.181-5.139-.948-.118-2.311-2.127-2.519-3.505-2.326-16.382-3.809-32.921-2.03-49.559 2.238-20.871 7.559-39.833 20.363-53.734 6.047-6.556 13.087-9.037 20.705-8.407 1.274.098 3.172 2.028 3.587 3.662 9.885 38.927 19.607 77.933 29.36 116.938.236.945.354 1.949.607 3.367M-.267 589.168c-7.574-5.434-14.776-10.652-22.024-15.732-2.252-1.576-4.58-3.131-7.01-4.036-4.446-1.655-8.937.649-11.456 5.316-2.475 4.607-2.579 11.065-.015 16.145 1.112 2.186 2.534 4.194 4.046 5.907 2.15 2.422 4.402 4.746 6.817 6.656 25.507 20.3 51.057 40.521 76.579 60.762 12.241 9.707 24.453 19.474 36.71 29.161 1.956 1.555 3.942 3.17 6.062 4.214 5.972 2.934 12.152.512 15.546-5.75 3.409-6.301 3.394-15.003-.785-21.363-2.786-4.253-6.314-7.738-9.708-11.184-3.186-3.229-6.654-5.946-10.374-9.215 1.304-1.358 2.312-2.441 3.335-3.485 21.119-21.304 24.083-57.12 6.92-83.977-15.813-24.77-44.802-34.419-67.388-21.994-15.503 8.526-25.062 23.51-26.707 46.35 0 .492-.207.965-.548 2.225m48.893-26.541c13.442-.178 26.292 8.978 32.264 22.958 6.921 16.185 2.697 32.783-10.39 39.241-4.593 2.265-9.632 3.013-14.508 4.194-1.082.256-2.46-.216-3.454-.945-10.404-7.462-20.793-15.003-31.108-22.663-.86-.65-1.823-2.363-1.808-3.564.06-27.408 12.775-38.256 29.004-39.221M158.077 695.06c-.044 12.996 3.052 20.793 9.589 25.656 3.482 2.599 7.321 4.568 11.16 6.065 19.814 7.757 38.948 17.642 57.252 30.42a136.677 136.677 0 0 0 15.798 9.491c2.815 1.437 6.002 2.264 9.01 2.185 5.677-.157 10.124-5.158 11.62-11.991 1.453-6.596-.237-13.743-4.565-18.193-1.793-1.831-3.838-3.308-5.883-4.607-22.068-14.098-44.121-28.236-66.277-42.097-3.32-2.068-3.988-4.214-3.41-8.959 5.677-46.764 11.057-93.566 16.643-140.349.965-8.113 2.831-16.028 3.691-24.159.623-5.907 1.156-12.249.178-17.918-1.971-11.439-10.789-15.201-18.126-8.506-4.727 4.311-7.217 10.651-8.329 17.8-1.971 12.601-3.349 25.339-5.335 37.941-5.825 36.919-11.9 73.759-17.754 110.657-2.061 13.114-3.796 26.326-5.262 36.564"/><path d="M461.628 442.086c-12.494 2.736-29.552 6.044-46.463 10.357-11.589 2.954-23.045 7.029-34.443 11.203-3.675 1.339-7.261 3.997-10.359 7.01-7.677 7.422-8.715 19.827-2.815 29.691 1.422 2.364 3.126 4.431 4.712 6.617 18.496 25.459 37.096 50.779 55.414 76.475 5.024 7.049 9.974 11.381 17.296 6.576.874-.571 2.104-.315 3.157-.256 7.544.453 13.339-4.45 16.08-13.743.341-1.162.741-2.362.844-3.564 2.757-31.464 11.531-60.979 16.822-91.616.963-5.553 1.837-11.244 1.972-16.915.354-14.117-7.011-23.075-22.217-21.835m-24.425 109.908c-13.026-19.926-25.817-39.479-38.932-59.543 18.006-7.52 36.177-10.237 55.236-12.797-5.558 24.651-10.865 48.181-16.304 72.34M1201.61 43.348c2.83 3.189 4.93 5.906 7.29 8.15 4.57 4.392 9.04 9.098 13.99 12.602 7.61 5.396 15.37 3.19 20.5-6.006 3.07-5.513 5.45-11.93 7.32-18.37 4.02-13.842 7.38-28 11.25-41.92 7.59-27.35 18.12-52.611 30.9-76.277 2.02-3.743 3.9-7.778 5.19-12.031 2.04-6.695-.37-11.598-5.8-12.68-4.73-.946-9.01 1.14-12.34 5.158-5.65 6.833-11.34 13.802-16.14 21.68-17.6 28.805-28.72 61.942-35.87 97.601-.65 3.269-1.44 6.518-2.18 9.746-.06.276-.35.454-1.03 1.26-3.24-4.706-6.53-9.353-9.7-14.137-2.4-3.622-4.49-7.62-7.01-11.084-7.81-10.673-18.85-11.304-26.42-.336-4.26 6.163-7.58 13.94-10.02 21.718-6.79 21.6-9.81 44.538-12.24 67.615-.51 4.785-1.04 9.589-1.16 14.393-.24 9.451 3.28 16.993 9.13 20.3 6.14 3.466 13.62 1.811 17.96-5.671 3.2-5.513 5.92-12.168 7.16-18.862 2.76-14.906 4.43-30.146 6.6-45.247.75-5.574 1.63-11.087 2.62-17.602M1295.35 311.994c14.37-.315 29.86-5.553 44.03-16.953 7.6-6.124 15.02-12.64 22.65-18.666 7.38-5.828 12.51-14.531 17.62-23.313 2.02-3.484.75-6.399-1.62-8.644-5.25-4.922-11.18-5.769-16.98-3.149-9.92 4.489-19.57 10.022-29.39 14.865-6.91 3.406-13.8 7.088-20.93 9.51-25.39 8.605-64.72-17.268-74.95-50.227-3.89-12.562-4.31-24.102 2.02-35.384 2.71-4.824 1.94-6.733-2.62-7.384-11.25-1.594-20.13 5.671-24.27 20.202-4.41 15.535-3.82 31.228-.37 46.883 2.78 12.58 7.56 23.744 14.48 33.059 18.75 25.241 41.35 38.808 70.33 39.201M984.424 284.586c.652 28.926 1.171 57.869 2.016 86.793.578 19.749 5.675 27.27 20.32 30.441 18.72 4.036 37.48 7.698 56.21 11.578 2.39.491 4.75 1.3 7.09 2.126 12.21 4.292 24.79-6.459 22.82-26.561-2.12-21.739-2.74-43.752-3.75-65.667-.25-5.473.55-11.044.8-16.558.46-10.437-2.52-17.248-10.13-19.65-8.73-2.758-17.76-3.84-26.61-6.046-15.59-3.878-31.14-8.054-46.71-12.109-2.91-.749-5.78-1.791-8.717-2.147-8.833-1.102-14.421 6.065-13.339 17.8m82.806 107.546c-6.95-2.264-13.79-4.529-20.62-6.713-11.63-3.722-23.25-7.522-34.93-11.007-3-.906-4.08-2.482-4.15-6.735-.43-22.859-1.14-45.699-1.75-68.56-.03-1.338 0-2.678 0-3.76 21.21 4.055 42.03 8.033 62.56 11.971-.37 14.413-.89 28.492-1.07 42.569-.19 14.04-.04 28.078-.04 42.235M357.191 166.527c-.593-27.291-6.002-52.119-16.526-74.763-2.622-5.65-6.401-10.593-10.269-14.886-4.729-5.237-9.249-4.331-13.635 1.32-.579.747-1.142 1.575-1.824 2.087-19.311 14-27.403 37.332-28.944 64.818-2.15 38.277 6.788 72.598 24.008 103.175 3.647 6.478 9.871 8.291 16.496 5.455 6.448-2.737 11.175-8.486 14.925-15.675 8.625-16.557 12.628-35.381 14.672-55.052.578-5.671.77-11.379 1.097-16.479m-34.325 50.838c-6.135-25.557-11.515-50.149-7.721-76.415 1.171-8.054 3.364-15.635 7.114-22.546 12.894 25.261 13.353 75.176.607 98.961M515.46 791.166c-3.068 6.203-5.84 11.637-8.477 17.189-2.001 4.234-4.135 8.428-5.692 12.937-3.171 9.234-.963 18.941 4.995 23.45 5.988 4.529 13.412 2.127 17.637-6.438 6.92-14.059 14.004-28.039 20.14-42.708 9.012-21.56 17.297-43.672 25.729-65.645 1.571-4.096 2.698-8.585 3.513-13.074.919-4.943.281-9.727-3.231-12.858-3.335-2.973-6.877-2.402-9.841.571-3.632 3.623-7.588 7.305-10.078 12.149-7.128 13.842-13.635 28.255-20.319 42.49-2.045 4.372-3.868 8.94-5.913 13.704-6.922-5.237-13.547-9.982-19.919-15.299-1.127-.945-1.689-4.174-1.66-6.32.43-27.881 1.186-55.762 1.452-83.642.103-11.046-.548-22.171-1.378-33.178-.341-4.469-1.542-9.155-3.246-13.054-3.349-7.62-10.33-8.959-14.657-2.304-2.728 4.194-4.491 10.101-5.41 15.634-1.023 6.183-.652 12.798-.785 19.217-.548 26.444-1.127 52.887-1.557 79.35-.147 9.274-.118 18.587.282 27.842.401 9.333 4.654 14.59 11.264 17.386 8.951 3.82 17.755 8.21 27.151 12.601M255.43 609.193c1.898-64.623 2.875-129.323 11.19-193.335.8-6.182.534-12.896-.325-19.099-1.009-7.363-4.759-12.463-10.613-13.605-6.062-1.202-10.73 2.48-13.308 9.411-2.046 5.513-3.409 11.657-4.313 17.722-6.833 45.699-9.619 92.029-12.272 138.399-1.422 24.908-4.238 49.677-6.728 74.467-1.215 12.109 2.372 22.486 10.004 26.463 7.722 4.037 16.317-.177 21.193-10.593 4.253-9.077 5.291-19.316 5.172-29.83M18.823 284.744c2.03 14.375 4.239 28.708 6.032 43.141 1.512 12.148 2.816 24.357 3.72 36.603 1.23 16.56 9.218 23.313 21.371 19.119 16.377-5.651 30.042-17.09 42.417-31.839 5.01-5.966 10.27-11.597 14.924-18.035 2.52-3.486 4.698-8.015 5.765-12.582 2.253-9.708-2.416-19.335-9.841-21.757-19.918-6.459-38.207-17.859-55.68-31.859-2.416-1.929-4.743-4.095-7.263-5.809-9.915-6.733-19.385.138-20.526 14.807-.208 2.659-.252 5.357-.37 8.015a1.712 1.712 0 0 1-.55.196M674.926 182.533c-2.934.473-5.898.709-8.803 1.438-24.869 6.262-37.036 36.899-24.542 66.08 11.648 27.23 28.47 47.472 53.814 49.874 3.986.374 8.106.098 12.034-.826 23.801-5.613 35.376-33.217 26.632-63.127-8.773-30.007-34.917-53.557-59.135-53.439m25.699 79.489c-8.921-.138-16.108-4.942-23.563-9.175-5.544-3.151-8.419-8.487-10.509-15.202-3.349-10.749-.251-17.386 8.508-17.424 13.441-.04 24.572 6.969 32.916 21.068 2.578 4.371 5.053 9.549 2.772 15.24-2.195 5.473-6.655 5.275-10.124 5.493M155.748 220.496c-.192 11.007 3.084 17.544 10.537 20.26 9.976 3.644 20.142 6.36 30.175 9.728 7.693 2.578 15.295 5.572 22.957 8.329 8.152 2.933 11.175.374 14.969-9.451 3.957-10.239 6.077-20.892 7.174-32.154.295-3.091 1.57-6.045 2.4-9.038 2.386-8.526-.415-16.461-6.832-19.295a60309.95 60309.95 0 0 0-55.829-24.77c-1.659-.729-3.319-1.498-5.024-1.989-8.596-2.442-15.221 2.875-16.569 14.453-1.75 14.984-2.757 30.143-3.958 43.927m23.847-29.101a38224.53 38224.53 0 0 1 36.784 16.48c-1.689 7.424-3.261 14.355-4.906 21.599-.771 0-1.763.276-2.608-.038-10.197-3.92-20.393-7.897-30.531-12.051-.636-.255-1.348-2.244-1.243-3.288.68-7.267 1.57-14.473 2.504-22.702M403.31 41.497c-.089-23.117-5.41-43.24-19.119-58.46-2.772-3.092-5.691-6.065-8.788-8.525-4.224-3.349-8.123-1.104-11.531 2.558-9.648 10.337-14.984 24.121-17.547 39.972-1.809 11.222-.46 22.033 2.726 32.566 5.321 17.504 14.214 31.563 24.454 44.145 6.966 8.545 17.341 4.529 20.483-7.324a65.75 65.75 0 0 1 2.429-7.344c5.277-13.291 7.011-22.644 6.893-37.588m-26.011 26.226c-12.212-21.126-14.569-41.841-6.046-57.041 10.122 17.129 12.776 41.27 6.046 57.04M924.124.442c-23.714 6.3-43.188 18.213-55.548 45.11-7.811 16.993-12.39 35.677-14.303 55.428-.992 10.355 2.135 18.093 8.182 21.028 6.003 2.913 12.642-.198 16.777-8.447 2-3.977 3.556-8.408 4.995-12.839 2.119-6.575 4.03-13.27 5.883-19.984 5.69-20.577 15.546-36.426 29.611-48.023 6.832-5.633 13.191-12.327 19.608-18.804 2.905-2.935.726-6.124-1.142-7.187-4.845-2.697-9.974-4.51-14.063-6.282M1518.95 130.375c-2.01-20.182 4.29-35.717 15.94-47.63 7.52-7.698 15.58-14.531 23.58-21.362 2.45-2.089 3.03-4.233.56-5.73-4.18-2.54-8.69-5.494-13.13-5.71-22.02-1.064-49.05 26.58-54.32 54.854-2.16 11.678-2.62 23.589.73 34.853 1.65 5.551 4.44 11.341 7.93 14.944 7.9 8.151 18.04 1.32 18.68-11.913.22-4.076.03-8.191.03-12.306M1236.39 759.761c.06-24.908-3.94-48.339-15.21-68.718-2.53-4.568-6.04-8.604-9.72-11.538-3.75-2.993-7.19-.787-7.88 4.942-.63 5.08-.27 10.613.51 15.732 1.1 7.148 3 14.079 4.58 21.088 5.9 26.168 7.18 52.612 2.85 79.429a46.576 46.576 0 0 0-.61 6.36c-.09 4.332.68 8.289 3.83 10.455 3.36 2.343 6.95 1.674 9.33-1.772 2.85-4.115 5.49-8.9 7.1-13.999 4.21-13.33 5.26-27.586 5.22-41.979M551.294 599.289c.089-11.558-.948-22.86-4.565-33.513-2.919-8.624-6.892-16.264-13.161-21.166-5.616-4.411-11.545-5.355-17.058.118-5.41 5.355-6.432 13.133-4.742 21.226 1.245 5.966 3.216 11.755 5.38 17.268 6.357 16.185 9.662 33.217 9.174 51.548-.238 8.683 2.104 13.546 6.757 15.181 4.713 1.653 9.604-1.713 12.153-9.412 4.328-13.094 5.9-27.015 6.062-41.25M1308.47 720.972c-.1-10.632-2.74-19.965-8.38-27.605-10.13-13.704-26.56-12.72-34.91 2.934-6.68 12.523-9.41 26.778-5.73 42.116 5.82 24.278 26.97 30.677 40.24 12.228 5.61-7.797 8.78-18.528 8.78-29.673m-19.53 3.426c-.44 2.107-.78 5.356-1.82 8.132-2.27 6.045-6.36 6.636-9 .945-1.6-3.446-2.29-7.856-2.77-11.952-.56-4.902 3.26-11.085 6.67-11.715 2.86-.532 5.38 2.895 6.33 8.742.27 1.556.33 3.17.59 5.848M799.762 488.218c1.378.729 2.905 1.32 4.253 2.304 8.967 6.536 17.874 13.192 26.826 19.769 3.883 2.855 7.676 6.004 11.752 8.289 2.639 1.477 5.736 2.344 8.567 2.146 5.439-.373 8.032-7.855 4.832-13.744-1.527-2.815-3.676-5.315-5.944-7.088-16.465-12.858-33.034-25.538-49.604-38.177-1.853-1.418-3.838-2.62-5.868-3.525-7.485-3.348-15.251 1.811-15.651 12.167-.563 14.728.103 29.614 1.112 44.323.503 7.364 5.824 11.597 10.818 10.809 5.098-.807 8.7-6.163 8.863-13.782.178-7.64.044-15.28.044-23.491M580.032 307.741c-1.779-14.255-3.439-28.511-5.409-42.708-.445-3.229-1.66-6.457-3.054-9.233-3.394-6.813-8.314-10.122-14.51-8.96-6.209 1.182-10.448 6.202-11.87 14.098-.933 5.237-.979 11.008-.489 16.402 1.17 12.937 2.8 25.794 4.386 38.652 1.675 13.644 7.678 21.324 15.843 20.595 8.123-.729 13.695-9.569 14.303-22.82.089-1.951.015-3.919.015-5.888.266-.038.518-.078.785-.138M525.58 424.462c-1.97-27.033-10.76-50.345-26.721-68.42-4.031-4.569-9.544-7.109-14.657-9.609-3.735-1.831-7.633-.355-10.018 4.351-2.431 4.804-1.498 9.766.992 13.96 4.253 7.146 8.877 13.921 13.176 21.028 4.801 7.955 9.515 15.989 14.035 24.219 3.438 6.262 6.017 13.093 6.476 21.089.118 2.066.815 4.153 1.527 6.064 1.526 4.133 3.853 6.949 7.617 6.458 3.943-.512 5.913-4.056 6.729-8.703.534-3.092.534-6.359.844-10.437M-6.064 659.107c-.77-3.623-1.378-6.695-2.074-9.727-1.794-7.797-5.514-11.735-9.945-10.633-4.476 1.122-7.247 6.498-6.402 14.59.74 7.187 2.015 14.433 3.971 21.186 2.668 9.235 8.493 11.519 15.132 7.128 3.839-2.54 7.677-5.198 11.679-7.206 1.378-.689 3.616-.217 4.905.866 12.213 10.377 24.277 21.029 36.444 31.484 1.2 1.024 2.712 1.536 4.15 1.93 3.023.807 5.691-.236 7.395-3.8 1.779-3.722 1.586-7.857-.533-10.987-1.823-2.698-4.313-4.686-6.67-6.636-8.521-7.108-17.191-13.901-25.624-21.186-2.653-2.304-4.906-5.572-7.01-8.782-3.439-5.257-7.44-6.675-12.301-4.371-4.15 1.989-8.33 3.918-13.117 6.144M1152.36 307.741c-14.79-.138-22.81 15.417-17.73 34.517a361.468 361.468 0 0 0 4.94 16.815c3.5 11.046 14.64 16.993 24.38 13.153 13.32-5.278 19.52-22.289 14.36-39.439-4.33-14.353-15.31-24.946-25.95-25.046m2.3 45.701c-.03-.611-.05-1.2-.08-1.811-.53-1.831-.89-5.12-1.63-5.278-4.95-1.082-4.82-6.438-5.53-10.888-1.06-6.832 1.6-10.12 6.82-8.84 5.08 1.24 10.98 8.86 11.29 15.79.12 2.658-1.14 6.558-2.74 7.956-2.24 1.949-5.38 2.126-8.13 3.071M746.528 456.419c0-4.273.71-8.82-.134-12.797-2.105-9.865-8.492-12.76-15.235-13.98-14.524-2.64-29.375 18.784-26.099 37.764 2.016 11.657 7.884 19.021 16.555 21.699 8.432 2.598 14.924-2.245 19.858-11.184 3.513-6.38 5.232-13.606 5.055-21.502m-19.963 9.275a50.41 50.41 0 0 1-1.645-.138c-.461-2.068-1.631-4.47-1.201-6.144.666-2.619 2.075-5.553 3.794-6.891 1.881-1.477 3.038 1.103 2.446 3.465-.83 3.366-2.239 6.478-3.394 9.708M750.616 745.466c-11.398 1.083-22.468-1.713-33.495-5.001-1.171-.354-2.371-.729-3.556-.866-3.794-.453-6.981 1.083-8.775 5.808-1.704 4.489-.889 8.762 1.483 12.424 1.66 2.56 3.72 4.667 5.365 7.246 5.172 8.132 10.227 16.362 15.31 24.593.933 1.516 1.66 3.288 2.682 4.666 3.675 4.903 8.744 3.308 10.715-3.051.727-2.344 1.898-4.529 3.113-6.518 4.801-7.876 10.004-15.397 14.39-23.647 1.304-2.462 1.453-7.66.356-10.298-1.26-3.013-4.506-4.568-6.877-6.773zM1320.91 393.294c4.25-3.86 8.27-7.384 12.2-11.066 4.16-3.918 7.59-8.624 8.43-15.693.59-4.98-.34-9.351-3.73-12.069-3.25-2.6-6.5-1.773-9.47 1.042-8.62 8.153-17.27 16.245-25.76 24.653-1.97 1.949-3.86 4.647-4.89 7.56-2.21 6.242.1 12.524 5.14 16.559 10.46 8.349 20.84 16.915 31.24 25.402.58.471 1.13 1.002 1.72 1.397 3.78 2.56 7.72 1.496 9.65-2.619 1.96-4.136 1.02-9.156-2.43-12.66-6.2-6.302-12.42-12.542-18.63-18.824-1.04-1.062-2.08-2.186-3.47-3.682M148.844 500.189c-.592-7.382-1.156-14.766-1.778-22.151-.845-9.824-8.211-15.85-14.91-11.104-7.914 5.611-15.487 12.227-22.794 19.197-4.668 4.449-4.846 12.936-.326 17.72 7.87 8.349 16.051 16.264 24.513 23.511 5.454 4.666 13.753-3.269 14.717-13.685.415-4.391.074-8.919.074-13.368.163-.06.327-.1.504-.12M424.042 649.498c-10.819 1.162-18.985 12.917-17.681 26.562 1.053 11.144 4.609 20.969 10.642 28.885 9.707 12.719 22.32 8.447 26.455-8.782 4.09-17.071 1.733-29.673-8.063-39.32-3.32-3.269-7.544-4.943-11.353-7.345M608.174 250.267c-.623-13.684-3.023-26.404-7.514-38.415-.356-.964-.8-1.871-1.245-2.757-3.631-7.207-8.937-10.671-13.932-9.076-5.245 1.673-9.024 8.013-9.144 17.011-.089 6.006.741 12.071 1.438 18.037.83 7.049 2.105 14 2.95 21.048 1.377 11.44 6.15 18.056 13.294 17.996 7.025-.038 12.405-6.989 13.694-17.8.267-2.067.326-4.233.459-6.044M1428.14 769.37c4.58-.256 7.91-2.954 9.01-7.66 1.22-5.257-1.02-12.345-5.25-15.476-2.32-1.713-4.98-2.619-7.45-3.977-14.01-7.758-28-15.555-42-23.293-1.85-1.024-3.72-2.127-5.68-2.718-4.58-1.378-8.96 1.536-10.7 6.852-1.71 5.159-.54 11.066 3.21 14.728 1.69 1.674 3.66 2.993 5.64 4.076 15.03 8.211 30.05 16.362 45.14 24.396 2.57 1.378 5.38 2.067 8.08 3.072M486.097 26.65c-1.216.63-3.587 1.418-5.633 2.954-17.176 12.955-30.455 31.444-41.75 52.65-3.141 5.906-2.519 12.581 1.097 16.381 3.617 3.8 8.582 2.994 12.153-2.657 11.398-18.036 24.528-33.453 39.111-46.764 4.447-4.055 5.944-9.392 4.506-14.688-1.363-5.14-4.268-7.562-9.484-7.876M1112.74 599.978c-.44-16.185-2.95-30.224-6.98-43.79-4.98-16.736-14.66-26.502-27.25-31.662-5.44-2.244-8.54 1.675-6.88 9 .74 3.268 2.52 6.182 4.08 9.037.93 1.714 2.19 3.209 3.51 4.409 14.03 12.8 18.02 32.056 19.47 52.987.21 3.012.31 6.104.85 9.017.77 4.195 2.83 7.03 6.24 7.069 3.42.04 5.55-2.717 6.24-6.99.56-3.446.57-7.049.72-9.077M298.754 726.505c8.314-.138 12.953-8.034 10.522-15.89-1.348-4.391-3.808-9.077-6.758-11.538-10.581-8.802-21.49-16.933-32.471-24.829-4.15-2.993-8.27-1.201-10.448 3.032-2.149 4.174-1.631 9.648 1.51 14.197a35.92 35.92 0 0 0 4.196 5.001c8.209 8.112 16.361 16.323 24.749 24.1 3.113 2.875 6.804 4.647 8.7 5.927M121.439 356.651c-1.289.591-3.779 1.437-6.032 2.875-9.426 6.006-16.629 15.693-23.268 26.07-4.09 6.378-3.572 15.042.474 20.536 4.09 5.533 10.863 6.064 15.813.806 2.179-2.302 3.972-5.295 5.736-8.209a961.38 961.38 0 0 0 12.449-21.068c1.29-2.244 2.52-4.706 3.276-7.306 2.253-7.698-.993-13.664-8.448-13.704M597.859 739.225c-1.496-2.757-2.682-6.99-4.89-8.408-2.06-1.319-5.411-.276-7.825.965-1.987 1.024-3.78 3.564-5.039 6.005-5.173 9.963-10.524 19.828-15.015 30.303-3.467 8.092-1.363 16.717 3.869 20.517 5.366 3.918 11.915 1.24 15.384-7.089 3.765-9.037 7.173-18.37 10.375-27.802 1.422-4.134 1.955-8.821 3.141-14.491M945.313 361.259c-1.127.334-3.29.669-5.277 1.654-8.432 4.153-16.85 8.328-25.164 12.837-5.677 3.091-7.855 8.506-6.389 14.491 1.468 6.026 6.299 9.786 11.828 7.484 9.84-4.077 19.445-9.137 29.122-13.862.978-.473 1.837-1.477 2.667-2.364 3.661-3.938 4.921-8.9 3.513-13.644-1.304-4.331-4.831-6.871-10.3-6.596M1716.99 406.762c-12 .414-19.16 8.112-18.79 20.222.32 10.396 7.96 19.846 15.8 19.611 9.23-.296 17.1-9.471 17.05-19.848-.06-9.529-7.56-20.202-14.06-19.985M1135.86 182.455c-10.36-.473-18.48 10.613-16.18 22.506 2.44 12.66 14.06 19.08 22.64 12.798 5.84-4.273 9.96-9.805 9.71-19.237-.24-8.958-4.65-14.787-11.46-15.536-1.46-.137-2.95-.313-4.71-.531M1055.31 440.097c-1.69.276-3.29-.06-4.28.807-1.89 1.635-4.46 3.682-4.82 6.084-.41 2.698.89 6.36 2.22 8.86.95 1.813 3.1 2.953 4.86 3.466 7.31 2.185 14.63 4.411 22.04 5.887 4.91.984 8.02-1.733 8.76-6.044.77-4.529-1.98-10.791-5.99-12.424-5.11-2.087-10.34-3.702-15.57-5.278-2.46-.747-5.03-.964-7.22-1.358M283.875 642.37c-3.17.177-6.031 1.969-7.454 6.38-1.541 4.745-1.172 10.041 2.045 12.621 6.032 4.824 12.375 9.431 19.03 12.247 5.632 2.382 9.721-4.922 7.617-12.09-2.252-7.738-14.628-19.059-21.238-19.158M930.997 354.328c5.127-.119 8.418-2.246 9.039-6.242.609-3.919-1.807-8.25-6.564-9.964-5.824-2.126-11.783-3.662-17.741-4.942-4.031-.866-7.084 1.949-7.855 6.262-.844 4.765 1.038 9.766 5.218 11.084 5.869 1.832 11.929 2.58 17.903 3.802M293.819-15.113c0-4.095.237-8.21-.074-12.246-.281-3.702-1.481-7.01-4.846-7.247-3.305-.235-4.994 2.64-5.514 6.36-.681 4.864-.874 9.865-1.215 14.807-.237 3.368-.325 6.735-.578 10.101-.326 4.569 1.008 7.68 4.462 8.703 3.008.906 6.328-1.752 6.966-6.163.666-4.686.695-9.53.992-14.315a.318.318 0 0 1-.193 0M382.238 123.032c-5.127.018-9.026 5.198-8.95 11.873.088 7.52 4.801 13.802 10.299 13.704 5.276-.1 9.544-6.104 9.5-13.37-.044-6.714-4.935-12.207-10.849-12.207M954.119 577.473c-4.209-.217-6.655 3.997-5.543 8.801.785 3.367 2.223 6.439 3.365 9.668 1.763 4.981 3.511 9.983 5.26 14.984 1.304 3.761 3.439 5.592 6.477 4.154 2.742-1.299 3.691-4.686 2.712-7.856-2.86-9.175-6.046-18.174-9.337-27.093-.548-1.477-2.312-2.127-2.934-2.658M204.241 111.355c.578 3.406.46 6.42 1.526 8.053 1.497 2.324 3.825 4.864 5.9 5.042 1.896.156 4.935-2.049 5.75-4.313 2.415-6.695 3.141-14.04.578-21.108-2.416-6.636-7.514-7.265-10.301-.905-1.837 4.135-2.46 9.215-3.453 13.231M339.108 612.028c4.919.059 8.714-4.607 8.699-10.672-.014-6.143-4.076-11.321-8.893-11.341-4.579-.039-8.55 5.297-8.685 11.676-.133 5.868 3.646 10.278 8.879 10.337M1356.14 686.239c4.39.059 7.59-3.8 7.71-9.353.1-5.493-3.21-10.061-7.28-10.041-4.27.019-8.39 5.316-8.44 10.868-.08 5.454 2.75 8.447 8.01 8.526M711.978 636.581c6.816-.255 14.42-3.13 20.289-11.558 5.291-7.619 6.002-17.858 2.016-25.616-2.149-4.174-4.921-5.237-8.715-4.411-12.998 2.875-25.669.709-37.866-5.828-1.409-.748-2.668-2.422-3.676-4.016-2.209-3.505-3.854-2.481-5.276.826-2.608 6.104-2.608 12.681-1.408 19.257 3.156 17.367 17.889 31.228 34.636 31.346"/></g><g fill="#fff" clip-path="url(#b)" opacity=".05"><path d="M-94.008 1743.76c19.311-12.52 40.342-17.45 60.913-24.51 12.745-4.4 25.165-10.5 37.718-15.87 1.245-.54 2.416-1.38 3.527-2.03-.03-.73.06-1.2-.074-1.38-23.846-30.17-33.642-68.23-34.932-110.85-.978-32.65 3.587-64.09 12.776-94.36 2.475-8.13 4.712-16.4 7.662-24.22 1.615-4.31 4.016-8.6 6.877-11.48 4.312-4.31 9.425-3.97 14.079-.21 4.802 3.88 7.114 9.92 6.566 17.23-.341 4.53-1.512 9.05-2.713 13.37-11.115 39.95-13.946 80.65-6.535 122.31 2.741 15.45 7.766 29.67 13.53 43.49 3.38 8.12 6.581 16.37 10.153 25.27 3.809-3.67 7.395-7.29 11.115-10.62 3.498-3.13 7.336-3.7 11.086-.86 3.735 2.83 5.247 7.5 5.113 13.11-.03 1.59-.044 3.35-.548 4.73-2.55 7.04-4.669 14.51-8.003 20.85-7.796 14.82-18.793 24.77-31.494 30.52-18.081 8.17-36.28 16.12-54.762 22.44-20.734 7.11-40.786 15.95-59.43 30.09-.786.59-1.735.85-2.594 1.26-.03-16.07-.03-32.17-.03-48.28M-94.008 844.309c.608-.65 1.32-1.201 1.793-1.989 11.53-18.725 25.685-33 41.898-43.79 14.006-9.313 27.285-20.064 39.2-33.729 17.919-20.556 31.598-45.365 41.943-73.423 9.44-25.597 10.448-51.883 1.912-78.327-1.794-5.532-3.972-11.124-6.832-15.732C13.87 578.043.087 561.385-16.763 549.67c-6.328-4.391-8.818-11.322-6.55-18.784 2.193-7.167 8.27-10.751 14.538-7.64 4.491 2.225 8.878 5.238 12.91 8.702 13.412 11.54 25.639 25.184 35.776 41.508 23.965 38.65 28.322 81.692 13.427 127.511-9.648 29.692-23.787 55.623-41.571 77.774-13.383 16.678-27.685 32.213-43.958 43.417-26.87 18.508-45.04 47.452-59.416 81.653-.711 1.694-1.6 3.229-2.4 4.844zM796.442 1368.94c14.88-21.5 30.042-41.15 48.019-56.92-.667-1.24-1.022-2.17-1.556-2.87-11.9-16.29-16.85-36.21-17.236-58.46-.029-2.13.148-4.32.563-6.36.919-4.49 3.038-7.58 6.625-8.33 3.69-.79 6.848.9 8.626 5.18 1.333 3.21 2.193 6.91 2.726 10.55 2.194 14.87 5.173 29.2 12.554 41.35 2.415 3.98 4.165 4.84 7.455 1.44 10.714-11.11 21.8-21.58 32.486-32.73 10.27-10.71 22.972-7.54 28.84 8 1.795 4.76 3.084 9.94 4.165 15.08 4.714 22.39 9.218 44.85 13.888 67.28 1.615 7.76 3.482 15.42 5.201 23.13 5.913 26.65 18.792 46.26 35.466 62.05.534.51 1.141.88 2.12 1.61.695-1.85 1.348-3.54 1.955-5.26 7.337-20.91 13.901-42.37 22.171-62.61 9.49-23.19 20.23-45.54 30.95-67.81 5.78-12.03 18.58-11.03 24.08 1.99 3.57 8.46 6.22 17.92 8.02 27.35 2.95 15.39 4.99 31.13 7.2 46.76 3.75 26.58 10.24 51.86 19.98 75.65 5.79 14.14 11.59 28.27 17.49 42.33 10.33 24.63 23.59 46.27 39.6 64.62 7.99 9.16 16.97 17.05 26.16 24 13.79 10.44 28.15 19.52 42.28 29.17.71.49 1.45.94 2.21 1.32 5.56 2.65 6.16 4.33 3.73 11.61-2.47 7.41-7.02 11.89-12.98 11.5-6.77-.43-13.87-1.18-20.16-4.23-13.11-6.38-26.07-13.67-38.6-21.88-23.95-15.73-42.41-40.34-58.37-68.14-15.37-26.78-28.53-55.55-40.09-85.56-10.7-27.8-15.32-57.9-18.41-88.52-.29-3.01-.66-6.01-1.03-9-.03-.26-.36-.45-.83-1.02-.7 1.53-1.44 2.95-2 4.47-10.98 30.16-20.62 61-25.92 93.93-3.04 18.89-15.684 28.85-29.096 21.62-30.782-16.61-56.022-41.93-67.835-84.98-7.084-25.83-12.405-52.51-18.51-78.81-.43-1.87-.8-3.77-1.363-6.4-1.409 1.16-2.505 1.99-3.558 2.93-6.387 5.67-12.538 11.83-19.162 16.93-26.797 20.62-48.405 48.7-67.153 81.03-1.808 3.11-3.587 6.28-5.631 9.11-8.211 11.42-20.483 11.01-27.152-2.04-3.438-6.72-5.676-15.07-6.966-23.1-9.144-56.83-7.87-113.39 3.543-169.47 2.489-12.25 5.261-24.44 8.552-36.35 9.351-33.88 24.808-62.06 44.491-87.03 39.096-49.58 86.24-79.9 136.141-104.334 18.052-8.84 36.147-17.682 53.759-27.899 9.39-5.456 18.09-13.331 26.63-21.031 8.79-7.935 14.24-19.315 16.17-33.432.43-3.17 1.07-6.281 1.75-9.373.97-4.469 2.87-7.876 6.72-7.777 3.8.098 5.95 3.426 6.69 7.935 1.88 11.498 2.22 23.037-.33 34.496-3.33 14.886-9.94 27.133-18.73 36.859-7.31 8.073-15.04 15.989-23.51 21.566-18.06 11.91-36.44 23.11-55.173 33.01-26.736 14.14-52.109 31.8-77.081 50.55-7.322 5.49-13.991 12.76-20.454 20-9.47 10.6-18.524 21.84-27.684 32.93-17.711 21.42-30.219 47.41-37.912 77.44-8.58 33.49-15.027 67.67-16.228 103.13-.533 15.83.579 31.76.979 47.65.044.96.34 1.95.725 4.17M1463.49 1261.77c-7.44-.59-14.72-.47-21.83-1.93-11.83-2.4-22.76-8.64-32.82-17.23-13.6-11.63-19.75-29.73-23.31-49.69-3.51-19.73-2.65-39.48 1.25-58.95 7.02-35.07 20.81-64.53 41.72-88.02 16.55-18.57 34.83-33.65 53.82-47.254 1.51-1.082 3-2.245 4.33-3.229-3.34-7.127-6.51-13.902-9.75-20.813-6.15 1.773-12.62 4.116-19.2 5.456-12.32 2.52-24.16.353-35.17-7.858-16.99-12.68-23.12-34.279-16.32-58.458 6.27-22.447 18.36-38.907 32.3-53.104 4.97-5.06 10.49-4.41 14.11.217 3.41 4.351 3.82 11.066.53 18.272-3.36 7.325-7.39 14.118-10.69 21.482-3.56 7.954-7.04 16.067-9.77 24.553-2.24 6.97-1.03 11.263 4.11 14.748 4.35 2.933 9.25 5.493 14.04 5.966 7.19.709 14.49-.591 21.73-1.004 2.33-.138 2.94-2.009 3.5-4.765 1.6-7.739 3.37-15.418 5.51-22.919.87-3.052 2.56-5.947 4.36-8.231 3.29-4.194 7.39-5.08 11.63-2.894 4.14 2.126 6.46 6.478 6.84 12.247.2 3.327-.18 6.754-.55 10.101-.98 8.663-2.46 17.228-3.07 25.932-.65 9.391 1.23 17.917 7.79 23.115 1.37 1.084 3.82 1.615 5.09.729 10.94-7.66 22.01-15.062 32.44-23.824 10.87-9.158 15.2-23.944 16.72-40.07-6.21-1.811-12.33-2.914-18.12-5.395-32.27-13.803-47.06-49.953-38.48-93.783 7.05-36.052 26.42-54.048 52.47-60.841 21.32-5.553 40.72 2.107 57.66 19.65 24.84 25.696 37.17 60.409 39.92 101.56 1.06 15.752.67 31.425-1.96 46.961-6.32 37.411-22.91 63.697-48.95 79.563-24.01 14.65-49.38 17.98-75.43 14.65-3.62-.45-7.34-.69-10.77-2.07-4.85-1.92-8.75-.27-12.9 3-21.43 16.89-42.68 34.12-61.79 55.62-14.07 15.85-25.47 34.4-32.74 57.1-5.62 17.65-8.36 35.88-5.2 54.98 3.03 18.21 9.93 33.19 21.88 43.43 11.58 9.91 23.75 18.17 38.25 22.57.9-6.9 1.79-13.45 2.6-20.03.45-3.52.56-7.16 1.31-10.55 1.94-8.78 7.77-13.81 14.11-12.51 6.1 1.24 10.5 8.24 10.73 17.04.02.71.08 1.45-.02 2.14-3.83 28.97-10.18 56.39-26.82 77.54-8.97 11.42-19.57 19.28-31.72 22.25-19.85 4.86-39.8 9-59.77 12.98-17.59 3.5-35.13 7.01-52.13 14.33-15.11 6.5-25.27 19.81-29.84 39.72-1.82 7.97-1.66 16.85-1.84 25.34-.11 6.06-1.09 8.42-5.77 8.72-6.61.41-11.31-4.21-14.77-11.09-5.63-11.18-8.43-23.55-7.35-37.11 2.34-29.6 13.68-51.16 33.53-64.58 16.89-11.44 35.09-17.55 53.88-19.28 23.76-2.19 47.61-2.9 71.39-4.55 5.75-.39 11.58-1.34 17.16-3.19 11.02-3.62 18.04-13.37 22.14-26.74m84.63-274.769c19.45.669 38.01-2.994 54.48-17.387 11.21-9.786 18.9-23.115 22.94-40.187 3.83-16.165 4.42-32.606 3.1-49.322-2.32-29.575-10.3-55.368-27.81-74.96-15.32-17.13-34.63-19.197-51.8-5.631-8.12 6.419-13.32 15.634-14.89 27.96-3.77 29.672 8.03 51.193 29.21 64.543 0-2.087.01-3.997 0-5.887-.05-5.356-.36-10.751-.08-16.067.27-5.356 2.26-9.511 6.41-11.165 3.7-1.476 7.85.296 10.16 5.238 1.67 3.564 3.31 7.699 3.6 11.755.9 12.404 2.11 24.967 1.46 37.312-1.47 29.003-11.12 52.276-30.08 67.949-2.27 1.871-4.46 3.9-6.7 5.849M1192.67 647.41c1.75 10.928 3.74 20.222 4.64 29.673 2.21 23.313-.49 46.389-2.86 69.426-5.45 53.123-16.02 104.711-26.57 156.318-6.01 29.397-10.72 59.246-9.98 89.903.3 12.21 1.68 24.65 4.08 36.43 4.03 19.71 13.87 32.49 29.06 37.9 13.9 4.96 27.82 6.14 41.99 2.78 25.59-6.07 49.16-18.55 70.16-39.07 17.37-16.95 29.98-38.65 34.77-66.944 1.43-8.487 1.3-17.878.29-26.542-2.34-20.202-11.19-33.512-26.23-39.281-16.39-6.281-32.71-6.399-48.91.787-15.1 6.695-28.13 18.056-39.14 33.178-7.88 10.849-14.33 23.607-11.26 39.4 4.49 23.037 12.64 43.312 29.8 54.602 1.48.96 2.48 3.21 3.71 4.86-1.43 1.14-2.74 2.8-4.3 3.33-15.19 5.29-28.53.43-39.9-13.73-7.82-9.74-14.21-21.045-18.95-33.843-7.47-20.201-7.95-40.797-.28-60.959 3.24-8.526 7.08-17.268 12.18-23.805 31.92-40.837 69.46-57.061 113.35-43.554.78.236 1.55.59 2.32.905 27.84 10.594 44.24 34.851 49.85 72.557 3.51 23.53 1.19 45.937-6.2 67.516-5.96 17.403-13.81 33.293-24.28 46.473-30.75 38.72-67.33 59.64-109.77 61.64-11.38.54-22.53-2.34-33.38-6.93-29.27-12.42-44.64-40.58-50.25-79.31-4.26-29.393-1.41-58.554 3.73-87.223 6.52-36.347 14.18-72.321 20.73-108.648 7.49-41.447 13.18-83.347 13.17-126.173 0-9.726-1.53-19.512-2.84-29.14-1.06-7.916-5.11-12.267-11.11-13.429-3.47-.67-6.95-1.24-10.35-2.323-6.56-2.088-11.17-7.227-12.37-16.363-1.19-9.077 1.51-16.559 7.32-21.009 4.46-3.406 9.53-6.182 14.58-7.403 32.68-7.876 64.9-5.631 96.32 9.451 14.81 7.108 27.55 18.587 38.83 33.04 15.91 20.398 21.54 46.369 22.8 74.663.01.178.01.355 0 .532-.42 4.017-.11 9.491-3.69 10.16-1.96.374-4.85-3.131-6.51-5.789-3.16-5.08-5.87-10.691-8.52-16.283-18.13-38.179-45.01-57.967-77.82-64.8-9.18-1.85-18.65-1.988-28.21-2.973M717.152 1525.56c-9.722 8.03-19.814 16.26-29.759 24.77-.785.67-1.29 3.66-.83 4.84 3.245 8.39 6.195 17.11 10.329 24.67 5.692 10.4 12.435 19.75 18.526 29.77 2.075 3.43 3.988 7.31 5.173 11.38 1.941 6.76.814 13.18-3.29 18.12-4.002 4.82-8.581 4.98-13.591 2.62-2.104-1.01-4.817-1.42-6.921-.57-14.036 5.61-28.055 11.34-41.913 17.68-4.757 2.18-9.04 6.24-13.501 9.53-1.763 1.3-3.364 3.01-5.144 4.21-4.386 2.99-8.832 3.21-12.997-.67-4.061-3.78-5.291-9.23-4.712-15.55.636-6.91 1.689-13.83 1.852-20.76.444-19.47.489-38.96.741-58.46.059-4.23.371-8.44.607-13.78-7.514 2.88-14.539 5.16-21.356 8.29-16.021 7.36-31.894 15.28-47.899 22.7-5.454 2.54-11.057 4.61-16.688 6.34-10.064 3.11-19.816-6.57-21.417-20.93-1.067-9.49 1.008-18.07 4.58-26.13 5.957-13.38 13.502-25.1 22.542-34.83 14.762-15.85 29.493-31.83 44.981-46.35 15.724-14.72 32.204-28.01 48.656-41.33 7.099-5.74 14.805-10.22 22.409-14.74 11.278-6.74 21.682-15.07 30.618-26.53 3.84-4.92 7.707-5.72 11.324-2.81 3.615 2.91 5.335 8.92 3.141 15.12-2.134 6.05-4.742 12.38-8.373 16.78-6.729 8.15-14.257 15.14-21.623 22.29-9.663 9.39-19.549 18.37-29.211 27.72-8.715 8.43-17.415 16.85-25.863 25.73-17.103 17.96-34.043 36.19-50.967 54.45-2.254 2.42-4.047 5.57-6.684 9.29 2.726-.49 4.786-.65 6.758-1.26 18.08-5.55 36.147-11.24 54.227-16.76 2.684-.82 3.72-2.77 4.002-6.24a341.79 341.79 0 0 1 1.823-16.99c1.245-9.53 6.195-15.38 12.183-14.67 6.105.73 10.701 7.38 10.24 17.01a386.086 386.086 0 0 1-3.408 36.15c-3.868 27.23-3.764 54.8-4.786 82.29-.015.29.206.63.355 1 16.569-4.17 33.138-8.37 50.493-12.74-1.66-2.89-2.608-4.59-3.571-6.26-10.345-18-19.608-36.82-24.439-58.83-.756-3.43-1.364-6.93-1.704-10.46-.994-10.71 1.911-17.11 8.936-22.33 13.857-10.31 27.521-21.07 41.32-31.5 2.297-1.75 3.112-3.78 2.83-7.36-.43-5.32-.563-10.72-.4-16.07.193-6.44 2.787-10.79 6.625-12.11 4.002-1.36 8.225.83 10.389 6.75 2.268 6.23 4.52 12.82 5.291 19.57 4.032 34.66 13.473 67.32 20.423 100.89 9.752 47.16 10.878 93.81-1.985 140.24a180.326 180.326 0 0 1-5.9 17.62c-13.264 33.75-34.368 51.31-62.868 54.54-20.186 2.28-40.045-.57-59.979-3.76-13.769-2.21-27.552-4.37-41.379-5.63-8.018-.73-16.14-.08-24.172.74-12.049 1.23-21.328 9.02-27.922 22.53-4.299 8.8-7.811 18-8.834 28.53-.756 7.9 1.409 10.59 7.307 9.67 1.645-.26 3.335.08 5.009.14-.267 2.38-.178 4.96-.844 7.12-2.964 9.69-9.975 14.63-18.392 13.27-10.138-1.63-17.711-10.8-20.039-24.41-1.999-11.62-.636-22.84 2.876-33.55 11.604-35.32 31.746-54.74 60.868-57.93 17.992-1.97 35.777.67 53.606 2.8 17.162 2.04 34.294 5.08 51.487 5.94 10.374.52 20.882-1.87 31.256-3.7 7.366-1.3 13.813-6.02 19.163-12.94 22.172-28.56 33.91-62.86 31.094-104.39-.697-10.38-2.772-20.85-5.424-30.7-8.048-29.65-16.659-58.93-25.255-89.07M234.132 1816.55c18.6 21.23 41.083 35.13 57.355 60.29 1.987-2.14 3.927-3.97 5.662-6.12 10.048-12.42 20.008-24.95 30.071-37.33 2.075-2.56 1.971-4.63.652-7.86a1938.592 1938.592 0 0 1-17.296-44.26c-1.482-3.94-2.623-8.31-3.157-12.64-1.007-8.03 1.009-14.95 6.18-19.63 5.159-4.67 10.924-4.98 15.992-.54 3.942 3.47 7.78 8.02 10.36 13.22 6.935 14.02 13.204 28.63 19.667 43.08 2.519 5.65 4.832 11.48 7.722 18.37 11.604-11.34 22.704-22.17 34.087-33.3-1.26-2.44-2.09-4.23-3.054-5.88-6.935-11.88-14.019-23.59-20.793-35.6-2.89-5.12-5.646-10.56-7.588-16.38-3.335-10.03-1.022-20.68 5.009-26.47 6.033-5.79 14.154-5.08 20.408 2.39 3.187 3.8 6.298 7.99 8.611 12.73 8.685 17.86 17.444 35.68 25.388 54.13 6.224 14.45 3.157 30.5-6.625 40.74-12.791 13.41-25.596 26.8-38.46 40.07-15.443 15.91-25.803 15.53-40.742-1.2-.504-.57-1.051-1.05-1.852-1.81-1.719 2.1-3.408 4.11-5.053 6.18-11.575 14.61-24.958 25.91-38.06 37.88-10.893 9.95-19.608 5.63-28.914-2.06-9.59-7.92-19.134-15.95-28.663-23.99-9.323-7.83-18.689-15.59-27.909-23.64-15.798-13.81-13.233-35.96-5.913-50.88 2.549-5.2 5.81-9.91 9.174-14.24 24.084-30.97 47.782-62.53 72.606-92.44 17.415-20.99 36.03-40.29 54.777-59.21 31.746-32.05 61.727-66.36 85.886-108.91 3.067-5.41 6.52-10.47 10.019-15.41 1.733-2.42 3.823-4.61 6.046-6.15 4.817-3.32 9.708-3.03 14.02 1.62 4.312 4.63 5.543 10.91 4.106 17.88-.668 3.23-1.808 6.38-3.158 9.21-11.099 23.41-23.712 45.19-39.748 63.13-19.563 21.89-38.845 44.26-58.838 65.43-25.981 27.49-49.144 58.99-73.362 88.96-17.429 21.58-34.279 43.96-51.382 66.02-1.068 1.36-2.001 2.83-3.231 4.62M577.886 1045.48c1.037-49.206 6.92-94.492 21.194-137.298 14.078-42.254 36.813-73.521 68.974-92.109 18.378-10.612 36.948-19.63 57.592-18.016 40.461 3.17 69.554 54.443 60.498 107.132-2.608 15.181-8.908 27.547-16.925 38.415-17.37 23.53-35.465 45.957-55.77 65.076-13.294 12.52-26.247 25.63-39.452 38.32-2.608 2.5-3.113 4.68-1.304 8.31 5.943 11.91 11.575 24.11 17.651 35.91 4.209 8.17 9.811 14.2 17.355 16.42 1.171.34 2.342.95 3.379 1.75 1.971 1.54 5.068 2.86 5.513 5.04 1.29 6.4 2.312 13.43-2.935 18.28-.666.61-1.23 1.39-1.926 1.94-23.417 18.32-42.521 43.76-62.824 67.21-3.765 4.33-7.44 8.84-11.442 12.73-7.751 7.55-12.997 6.52-19.133-3.16-.518-.81-1.082-1.64-1.734-2.23-6.684-5.89-10.938-14.45-13.724-24.02-10.271-35.23-19.992-70.71-23.209-108.57-.979-11.2-1.304-22.49-1.778-31.13m106.233 70.61c-.681-.85-1.022-1.38-1.422-1.77-14.687-14.02-25.076-32.85-33.198-53.88-7.025-18.19-8.656-37.82-5.973-57.96.726-5.477 2.741-10.104 6.506-12.979 3.557-2.736 7.618-2.107 10.878 1.537 4.21 4.685 4.669 7.362 2.846 14.172-.386 1.44-.06 3.23-.06 4.06 11.487-9.432 22.527-19.374 34.162-27.861 21.163-15.417 40.075-34.832 58.245-55.663 3.245-3.722 6.15-8.034 8.863-12.444 4.105-6.695 6.269-14.472 6.565-23.195 1.408-39.951-25.372-71.159-55.621-61.983-40.12 12.148-71.362 41.584-88.835 92.502-18.407 53.595-25.566 110.084-18.912 168.484 3.291 28.89 9.65 57.16 14.644 85.71.103.59.504 1.1.933 2.01 15.325-28.69 36.504-46.51 60.379-60.74"/><path d="M1657.37 1221.8c.39-.96.67-1.57.9-2.2 1.89-5.12 4.93-8.15 9.27-7.92 4.67.26 8.14 3.82 9.25 9.57 1.45 7.56 2.08 15.42 2.85 23.19.53 5.68.64 11.41 1 17.12.66 10.71 4.4 19.25 11.25 24.77 5.25 4.21 11.02 7.2 16.45 11.04.83.59 1.66 3.05 1.38 4.18-1.71 6.93-6.03 9.72-11 11-15.68 4.04-33.21-9.25-39.4-29.83-4.22-13.98-4.68-28.59-3.63-43.32.3-4.25-.57-5.86-3.6-7.06-11.73-4.67-20.29-14.55-25.34-29.36-5.45-16.01-3.32-32.18 6.26-44.34 12.15-15.46 26.64-20.21 42.91-14.36 4.11 1.48 8.15 3.78 11.96 6.36 33.3 22.35 53.44 73.96 49.06 123.01-4.07 45.87-19.65 83.42-44.76 114.57-9.4 11.68-20.25 20.08-32.82 24.24-15.27 5.04-28.92-3.05-36.4-21.5-4.72-11.64-6.24-24.36-6.4-37.32-.2-14.11.16-28.25.23-42.39.05-6.38 0-12.78 0-19.35-1.24 0-1.7-.2-1.96.02-14.44 12.09-28.26 25.1-37.18 45.17-4 8.99-7.8 18.27-6.81 29.16.35 3.8 1.68 7.91 3.48 10.92 3.51 5.93 4.62 11.05 2.49 16.68-2.07 5.48-6.8 8.86-11.83 8.17-6.67-.9-11.51-5.86-15.05-13.03-6.23-12.64-7.19-26.76-5.64-41.29.55-5.1 1.63-10.14 2.78-15.08.66-2.78.22-4.2-1.33-6.36-4.47-6.32-9.46-12.55-12.47-20.05-4.8-11.93-8.89-24.55-11.94-37.43-8.97-38.1-16.55-76.67-19.65-116.56-.07-1.05-.32-2.09-.59-3.8-1.6.49-3.09 1.04-4.59 1.42-4.26 1.06-8.1-.99-9.75-5.32-1.94-5.02-.98-9.77 1.98-13.15 5.5-6.3 11.07-12.6 17.11-17.88 6.69-5.83 15.23-2.38 18.74 7.66 2.34 6.71 3.89 14.14 4.85 21.46 6.75 52.1 16.62 103.13 29.02 153.34.28 1.17.63 2.31 1.06 3.9.68-.73 1.25-1.14 1.64-1.75 11.51-18.49 26.36-30.42 43.23-38 19.66-8.82 32.22 2.38 33.16 29.95.45 12.82-.81 25.71-.81 38.57 0 13.72.32 27.49 1.05 41.17.23 4.23 1.84 8.64 3.56 12.37 3.64 7.87 9.05 11.34 16.15 9.7 7.48-1.73 14.35-5.61 19.96-12.17 29.37-34.27 44.54-76.8 41.82-129.44-.15-2.83-.4-5.77-1.1-8.44-7.78-29.58-21.69-51.49-44.5-62.07-6.48-2.99-12.7-2.22-18.54 2.9-11.03 9.65-9.95 30.85 2.24 39.16"/><path d="M1740.02 730.048c-10.91 8.211-21.1 15.713-31.11 23.648-1.06.847-1.5 4.41-1.3 6.557 2.03 21.462 4.41 42.884 6.42 64.366 5.71 61.038-1.58 120.225-15.4 178.211-2.93 12.29-7.58 24.22-12.83 35.09-13.12 27.13-27.99 52.55-46.1 74.35-7.67 9.25-14.77 19.35-22.47 28.57-6.97 8.37-14.09 16.67-21.78 23.82-4.14 3.84-9.43 6.4-14.45 7.44-9.28 1.93-15.93-8.3-13-20.16 1.62-6.51 4.72-12.99 8.4-17.86 12.29-16.3 24.74-32.44 37.85-47.57 16.6-19.16 30.63-41.19 43.83-64.3 6.83-11.94 12.1-25.01 15.3-39.403 7.21-32.626 13.9-65.449 15.97-99.513 1.8-29.2-.63-57.848-6.83-85.965-2.2-9.963-4.49-19.887-6.27-29.968-3.94-22.289 1.98-38.218 18.19-46.075 13.37-6.478 27.21-11.321 40.94-16.401 3.15-1.162 4.03-2.737 4.01-6.813-.03-5.513.14-11.144.96-16.52 1.76-11.518 8.92-18.705 17.1-17.839 8.12.847 14.1 9.589 14.57 21.423.09 2.323 0 4.647-.04 6.97-1.02 56.904-.36 113.748 3.13 170.494.56 9.274 1.45 18.509 2 27.763.6 10.14-1.57 16.047-6.28 17.741-4.73 1.693-9.3-2.403-12.53-11.42-4.64-12.957-6.29-26.956-7.51-40.995-3.44-39.438-6.68-78.917-9.98-118.375-.16-1.752-.39-3.485-.79-7.266M1013.04 691.555c-5.94 1.063-11.35 2.107-16.775 2.993-15.502 2.52-30.974 5.178-46.507 7.325-3.794.531-7.87.019-11.544-1.339-8.33-3.072-12.316-13.449-9.738-24.455.756-3.21 1.972-6.261 3.217-9.215 18.377-43.495 36.874-86.911 55.133-130.505 4.965-11.833 12.315-18.193 22.214-19.532 15.27-2.067 30.59-3.465 45.81-5.927 31.41-5.06 62.75-10.671 94.13-15.968 2.92-.492 5.91-.747 8.86-.59 6.34.354 11.17 5.907 11.94 13.349.82 7.818-2.63 15.122-9.14 17.131-8.37 2.58-16.91 4.293-25.42 6.064-38.16 7.915-76.34 15.791-114.53 23.471-4.71.944-7.38 3.917-9.8 9.391-12.683 28.669-25.77 57.022-38.679 85.513-2.46 5.435-4.801 10.987-7.676 17.583 6.728-.807 12.434-1.476 18.141-2.165 10.996-1.32 21.974-2.777 32.974-3.899 2.52-.256 3.42-1.536 3.96-4.647 1.47-8.722 3.14-17.386 4.84-26.03.51-2.579 1.15-5.178 2.08-7.521 2.62-6.616 7.65-9.786 12.8-8.388 5.35 1.457 9.3 7.127 9.39 14.787.06 5.296-.46 10.731-1.35 15.909-7.18 42.195-14.5 84.351-21.74 126.527-1.74 10.101-3.35 20.221-5.16 31.248 1.88-.177 3.27-.197 4.65-.433 20.41-3.623 40.89-6.675 60.77-14.315 2.63-1.004 5.61-1.043 8.37-.669 4.36.59 7.5 3.918 8.85 9.589 1.39 5.887.28 11.4-3.29 14.984-3.04 3.032-6.69 5.611-10.35 6.793-18.42 5.985-36.95 11.42-55.44 17.09-7.6 2.324-15.13 5.238-22.83 6.911-3.97.867-8.46.69-12.266-.886-6.536-2.697-10.019-9.785-10.048-18.803-.015-6.163.784-12.484 1.94-18.489 6.848-35.324 13.904-70.569 20.884-105.833.41-2.048.77-4.095 1.33-7.049M190.46 1486.43c4.371-6.3 8.418-13.09 13.22-18.74 4.89-5.75 10.181-11.28 15.946-15.3 11.205-7.8 21.446-1 23.461 15.63 3.365 27.65 3.749 55.55 2.045 83.45-.607 9.98-1.378 19.94-2.37 29.87-.401 4.02-1.201 8.11-2.505 11.75-1.794 4.99-5.959 6.01-8.611 1.79-2.239-3.54-4.238-8.13-4.817-12.6-3.453-26.75-6.461-53.63-9.633-80.47-.178-1.55-.356-3.09-.652-5.73-1.512 1.69-2.653 2.76-3.602 4.06-6.165 8.5-12.137 17.25-18.482 25.52-2.934 3.82-6.268 7.5-9.915 9.92-8.55 5.69-17.903.35-20.793-11.74-1.125-4.68-1.511-9.82-1.555-14.76-.149-16.44-.015-32.91.059-49.37.03-7.32-1.734-9.45-7.158-7.44-17.755 6.6-33.243 18.59-46.004 36.23-21.741 30.05-28.366 66.22-22.838 106.52 2.994 21.8 15.636 31.76 31.76 26.05 8.181-2.89 15.562-7.99 21.846-15.63 3.971-4.8 4.076-6.83 1.201-12.96-.149-.29-.253-.65-.445-.88-2.416-2.9-4.832-5.77-7.247-8.65-2.461 3.69-5.558 6.93-7.188 11.19-1.749 4.58-4.18 7.66-7.574 7.3-2.742-.27-5.869-2.48-7.81-5.14-1.542-2.1-2.268-6.26-2.134-9.39.548-12.9 3.112-25.08 9.47-35.24 6.788-10.83 16.91-14 26.677-8.84 16.199 8.56 29.523 40.65 25.536 63.16-1.186 6.67-3.735 13.78-7.232 18.74-13.309 18.93-29.568 31.74-49.072 35.47-26.691 5.08-49.322-13.81-57.77-47.79-11.13-44.7-6.536-112.98 36.829-156.58 18.081-18.17 38.534-29.04 60.942-33.39 7.114-1.38 13.962-.22 20.186 5.06.666.57 1.452.95 2.223 1.26 8.226 3.31 11.175 8.15 11.545 19.59.342 10.54.46 21.09.696 31.64.046 1.72.149 3.45.223 5.16.504.44 1.022.85 1.542 1.28M506.877 416.96c-14.405 30.224-35.554 46.055-60.661 54.208-2.49.806-4.906 1.929-7.396 2.677-26.617 7.916-46.521 28.964-62.571 57.101-8.552 14.982-13.058 32.075-11.516 51.173.326 4.076 1.63 8.289 3.261 11.794 1.748 3.761 1.141 5.69-1.349 7.837-9.812 8.486-23.298 2.638-28.307-12.444-3.024-9.058-2.965-18.49-1.364-27.901 4.105-24.179 12.346-45.305 26.484-61.945 3.824-4.508 7.693-8.977 11.442-13.604 13.204-16.284 28.603-27.172 45.929-33.512 9.203-3.387 18.406-6.853 27.536-10.613 12.524-5.18 23.624-13.802 33.362-25.46 4.876-5.828 8.67-12.504 10.463-21.226.667-3.306 3.053-5.984 4.668-8.939.874-1.574 2.195-2.972 2.593-4.725 2.21-9.746 9.871-13.31 15.504-6.242 3.008 3.76 5.291 9.038 6.89 14.197 4.165 13.409 5.277 27.722 5.306 42.077.119 52.119-9.662 100.497-31.759 143.992-14.91 29.357-29.642 58.872-45.115 87.678-7.632 14.217-16.51 27.33-25.284 40.365-13.665 20.32-27.062 40.797-36.828 64.996-7.366 18.272-13.117 37.411-15.815 57.75-1.407 10.573-1.081 21.659-.755 32.469.133 4.331 2.164 8.702 3.72 12.798 1.585 4.174 3.986 6.675 7.885 4.332.755-.453 2.134-.04 2.844.669.386.374.135 2.304-.147 3.367-2.328 8.447-8.73 13.586-15.161 10.751-4.314-1.89-8.729-5.12-11.975-9.313-14.08-18.233-17.429-40.955-13.621-65.764 5.78-37.667 19.015-70.589 37.689-99.611 8.3-12.897 17.295-25.046 26.306-37.076 10.775-14.394 20.275-30.027 28.96-46.724 10.404-20.005 20.941-39.951 32.278-58.991 26.144-43.908 37.156-94.098 36.786-149.387-.045-2.225-.192-4.489-.282-6.754M551.917 1437.52c-8.136-2.87-16.465-5.06-24.379-8.8-13.768-6.5-26.337-16.28-38.266-27.43-37.704-35.24-68.872-78.77-93.222-130.77-8.507-18.16-15.458-37.32-17.712-58.86a80.706 80.706 0 0 1-.4-10.69c.55-20.32 10.539-34.3 25.863-34.2 7.499.06 15.28 2.26 22.424 5.45 14.39 6.42 27.314 16.72 39.141 29.5 3.201 3.46 7.231 5.55 10.463 8.94 35.273 36.94 65.951 79.49 89.858 130.25 6.52 13.84 12.137 28.33 14.493 44.55.712 4.89 1.156 9.95 1.023 14.91-.562 22.09-11.827 35.79-29.004 35.68-.074.51-.177 1-.282 1.47m4.061-41.78c-1.007-5.18-1.422-10.73-3.126-15.45-5.291-14.63-10.227-29.68-16.807-43.24-21.386-44.01-50.198-78.86-81.261-110.21-10.553-10.65-23.594-16.99-35.673-24.83-3.305-2.14-7.189-2.97-10.894-3.72-5.557-1.1-6.994.81-5.928 8.23.771 5.4 1.778 11.03 3.735 15.77 5.617 13.63 11.012 27.57 17.844 40.09 23.95 44.03 53.176 81.16 86.627 112.27 8.447 7.86 17.65 14.42 26.854 20.7 4.328 2.95 9.411 4.05 14.243 5.57 2.786.91 4.372-.94 4.386-5.18M1411.23 1626.39c4.42 9.47 9.71 16.97 16.09 23.1 23.6 22.58 49.78 29.04 77.91 20.85 22.46-6.56 43.96-17.07 63.65-33.12 7.3-5.95 14.08-13.17 20.6-20.6 10.2-11.63 15.01-27.17 16.56-44.63.11-1.21.02-2.45.02-4.53-1.52 1.36-2.69 2.42-3.88 3.44-16.63 14.57-33.07 29.56-49.96 43.54-6.89 5.71-14.67 9.67-22.27 13.66-5.1 2.68-9.58.38-11.7-4.57-2.13-4.96-1.39-11.4 2.57-16 3.73-4.33 7.81-8.21 12.03-11.68 6.18-5.06 12.57-9.71 18.96-14.27 18.86-13.45 35.83-30.39 51.9-49.05.9-1.07 1.82-2.13 2.82-3.05 8.99-8.41 20.91-2.07 21.4 12.42 1.31 37.06-3.07 72.67-25.1 98.71-34.77 41.11-75.19 65.88-122.57 65.82-23.96-.04-46.17-9.39-65.89-28.08-10.2-9.67-18.06-21.82-22.75-37.45-3.18-10.67-2.95-21.3-.43-32.02 1.16-4.92 4.19-7.2 7.65-8.74 6.39-2.83 12.79-5.59 19.13-8.56 33.63-15.79 63.96-39.25 91.27-69.64 2.69-3 5.32-6.07 8.13-8.85 4-3.95 7.84-4.29 11.24-1.3 3.31 2.92 4.94 8.81 3.68 14.79-.73 3.41-1.7 6.89-3.17 9.79-2.35 4.54-4.81 9.23-7.93 12.78-28.55 32.31-59.74 58.59-96.07 72.83-4.42 1.65-8.91 2.81-13.89 4.41M189.185 1187.17c15.266-3.11 30.294-4.95 44.344-12.9.726-.41 1.363-1.12 2.016-1.77 6.475-6.44 12.405-5.67 16.894 3.31 4.002 8.01 7.145 16.79 10.79 25.12 2.06 4.71 4.387 9.2 7.262 15.18.786-4.43 1.186-7.17 1.764-9.84 6.432-29.7 16.287-57.08 30.946-81.28 4.52-7.45 10.269-9.16 16.969-7.9 7.988 1.5 15.962 3.29 23.994 4.25 4.55.54 9.188-.33 13.783-.57l.134-1.53c-.564-.69-1.097-1.4-1.689-2.05-34.681-38.41-56.586-86.97-65.316-145.842-.992-6.735-.651-13.862-.577-20.793.029-2.58.815-5.258 1.63-7.66 2.416-7.127 7.203-10.888 12.168-9.844 4.92 1.024 7.528 6.044 8.804 14.175 2.459 15.713 4.89 31.506 8.433 46.803 2.06 8.901 5.527 17.621 9.633 25.201 11.901 21.94 25.076 42.51 40.445 60.43 9.382 10.93 19.638 20.01 31.064 26.74 2.208 1.3 4.417 2.72 6.373 4.57 4.06 3.84 6.061 9.19 4.995 15.83-1.053 6.65-4.476 10.59-9.441 11.65-9.026 1.94-18.126 3.33-27.152 5.28-4.772 1.04-9.484 2.62-14.183 4.24-13.057 4.52-26.01 1.47-38.874-1.3-5.009-1.09-8.004.59-10.656 6.1-11.487 23.88-20.646 48.97-23.625 77.4-.088.89-.177 1.77-.311 2.66-2.282 15.77-8.715 19.55-19.919 13.39-9.366-5.14-15.932-13.75-21.015-24.77-3.29-7.17-6.254-14.61-9.248-22-1.023-2.52-1.853-3.54-4.343-2.58-15.636 5.99-31.271 12.02-47.055 17.23-11.842 3.92-19.133-2.65-21.149-18.7-1.704-13.57-2.534-27.33-4.076-40.94-.697-6.14-1.956-12.23-3.393-18.15-3.231-13.31 2.563-23.79 13.012-23.9 8.567-.1 17.117-1.25 25.669-1.64 2.905-.14 6.092-.27 8.685 1.1 1.867 1.01 3.838 4.36 4.15 6.97.267 2.31-1.245 6.32-2.816 7.41-5.913 4.07-12.108 7.46-18.318 10.65-2.861 1.48-3.779 3.25-3.438 7.46.977 12.09 1.525 24.24 2.237 36.35.104 1.91.238 3.82.4 6.46M173.651 619.786c-2.549-6.4-4.712-12.129-7.084-17.702-4.045-9.49-8.506-18.685-12.271-28.372-4.623-11.893-6.654-24.515-3.839-37.884 4.091-19.435 16.748-33.512 33.347-34.792 9.025-.689 18.185 1.398 27.284 2.362 3.749.395 7.469 1.498 11.219 1.615 5.691.178 6.981-1.615 6.521-9.253-.636-10.515-1.971-20.97-2.371-31.485-.266-7.069-.089-14.413 1.097-21.244 4.032-23.293 17.532-36.722 35.465-34.833 9.62 1.005 19.135 3.84 28.709 5.869 7.929 1.673 10.789-.631 10.789-11.382 0-9.529-1.571-19.059-2.535-28.588-.163-1.576-.785-3.053-1.067-4.609-1.023-5.749.222-10.868 3.483-13.842 3.616-3.268 7.648-3.426 10.968-.078 2.8 2.816 5.498 6.616 6.995 10.751 6.209 17.209 7.78 35.304 3.675 53.752-4.031 18.095-14.464 27.902-28.603 26.266-9.485-1.102-18.853-4.095-28.308-5.866-12.197-2.265-15.709 1.831-15.724 18.39-.016 7.678.622 15.358.933 23.037.222 5.709.563 11.44.548 17.149-.088 22.25-9.721 36.821-26.44 38.159-7.944.631-16.02-1.575-24.038-2.442-5.87-.649-11.842-2.382-17.593-1.536-10.359 1.518-14.865 11.48-11.693 24.693 1.675 6.949 4.135 13.566 6.462 20.201 4.135 11.833 8.61 23.47 12.627 35.383 5.127 15.18 3.112 27.172-6.431 37.942-4.196 4.725-8.79 8.88-13.414 12.857-16.97 14.63-33.272 30.441-48.359 48.359a192.888 192.888 0 0 0-10.923 14.275c-5.543 7.974-9.9 16.893-11.664 27.762-.281 1.772-1.541 3.997-2.727 4.549-.815.374-2.608-1.438-3.453-2.836-9.16-15.22-11.916-32.193-7.218-50.858 4.032-15.969 11.205-29.24 20.557-40.483 17.577-21.127 37.437-36.682 60.794-43.613 1.126-.354 2.252-.886 4.282-1.673M-8.256 1340.22c1.141-.54 1.571-.59 1.882-.89 21.194-19.75 45.5-31.66 68.16-47.77 4.165-2.97 9.055-4.66 13.754-5.65 5.335-1.12 10.226 1.28 13.22 7.82 2.993 6.54 2.46 13.43-.875 19.14-2.994 5.14-6.58 10.06-10.626 13.64a184.912 184.912 0 0 1-21.683 16.54c-16.125 10.54-31.345 22.92-45.692 37.29-5.365 5.38-10.996 10.36-16.82 14.77-3.44 2.6-7.396 4.53-11.294 5.4-10.034 2.24-19.267-5.4-22.409-18.26-1.022-4.19-1.482-8.74-1.645-13.15-2.149-57.81-.593-115.42 4.031-172.99 2.92-36.43 4.254-73.09 6.358-109.64.356-6.04.815-12.13 1.63-18.09.475-3.45 1.364-6.99 2.698-10 3.29-7.43 8.329-11.19 14.88-10.09 6.565 1.11 10.893 6.36 12.434 14.73.934 5.12 1.186 10.66.964 15.95-1.394 33.38-2.742 66.77-4.595 100.13-2.86 51.37-5.943 102.7-4.654 154.28.06 2.11.178 4.18.282 6.84M859.119 1723.17c1.467-1.66 2.712-2.98 3.883-4.4 38.252-46.45 76.519-92.87 114.711-139.42 4.654-5.67 8.656-12.31 13.427-17.78 3.04-3.48 6.745-6.69 10.55-8.09 5-1.83 9.56 1.14 12.73 6.77 3.16 5.63 3.74 12.01 1.38 18.21a29.65 29.65 0 0 1-5.51 9.04c-15.769 17.58-31.835 34.69-47.471 52.47-31.494 35.82-62.78 71.95-94.11 108.04-2.12 2.44-4.047 5.24-5.751 8.21-5.409 9.42-16.348 12.68-21.402 1.26-.326-.72-.903-1.38-1.481-1.75-9.411-6.2-14.747-17.25-18.585-29.38-18.008-56.74-25.002-115.34-14.406-176.12 2.283-13.06 6.654-25.62 10.983-37.83 3.438-9.68 8.58-12.72 13.709-10.57 5.409 2.27 7.706 8.7 6.846 19.49a120.45 120.45 0 0 1-1.051 9c-7.87 51.57-5.07 102.07 8.609 151.44 3.44 12.38 7.352 24.55 11.087 36.8.429 1.45 1.097 2.77 1.852 4.61M1470.39 1464.85c-.42 17.27-4.06 33.32-11.35 47.47-15.7 30.43-36.27 52.09-63.98 60.14-1.57.45-3.19.96-4.78.98-4.77.06-9.33.06-14.06 2.5-4.58 2.37-9.27-.69-12.31-5.57-3.93-6.28-8.22-12.76-10.48-20.14-9.4-30.82-18.23-61.93-26.93-93.1-2.18-7.79-3.53-16.14-4.3-24.39-.37-3.98 1.04-8.6 2.46-12.4.93-2.49 3.16-4.46 5.13-5.85 20.62-14.53 42.29-24.48 65.92-23.79 20.13.61 38.61 9.22 55.19 24.36 13.06 11.91 19.23 28.88 19.49 49.79m-84.43 81.36c5.88-4.21 11.96-8.41 17.91-12.86 10.97-8.19 21.15-17.78 30.02-29.73 7.18-9.7 12.08-20.97 13.45-34.63 1.39-13.71-1.76-24.73-11.12-31.82-12.74-9.65-26.34-15.61-41.13-14.99-14.12.62-27.64 5.4-40.81 11.96-.22.1-.34.53-.11.14 10.6 37.33 21.08 74.24 31.79 111.93M1745.39 1646.06c-4.79 4.92-8.77 9.55-13.15 13.35-10.18 8.88-20.59 4.74-24.8-10.48-2.11-7.58-3.2-15.94-3.52-24.04-.5-13.01 0-26.09.08-39.14.01-1.58 0-3.13 0-5.65-1.67 1.3-2.97 2.1-4.08 3.21-20.98 20.77-47.14-1.36-48.47-31.82-1.25-28.33 2.47-55.94 8.38-83.05.37-1.7 1.02-3.33 1.73-4.83 2.32-4.96 6.04-7.28 9.91-6.32 3.8.97 7.09 4.98 7.38 10.73.34 7.27.09 14.65-.35 21.92-.92 14.78-2.35 29.51-3.08 44.32-.29 6.14.01 12.62 1.16 18.57 1.8 9.35 6.39 11.38 12.35 5.98 5.65-5.14 11.11-10.71 16.64-16.1 1.41-1.38 2.74-2.88 4.15-4.28 4.45-4.37 9.25-6.02 14.34-2.36 5.09 3.66 6.83 9.98 6.41 17.25-.73 12.66-1.79 25.28-2.59 37.94-.66 10.16-1.23 20.32-1.72 30.5-.16 3.13-.03 6.26-.03 9.41l1.36.89c4.48-6.05 9.06-11.97 13.44-18.17 2.85-4.04 5.27-8.61 8.06-12.72 3.53-5.18 7.94-7.57 13.11-5.24 5.14 2.3 8.11 7.74 8.12 14.61.04 12.84-.55 25.69-1.1 38.53-.83 19.28-2.01 38.53-2.69 57.81-.2 5.81.69 11.74 1.35 17.54.72 6.38 3.72 10.46 8.15 12.92 7.34 4.1 14.77 3.47 22.13.49 4.86-1.97 9.59-4.54 14.93-7.1 0 7.12.06 14.15-.08 21.18-.01.91-.88 2.25-1.58 2.58-13.05 6.26-26.31 10.63-40.29 5.89-15.59-5.28-24.47-18.22-25.69-42.06-1.14-22.03-.19-44.26-.15-66.39-.01-1.74.11-3.43.19-5.87M907.162 751.412c9.279-.591 18.556-1.418 27.833-1.654 4.535-.118 9.19.236 13.591 1.516 5.558 1.635 7.114 6.045 8.226 13.291 1.733 11.4-.282 22.033-2.461 32.724-5.306 25.873-10.271 51.903-16.346 77.46-3.661 15.417-8.818 30.283-13.991 44.952-1.349 3.82-4.995 7.206-8.152 8.782-21.875 10.968-45.943 2.678-61.371-20.734-11.309-17.169-16.675-37.686-18.809-59.975-2.548-26.542-.977-52.454 6.67-77.44 2.253-7.344 6.136-10.77 12.034-13.862 13.309-7.009 26.752-4.902 40.238-5.237 4.165-.118 8.344-.02 12.523-.02.015.04.015.118.015.197m26.426 24.258c-8.833 1.24-17.356 2.599-25.892 3.623-14.717 1.772-29.463 3.288-44.181 5.139-.948.118-2.311 2.127-2.519 3.505-2.326 16.382-3.809 32.921-2.03 49.559 2.238 20.871 7.559 39.833 20.363 53.734 6.047 6.556 13.087 9.037 20.705 8.407 1.274-.098 3.172-2.028 3.587-3.662 9.885-38.927 19.607-77.933 29.36-116.938.236-.945.354-1.949.607-3.367M-.267 922.832c-7.574 5.434-14.776 10.652-22.024 15.732-2.252 1.576-4.58 3.131-7.01 4.036-4.446 1.655-8.937-.649-11.456-5.316-2.475-4.607-2.579-11.065-.015-16.145 1.112-2.186 2.534-4.194 4.046-5.907 2.15-2.422 4.402-4.746 6.817-6.656 25.507-20.3 51.057-40.521 76.579-60.762 12.241-9.707 24.453-19.474 36.71-29.161 1.956-1.555 3.942-3.17 6.062-4.214 5.972-2.934 12.152-.512 15.546 5.75 3.409 6.301 3.394 15.003-.785 21.363-2.786 4.253-6.314 7.738-9.708 11.184-3.186 3.229-6.654 5.946-10.374 9.215 1.304 1.358 2.312 2.441 3.335 3.485 21.119 21.304 24.083 57.12 6.92 83.977-15.813 24.77-44.802 34.419-67.388 21.994-15.503-8.526-25.062-23.51-26.707-46.35 0-.492-.207-.965-.548-2.225m48.893 26.541c13.442.178 26.292-8.978 32.264-22.958 6.921-16.185 2.697-32.783-10.39-39.241-4.593-2.265-9.632-3.013-14.508-4.194-1.082-.256-2.46.216-3.454.945-10.404 7.462-20.793 15.003-31.108 22.663-.86.65-1.823 2.363-1.808 3.564.06 27.408 12.775 38.256 29.004 39.221M158.077 816.94c-.044-12.996 3.052-20.793 9.589-25.656 3.482-2.599 7.321-4.568 11.16-6.065 19.814-7.757 38.948-17.642 57.252-30.42a136.677 136.677 0 0 1 15.798-9.491c2.815-1.437 6.002-2.264 9.01-2.185 5.677.157 10.124 5.158 11.62 11.991 1.453 6.596-.237 13.743-4.565 18.193-1.793 1.831-3.838 3.308-5.883 4.607-22.068 14.098-44.121 28.236-66.277 42.097-3.32 2.068-3.988 4.214-3.41 8.959 5.677 46.764 11.057 93.566 16.643 140.349.965 8.113 2.831 16.028 3.691 24.159.623 5.907 1.156 12.252.178 17.922-1.971 11.44-10.789 15.2-18.126 8.5-4.727-4.31-7.217-10.65-8.329-17.8-1.971-12.599-3.349-25.337-5.335-37.939-5.825-36.919-11.9-73.759-17.754-110.657-2.061-13.114-3.796-26.326-5.262-36.564"/><path d="M461.628 1069.91c-12.494-2.73-29.552-6.04-46.463-10.35-11.589-2.96-23.045-7.03-34.443-11.21-3.675-1.34-7.261-3.99-10.359-7.01-7.677-7.42-8.715-19.82-2.815-29.69 1.422-2.36 3.126-4.43 4.712-6.61 18.496-25.463 37.096-50.783 55.414-76.479 5.024-7.049 9.974-11.38 17.296-6.576.874.571 2.104.315 3.157.256 7.544-.453 13.339 4.45 16.08 13.743.341 1.162.741 2.363.844 3.565 2.757 31.463 11.531 60.981 16.822 91.611.963 5.56 1.837 11.25 1.972 16.92.354 14.12-7.011 23.07-22.217 21.83m-24.425-109.904c-13.026 19.926-25.817 39.479-38.932 59.544 18.006 7.52 36.177 10.24 55.236 12.8-5.558-24.65-10.865-48.185-16.304-72.344M1201.61 1468.65c2.83-3.19 4.93-5.9 7.29-8.15 4.57-4.39 9.04-9.1 13.99-12.6 7.61-5.4 15.37-3.19 20.5 6.01 3.07 5.51 5.45 11.93 7.32 18.37 4.02 13.84 7.38 28 11.25 41.92 7.59 27.35 18.12 52.61 30.9 76.27 2.02 3.75 3.9 7.78 5.19 12.03 2.04 6.7-.37 11.6-5.8 12.68-4.73.95-9.01-1.14-12.34-5.15-5.65-6.84-11.34-13.81-16.14-21.68-17.6-28.81-28.72-61.95-35.87-97.61-.65-3.26-1.44-6.51-2.18-9.74-.06-.28-.35-.45-1.03-1.26-3.24 4.7-6.53 9.35-9.7 14.14-2.4 3.62-4.49 7.62-7.01 11.08-7.81 10.67-18.85 11.3-26.42.34-4.26-6.17-7.58-13.94-10.02-21.72-6.79-21.6-9.81-44.54-12.24-67.62-.51-4.78-1.04-9.59-1.16-14.39-.24-9.45 3.28-16.99 9.13-20.3 6.14-3.47 13.62-1.81 17.96 5.67 3.2 5.51 5.92 12.17 7.16 18.86 2.76 14.91 4.43 30.15 6.6 45.25.75 5.57 1.63 11.09 2.62 17.6M1295.35 1200.01c14.37.31 29.86 5.55 44.03 16.95 7.6 6.12 15.02 12.64 22.65 18.66 7.38 5.83 12.51 14.54 17.62 23.32 2.02 3.48.75 6.4-1.62 8.64-5.25 4.92-11.18 5.77-16.98 3.15-9.92-4.49-19.57-10.02-29.39-14.86-6.91-3.41-13.8-7.09-20.93-9.51-25.39-8.61-64.72 17.26-74.95 50.22-3.89 12.57-4.31 24.1 2.02 35.39 2.71 4.82 1.94 6.73-2.62 7.38-11.25 1.59-20.13-5.67-24.27-20.2-4.41-15.54-3.82-31.23-.37-46.88 2.78-12.58 7.56-23.75 14.48-33.06 18.75-25.24 41.35-38.81 70.33-39.2M984.424 1227.41c.652-28.92 1.171-57.87 2.016-86.79.578-19.75 5.675-27.27 20.32-30.44 18.72-4.04 37.48-7.7 56.21-11.58 2.39-.49 4.75-1.3 7.09-2.12 12.21-4.3 24.79 6.46 22.82 26.56-2.12 21.74-2.74 43.75-3.75 65.66-.25 5.48.55 11.05.8 16.56.46 10.44-2.52 17.25-10.13 19.65-8.73 2.76-17.76 3.84-26.61 6.05-15.59 3.88-31.14 8.05-46.71 12.11-2.91.75-5.78 1.79-8.717 2.14-8.833 1.11-14.421-6.06-13.339-17.8m82.806-107.54c-6.95 2.26-13.79 4.53-20.62 6.71-11.63 3.72-23.25 7.52-34.93 11.01-3 .9-4.08 2.48-4.15 6.73-.43 22.86-1.14 45.7-1.75 68.56-.03 1.34 0 2.68 0 3.76 21.21-4.05 42.03-8.03 62.56-11.97-.37-14.41-.89-28.49-1.07-42.57-.19-14.04-.04-28.07-.04-42.23M357.191 1345.47c-.593 27.29-6.002 52.12-16.526 74.77-2.622 5.65-6.401 10.59-10.269 14.88-4.729 5.24-9.249 4.33-13.635-1.32-.579-.74-1.142-1.57-1.824-2.08-19.311-14-27.403-37.34-28.944-64.82-2.15-38.28 6.788-72.6 24.008-103.18 3.647-6.48 9.871-8.29 16.496-5.45 6.448 2.73 11.175 8.48 14.925 15.67 8.625 16.56 12.628 35.38 14.672 55.05.578 5.67.77 11.38 1.097 16.48m-34.325-50.84c-6.135 25.56-11.515 50.15-7.721 76.42 1.171 8.05 3.364 15.64 7.114 22.55 12.894-25.27 13.353-75.18.607-98.97M515.46 720.834c-3.068-6.203-5.84-11.637-8.477-17.189-2.001-4.234-4.135-8.428-5.692-12.937-3.171-9.234-.963-18.941 4.995-23.45 5.988-4.529 13.412-2.127 17.637 6.438 6.92 14.059 14.004 28.039 20.14 42.708 9.012 21.56 17.297 43.672 25.729 65.645 1.571 4.096 2.698 8.585 3.513 13.074.919 4.943.281 9.727-3.231 12.858-3.335 2.973-6.877 2.402-9.841-.571-3.632-3.623-7.588-7.305-10.078-12.149-7.128-13.842-13.635-28.255-20.319-42.49-2.045-4.372-3.868-8.94-5.913-13.704-6.922 5.237-13.547 9.982-19.919 15.299-1.127.945-1.689 4.174-1.66 6.32.43 27.881 1.186 55.762 1.452 83.642.103 11.046-.548 22.171-1.378 33.178-.341 4.469-1.542 9.155-3.246 13.054-3.349 7.62-10.33 8.959-14.657 2.304-2.728-4.194-4.491-10.101-5.41-15.634-1.023-6.183-.652-12.798-.785-19.217-.548-26.444-1.127-52.887-1.557-79.35-.147-9.274-.118-18.587.282-27.842.401-9.333 4.654-14.59 11.264-17.386 8.951-3.82 17.755-8.21 27.151-12.601M255.43 902.807c1.898 64.623 2.875 129.323 11.19 193.333.8 6.18.534 12.9-.325 19.1-1.009 7.36-4.759 12.46-10.613 13.61-6.062 1.2-10.73-2.48-13.308-9.42-2.046-5.51-3.409-11.65-4.313-17.72-6.833-45.7-9.619-92.03-12.272-138.396-1.422-24.908-4.238-49.677-6.728-74.467-1.215-12.109 2.372-22.486 10.004-26.463 7.722-4.037 16.317.177 21.193 10.593 4.253 9.077 5.291 19.316 5.172 29.83M18.823 1227.26c2.03-14.38 4.239-28.71 6.032-43.14 1.512-12.15 2.816-24.36 3.72-36.61 1.23-16.56 9.218-23.31 21.371-19.12 16.377 5.65 30.042 17.09 42.417 31.84 5.01 5.97 10.27 11.6 14.924 18.04 2.52 3.48 4.698 8.01 5.765 12.58 2.253 9.71-2.416 19.33-9.841 21.76-19.918 6.46-38.207 17.86-55.68 31.85-2.416 1.93-4.743 4.1-7.263 5.81-9.915 6.74-19.385-.13-20.526-14.8-.208-2.66-.252-5.36-.37-8.02-.164-.1-.356-.16-.55-.19M674.926 1329.47c-2.934-.48-5.898-.71-8.803-1.44-24.869-6.26-37.036-36.9-24.542-66.08 11.648-27.23 28.47-47.47 53.814-49.88 3.986-.37 8.106-.09 12.034.83 23.801 5.61 35.376 33.22 26.632 63.13-8.773 30-34.917 53.55-59.135 53.44m25.699-79.49c-8.921.14-16.108 4.94-23.563 9.17-5.544 3.15-8.419 8.49-10.509 15.21-3.349 10.74-.251 17.38 8.508 17.42 13.441.04 24.572-6.97 32.916-21.07 2.578-4.37 5.053-9.55 2.772-15.24-2.195-5.47-6.655-5.27-10.124-5.49M155.748 1291.5c-.192-11 3.084-17.54 10.537-20.26 9.976-3.64 20.142-6.36 30.175-9.72 7.693-2.58 15.295-5.58 22.957-8.33 8.152-2.94 11.175-.38 14.969 9.45 3.957 10.24 6.077 20.89 7.174 32.15.295 3.09 1.57 6.05 2.4 9.04 2.386 8.53-.415 16.46-6.832 19.3a69561.68 69561.68 0 0 1-55.829 24.77c-1.659.72-3.319 1.49-5.024 1.98-8.596 2.45-15.221-2.87-16.569-14.45-1.75-14.98-2.757-30.14-3.958-43.93m23.847 29.11c12.627-5.66 24.676-11.05 36.784-16.48-1.689-7.43-3.261-14.36-4.906-21.6-.771 0-1.763-.28-2.608.03-10.197 3.92-20.393 7.9-30.531 12.05-.636.26-1.348 2.25-1.243 3.29.68 7.27 1.57 14.48 2.504 22.71M403.31 1470.5c-.089 23.12-5.41 43.24-19.119 58.46-2.772 3.09-5.691 6.07-8.788 8.53-4.224 3.35-8.123 1.1-11.531-2.56-9.648-10.34-14.984-24.12-17.547-39.97-1.809-11.22-.46-22.03 2.726-32.57 5.321-17.5 14.214-31.56 24.454-44.14 6.966-8.55 17.341-4.53 20.483 7.32a66.506 66.506 0 0 0 2.429 7.35c5.277 13.29 7.011 22.64 6.893 37.58m-26.011-26.22c-12.212 21.12-14.569 41.84-6.046 57.04 10.122-17.13 12.776-41.27 6.046-57.04M924.124 1511.56c-23.714-6.3-43.188-18.22-55.548-45.11-7.811-17-12.39-35.68-14.303-55.43-.992-10.36 2.135-18.09 8.182-21.03 6.003-2.91 12.642.2 16.777 8.45 2 3.98 3.556 8.41 4.995 12.84 2.119 6.57 4.03 13.27 5.883 19.98 5.69 20.58 15.546 36.43 29.611 48.03 6.832 5.63 13.191 12.32 19.608 18.8 2.905 2.93.726 6.12-1.142 7.19-4.845 2.69-9.974 4.51-14.063 6.28M1518.95 1381.63c-2.01 20.18 4.29 35.71 15.94 47.63 7.52 7.69 15.58 14.53 23.58 21.36 2.45 2.09 3.03 4.23.56 5.73-4.18 2.54-8.69 5.49-13.13 5.71-22.02 1.06-49.05-26.58-54.32-54.86-2.16-11.67-2.62-23.59.73-34.85 1.65-5.55 4.44-11.34 7.93-14.94 7.9-8.15 18.04-1.32 18.68 11.91.22 4.07.03 8.19.03 12.31M1236.39 752.239c.06 24.908-3.94 48.339-15.21 68.718-2.53 4.568-6.04 8.604-9.72 11.538-3.75 2.993-7.19.787-7.88-4.942-.63-5.08-.27-10.613.51-15.732 1.1-7.148 3-14.079 4.58-21.088 5.9-26.168 7.18-52.612 2.85-79.429a46.576 46.576 0 0 1-.61-6.36c-.09-4.332.68-8.289 3.83-10.455 3.36-2.343 6.95-1.674 9.33 1.772 2.85 4.115 5.49 8.9 7.1 13.999 4.21 13.33 5.26 27.586 5.22 41.979M551.294 912.711c.089 11.558-.948 22.86-4.565 33.513-2.919 8.624-6.892 16.264-13.161 21.166-5.616 4.411-11.545 5.355-17.058-.118-5.41-5.355-6.432-13.133-4.742-21.226 1.245-5.966 3.216-11.755 5.38-17.268 6.357-16.185 9.662-33.217 9.174-51.548-.238-8.683 2.104-13.546 6.757-15.181 4.713-1.653 9.604 1.713 12.153 9.412 4.328 13.094 5.9 27.015 6.062 41.25M1308.47 791.028c-.1 10.632-2.74 19.965-8.38 27.605-10.13 13.704-26.56 12.72-34.91-2.934-6.68-12.523-9.41-26.778-5.73-42.116 5.82-24.278 26.97-30.677 40.24-12.228 5.61 7.797 8.78 18.528 8.78 29.673m-19.53-3.426c-.44-2.107-.78-5.356-1.82-8.132-2.27-6.045-6.36-6.636-9-.945-1.6 3.446-2.29 7.856-2.77 11.952-.56 4.902 3.26 11.085 6.67 11.715 2.86.532 5.38-2.895 6.33-8.742.27-1.556.33-3.17.59-5.848M799.762 1023.78c1.378-.73 2.905-1.32 4.253-2.3 8.967-6.54 17.874-13.19 26.826-19.77 3.883-2.856 7.676-6.005 11.752-8.29 2.639-1.477 5.736-2.344 8.567-2.146 5.439.373 8.032 7.855 4.832 13.746-1.527 2.81-3.676 5.31-5.944 7.09-16.465 12.85-33.034 25.53-49.604 38.17-1.853 1.42-3.838 2.62-5.868 3.53-7.485 3.35-15.251-1.81-15.651-12.17-.563-14.73.103-29.61 1.112-44.322.503-7.364 5.824-11.597 10.818-10.809 5.098.807 8.7 6.163 8.863 13.781.178 7.64.044 15.28.044 23.49M580.032 1204.26c-1.779 14.25-3.439 28.51-5.409 42.71-.445 3.23-1.66 6.45-3.054 9.23-3.394 6.81-8.314 10.12-14.51 8.96-6.209-1.18-10.448-6.2-11.87-14.1-.933-5.24-.979-11.01-.489-16.4 1.17-12.94 2.8-25.79 4.386-38.65 1.675-13.65 7.678-21.33 15.843-20.6 8.123.73 13.695 9.57 14.303 22.82.089 1.95.015 3.92.015 5.89.266.04.518.08.785.14M525.58 1087.54c-1.97 27.03-10.76 50.34-26.721 68.42-4.031 4.57-9.544 7.11-14.657 9.61-3.735 1.83-7.633.35-10.018-4.35-2.431-4.81-1.498-9.77.992-13.96 4.253-7.15 8.877-13.93 13.176-21.03 4.801-7.96 9.515-15.99 14.035-24.22 3.438-6.26 6.017-13.09 6.476-21.09.118-2.07.815-4.15 1.527-6.06 1.526-4.14 3.853-6.95 7.617-6.46 3.943.51 5.913 4.05 6.729 8.7.534 3.09.534 6.36.844 10.44M-6.064 852.893c-.77 3.623-1.378 6.695-2.074 9.727-1.794 7.797-5.514 11.735-9.945 10.633-4.476-1.122-7.247-6.498-6.402-14.59.74-7.187 2.015-14.433 3.971-21.186 2.668-9.235 8.493-11.519 15.132-7.128 3.839 2.54 7.677 5.198 11.679 7.206 1.378.689 3.616.217 4.905-.866 12.213-10.377 24.277-21.029 36.444-31.484 1.2-1.024 2.712-1.536 4.15-1.93 3.023-.807 5.691.236 7.395 3.8 1.779 3.722 1.586 7.857-.533 10.987-1.823 2.698-4.313 4.686-6.67 6.636-8.521 7.108-17.191 13.901-25.624 21.186-2.653 2.304-4.906 5.572-7.01 8.782-3.439 5.257-7.44 6.675-12.301 4.371-4.15-1.989-8.33-3.918-13.117-6.144M1152.36 1204.26c-14.79.14-22.81-15.42-17.73-34.52 1.51-5.67 3.17-11.26 4.94-16.81 3.5-11.05 14.64-17 24.38-13.16 13.32 5.28 19.52 22.29 14.36 39.44-4.33 14.36-15.31 24.95-25.95 25.05m2.3-45.7c-.03.61-.05 1.2-.08 1.81-.53 1.83-.89 5.12-1.63 5.28-4.95 1.08-4.82 6.43-5.53 10.89-1.06 6.83 1.6 10.12 6.82 8.84 5.08-1.24 10.98-8.86 11.29-15.8.12-2.65-1.14-6.55-2.74-7.95-2.24-1.95-5.38-2.13-8.13-3.07M746.528 1055.58c0 4.27.71 8.82-.134 12.8-2.105 9.86-8.492 12.76-15.235 13.98-14.524 2.64-29.375-18.79-26.099-37.77 2.016-11.65 7.884-19.02 16.555-21.69 8.432-2.6 14.924 2.24 19.858 11.18 3.513 6.38 5.232 13.61 5.055 21.5m-19.963-9.27c-.549.04-1.097.08-1.645.13-.461 2.07-1.631 4.47-1.201 6.15.666 2.62 2.075 5.55 3.794 6.89 1.881 1.48 3.038-1.1 2.446-3.47-.83-3.36-2.239-6.47-3.394-9.7M750.616 766.534c-11.398-1.083-22.468 1.713-33.495 5.001-1.171.354-2.371.729-3.556.866-3.794.453-6.981-1.083-8.775-5.808-1.704-4.489-.889-8.762 1.483-12.424 1.66-2.56 3.72-4.667 5.365-7.246 5.172-8.132 10.227-16.362 15.31-24.593.933-1.516 1.66-3.288 2.682-4.666 3.675-4.903 8.744-3.308 10.715 3.051.727 2.344 1.898 4.529 3.113 6.518 4.801 7.876 10.004 15.397 14.39 23.647 1.304 2.462 1.453 7.66.356 10.298-1.26 3.013-4.506 4.568-6.877 6.773zM1320.91 1118.71c4.25 3.86 8.27 7.38 12.2 11.06 4.16 3.92 7.59 8.63 8.43 15.7.59 4.98-.34 9.35-3.73 12.06-3.25 2.6-6.5 1.78-9.47-1.04-8.62-8.15-17.27-16.24-25.76-24.65-1.97-1.95-3.86-4.65-4.89-7.56-2.21-6.24.1-12.52 5.14-16.56 10.46-8.35 20.84-16.92 31.24-25.4.58-.47 1.13-1 1.72-1.4 3.78-2.56 7.72-1.5 9.65 2.62 1.96 4.14 1.02 9.16-2.43 12.66-6.2 6.3-12.42 12.54-18.63 18.82-1.04 1.07-2.08 2.19-3.47 3.69M148.844 1011.81c-.592 7.38-1.156 14.77-1.778 22.15-.845 9.83-8.211 15.85-14.91 11.11-7.914-5.62-15.487-12.23-22.794-19.2-4.668-4.45-4.846-12.94-.326-17.72 7.87-8.35 16.051-16.265 24.513-23.512 5.454-4.666 13.753 3.269 14.717 13.685.415 4.387.074 8.917.074 13.367.163.06.327.1.504.12M424.042 862.502c-10.819-1.162-18.985-12.917-17.681-26.562 1.053-11.144 4.609-20.969 10.642-28.885 9.707-12.719 22.32-8.447 26.455 8.782 4.09 17.071 1.733 29.673-8.063 39.32-3.32 3.269-7.544 4.943-11.353 7.345M608.174 1261.73c-.623 13.69-3.023 26.41-7.514 38.42-.356.96-.8 1.87-1.245 2.76-3.631 7.2-8.937 10.67-13.932 9.07-5.245-1.67-9.024-8.01-9.144-17.01-.089-6.01.741-12.07 1.438-18.04.83-7.05 2.105-14 2.95-21.05 1.377-11.44 6.15-18.05 13.294-17.99 7.025.04 12.405 6.99 13.694 17.8.267 2.07.326 4.23.459 6.04M1428.14 742.63c4.58.256 7.91 2.954 9.01 7.66 1.22 5.257-1.02 12.345-5.25 15.476-2.32 1.713-4.98 2.619-7.45 3.977-14.01 7.758-28 15.555-42 23.293-1.85 1.024-3.72 2.127-5.68 2.718-4.58 1.378-8.96-1.536-10.7-6.852-1.71-5.159-.54-11.066 3.21-14.728 1.69-1.674 3.66-2.993 5.64-4.076 15.03-8.211 30.05-16.362 45.14-24.396 2.57-1.378 5.38-2.067 8.08-3.072M486.097 1485.35c-1.216-.63-3.587-1.42-5.633-2.95-17.176-12.96-30.455-31.45-41.75-52.65-3.141-5.91-2.519-12.59 1.097-16.39 3.617-3.8 8.582-2.99 12.153 2.66 11.398 18.04 24.528 33.45 39.111 46.77 4.447 4.05 5.944 9.39 4.506 14.68-1.363 5.14-4.268 7.57-9.484 7.88M1112.74 912.022c-.44 16.185-2.95 30.224-6.98 43.79-4.98 16.736-14.66 26.502-27.25 31.662-5.44 2.244-8.54-1.675-6.88-9 .74-3.269 2.52-6.182 4.08-9.037.93-1.714 2.19-3.209 3.51-4.409 14.03-12.8 18.02-32.056 19.47-52.987.21-3.012.31-6.104.85-9.018.77-4.194 2.83-7.029 6.24-7.068 3.42-.04 5.55 2.717 6.24 6.99.56 3.445.57 7.049.72 9.077M298.754 785.495c8.314.138 12.953 8.034 10.522 15.89-1.348 4.391-3.808 9.077-6.758 11.538-10.581 8.802-21.49 16.933-32.471 24.829-4.15 2.993-8.27 1.201-10.448-3.032-2.149-4.174-1.631-9.648 1.51-14.197a35.92 35.92 0 0 1 4.196-5.001c8.209-8.112 16.361-16.323 24.749-24.1 3.113-2.875 6.804-4.647 8.7-5.927M121.439 1155.35c-1.289-.59-3.779-1.44-6.032-2.88-9.426-6-16.629-15.69-23.268-26.07-4.09-6.37-3.572-15.04.474-20.53 4.09-5.53 10.863-6.07 15.813-.81 2.179 2.3 3.972 5.3 5.736 8.21a952.196 952.196 0 0 1 12.449 21.07c1.29 2.24 2.52 4.71 3.276 7.31 2.253 7.69-.993 13.66-8.448 13.7M597.859 772.775c-1.496 2.757-2.682 6.99-4.89 8.408-2.06 1.319-5.411.276-7.825-.965-1.987-1.024-3.78-3.564-5.039-6.005-5.173-9.963-10.524-19.828-15.015-30.303-3.467-8.092-1.363-16.717 3.869-20.517 5.366-3.918 11.915-1.24 15.384 7.089 3.765 9.037 7.173 18.37 10.375 27.802 1.422 4.134 1.955 8.821 3.141 14.491M945.313 1150.74c-1.127-.33-3.29-.67-5.277-1.65-8.432-4.16-16.85-8.33-25.164-12.84-5.677-3.09-7.855-8.51-6.389-14.49 1.468-6.03 6.299-9.79 11.828-7.48 9.84 4.07 19.445 9.13 29.122 13.86.978.47 1.837 1.47 2.667 2.36 3.661 3.94 4.921 8.9 3.513 13.65-1.304 4.33-4.831 6.87-10.3 6.59M1716.99 1105.24c-12-.42-19.16-8.11-18.79-20.22.32-10.4 7.96-19.85 15.8-19.61 9.23.29 17.1 9.47 17.05 19.84-.06 9.53-7.56 20.21-14.06 19.99M1135.86 1329.54c-10.36.48-18.48-10.61-16.18-22.5 2.44-12.66 14.06-19.08 22.64-12.8 5.84 4.27 9.96 9.81 9.71 19.24-.24 8.96-4.65 14.78-11.46 15.53-1.46.14-2.95.32-4.71.53M1055.31 1071.9c-1.69-.27-3.29.06-4.28-.8-1.89-1.64-4.46-3.69-4.82-6.09-.41-2.7.89-6.36 2.22-8.86.95-1.81 3.1-2.95 4.86-3.46 7.31-2.19 14.63-4.42 22.04-5.89 4.91-.99 8.02 1.73 8.76 6.04.77 4.53-1.98 10.79-5.99 12.43-5.11 2.08-10.34 3.7-15.57 5.28-2.46.74-5.03.96-7.22 1.35M283.875 869.63c-3.17-.177-6.031-1.969-7.454-6.38-1.541-4.745-1.172-10.041 2.045-12.621 6.032-4.824 12.375-9.431 19.03-12.247 5.632-2.382 9.721 4.922 7.617 12.09-2.252 7.738-14.628 19.059-21.238 19.158M930.997 1157.67c5.127.12 8.418 2.25 9.039 6.24.609 3.92-1.807 8.25-6.564 9.97-5.824 2.12-11.783 3.66-17.741 4.94-4.031.87-7.084-1.95-7.855-6.26-.844-4.77 1.038-9.77 5.218-11.09 5.869-1.83 11.929-2.58 17.903-3.8M293.819 1527.11c0 4.1.237 8.21-.074 12.25-.281 3.7-1.481 7.01-4.846 7.25-3.305.23-4.994-2.64-5.514-6.36-.681-4.87-.874-9.87-1.215-14.81-.237-3.37-.325-6.74-.578-10.1-.326-4.57 1.008-7.68 4.462-8.7 3.008-.91 6.328 1.75 6.966 6.16.666 4.68.695 9.53.992 14.31a.317.317 0 0 0-.193 0M382.238 1388.97c-5.127-.02-9.026-5.2-8.95-11.88.088-7.52 4.801-13.8 10.299-13.7 5.276.1 9.544 6.1 9.5 13.37-.044 6.71-4.935 12.21-10.849 12.21M954.119 934.527c-4.209.217-6.655-3.997-5.543-8.801.785-3.367 2.223-6.439 3.365-9.668 1.763-4.981 3.511-9.983 5.26-14.984 1.304-3.761 3.439-5.592 6.477-4.154 2.742 1.299 3.691 4.686 2.712 7.856-2.86 9.175-6.046 18.174-9.337 27.093-.548 1.477-2.312 2.127-2.934 2.658M204.241 1400.65c.578-3.41.46-6.42 1.526-8.06 1.497-2.32 3.825-4.86 5.9-5.04 1.896-.16 4.935 2.05 5.75 4.31 2.415 6.7 3.141 14.04.578 21.11-2.416 6.64-7.514 7.27-10.301.91-1.837-4.14-2.46-9.22-3.453-13.23M339.108 899.972c4.919-.059 8.714 4.607 8.699 10.672-.014 6.143-4.076 11.321-8.893 11.341-4.579.039-8.55-5.297-8.685-11.676-.133-5.868 3.646-10.278 8.879-10.337M1356.14 825.761c4.39-.059 7.59 3.8 7.71 9.353.1 5.493-3.21 10.061-7.28 10.041-4.27-.019-8.39-5.316-8.44-10.868-.08-5.454 2.75-8.447 8.01-8.526M711.978 875.419c6.816.256 14.42 3.13 20.289 11.558 5.291 7.619 6.002 17.858 2.016 25.616-2.149 4.174-4.921 5.237-8.715 4.411-12.998-2.875-25.669-.709-37.866 5.828-1.409.748-2.668 2.422-3.676 4.016-2.209 3.505-3.854 2.481-5.276-.826-2.608-6.104-2.608-12.681-1.408-19.257 3.156-17.367 17.889-31.228 34.636-31.346"/></g><defs><clipPath id="a"><path fill="#fff" d="M0 756h1719V0H0z"/></clipPath><clipPath id="b"><path fill="#fff" d="M0 756h1719v756H0z"/></clipPath></defs></svg>