<svg xmlns="http://www.w3.org/2000/svg" width="794.589" height="499.429" data-name="Layer 1"><path fill="#f0f0f0" d="M313.553 399.052H3.196A3.2 3.2 0 0 1 0 395.856V93.31a3.2 3.2 0 0 1 3.196-3.196h310.357a3.2 3.2 0 0 1 3.196 3.196v302.545a3.2 3.2 0 0 1-3.196 3.196"/><path fill="#fff" d="M279.818 117.813H36.93a3.2 3.2 0 0 0-3.196 3.196V309.21a3.2 3.2 0 0 0 3.196 3.196h242.888a3.2 3.2 0 0 0 3.196-3.196V121.01a3.2 3.2 0 0 0-3.196-3.196M265.97 349.338H50.78a1.778 1.778 0 0 1-1.776-1.776v-9.943a1.778 1.778 0 0 1 1.775-1.775h215.19a1.778 1.778 0 0 1 1.776 1.775v9.943a1.778 1.778 0 0 1-1.775 1.776M191.399 373.484H50.779a1.778 1.778 0 0 1-1.775-1.775v-9.943a1.778 1.778 0 0 1 1.775-1.775H191.4a1.778 1.778 0 0 1 1.775 1.775v9.943a1.778 1.778 0 0 1-1.775 1.775"/><circle cx="152.374" cy="214.46" r="30.882" fill="#ffb8b8"/><path fill="#262471" d="M197.556 312.407h-68.47l2.237-50.339.533-.561 7.684-8.117h24.452l9.062 8.778.732.71 19.296 18.494z"/><path fill="#2f2e41" d="M140.86 312.407H89.06c-.128-11.363-.199-18.167-.199-18.167l2.997-1.825a.022.022 0 0 1 .014-.007h.008l33.01-20.042 6.93-11.256.037.397 2.038 23.728s3.366 10.88 6.967 27.172M227.924 312.407h-54.87c.831-33.138-3.643-51.297-1.342-51.297l1.342 1.058 16.171 12.77 21.314 7.819h.014l14.694 5.39 2.578.944v1.215c.007 2.912.021 10.873.1 22.101M123.158 224.122s2.623-4.608 2.013-20.001 22.831-6.687 42.418-8.156 15.44 25.7 15.44 25.7 1.414-1.615 4.44-14.727-3.845-26.18-3.845-26.18c-2.023-13.778-12.926-9.362-12.926-9.362 5.251 2.044 4.243 6.415 4.243 6.415-4.445-7.792-15.348-3.376-15.348-3.376-14.542-9.126-29.28 2.891-29.28 2.891-17.567 3.987-7.264 17.957-7.264 17.957-17.667 8.928.109 28.84.109 28.84"/><path fill="#2f2e41" d="M95.976 312.407H74.692a64.178 64.178 0 0 0 .014-7.876c-1.271-5.064 16.611-11.91 17.151-12.116a.022.022 0 0 1 .014-.007h.008l3.408 1.832ZM231.766 312.407H209.41l-2.79-27.555 3.131-2.287s.284.064.789.191h.014c2.507.618 10.262 2.664 14.694 5.39a9.104 9.104 0 0 1 2.578 2.16 2.662 2.662 0 0 1 .61 1.889c-.113 1.03 1.194 8.615 3.331 20.212"/><path fill="#f0f0f0" d="M791.393 308.937H481.036a3.2 3.2 0 0 1-3.196-3.196V3.196A3.2 3.2 0 0 1 481.036 0h310.357a3.2 3.2 0 0 1 3.196 3.196V305.74a3.2 3.2 0 0 1-3.196 3.196"/><path fill="#fff" d="M757.659 27.698H514.77a3.2 3.2 0 0 0-3.195 3.196v188.203a3.2 3.2 0 0 0 3.195 3.196H757.66a3.2 3.2 0 0 0 3.195-3.196V30.894a3.2 3.2 0 0 0-3.195-3.196M743.81 259.223H528.62a1.778 1.778 0 0 1-1.776-1.776v-9.943a1.778 1.778 0 0 1 1.775-1.775h215.19a1.778 1.778 0 0 1 1.776 1.775v9.943a1.778 1.778 0 0 1-1.776 1.776M669.239 283.37h-140.62a1.778 1.778 0 0 1-1.775-1.776v-9.943a1.778 1.778 0 0 1 1.775-1.775h140.62a1.778 1.778 0 0 1 1.775 1.775v9.943a1.778 1.778 0 0 1-1.775 1.775"/><path fill="#262471" d="M695.999 222.293c1.37-4.936 2.436-9.19 2.983-12.201a8.702 8.702 0 0 0 .05-2.813c-2.046-14.552-38.99-26.852-43.727-28.372l-1.144-12.67-46.504-5.007-5.887 16.207-16.69 6.257a7.95 7.95 0 0 0-1.711.88 8.263 8.263 0 0 0-3.402 8.814l7.109 28.905z"/><path fill="#262471" d="M599.597 222.293H563.51c1.293-8.054 2.45-15.177 3.203-19.708 2.756-16.49 14.772-17.897 16.654-18.01.15-.015.242-.015.25-.015h7.591ZM695.999 222.293h8.75c-.774-7.11-3.232-11.896-5.717-15.014a17.936 17.936 0 0 0-6.257-5.205l-.66-.285-7.692 20.504Z"/><circle cx="629.092" cy="119.727" r="33.484" fill="#a0616a" data-name="Ellipse 109"/><path fill="#2f2e41" d="M606.618 103.414c3.466 4.102 9.331 5.26 14.742 5.73 10.99.964 26.969-.6 37.708-3.079.772 7.429-1.322 15.439 3.053 21.55a100.05 100.05 0 0 0 3.554-22.68c.132-3.29.08-6.693-1.256-9.713s-4.253-5.584-7.61-5.61a19.074 19.074 0 0 1 8.508-3.637l-10.632-5.342 2.73-2.803-19.247-1.178 5.575-3.542a120.89 120.89 0 0 0-25.335-.796c-3.923.289-8.024.84-11.202 3.114s-5.014 6.79-3.04 10.125a14.703 14.703 0 0 0-11.205 8.891c-1.417 3.592-1.287 7.582-.85 11.41a80.867 80.867 0 0 0 4.24 17.939" data-name="Path 696"/><path fill="#e4e4e4" d="M558.378 499.43H248.02a3.2 3.2 0 0 1-3.196-3.197V193.688a3.2 3.2 0 0 1 3.196-3.195h310.357a3.2 3.2 0 0 1 3.196 3.195v302.545a3.2 3.2 0 0 1-3.196 3.196"/><path fill="#fff" d="M524.644 218.19H281.756a3.2 3.2 0 0 0-3.196 3.197V409.59a3.2 3.2 0 0 0 3.196 3.195h242.888a3.2 3.2 0 0 0 3.195-3.195V221.387a3.2 3.2 0 0 0-3.195-3.196M510.794 449.715h-215.19a1.778 1.778 0 0 1-1.775-1.775v-9.943a1.778 1.778 0 0 1 1.775-1.776h215.19a1.778 1.778 0 0 1 1.776 1.776v9.943a1.778 1.778 0 0 1-1.776 1.775M436.224 473.862h-140.62a1.778 1.778 0 0 1-1.775-1.776v-9.942a1.778 1.778 0 0 1 1.775-1.776h140.62a1.778 1.778 0 0 1 1.775 1.776v9.942a1.778 1.778 0 0 1-1.775 1.776"/><path fill="#262471" d="M427.098 412.785h-48.883l3.046-45.722 17.635 4.07 17.15-6.598.456-.17.028-.015a.23.23 0 0 1 .014.043c.27 1.086 5.653 22.64 10.554 48.392"/><path fill="#2f2e41" d="m456.557 374.527-4.567 38.258h-41.198l5.255-48.25.05-.469.405.298.042.028 10.163 7.415zM385.445 412.785H348.55l-.533-30.12 27.151-9.004 6.093-6.598s1.925 19.85 4.184 45.722"/><path fill="#2f2e41" d="M474.319 412.785h-30.574l1.96-27.406 10.852-10.852s8.586 18.01 17.762 38.258M357.25 412.785h-16.13c.072-8.778.115-14.843.115-16.554a15.987 15.987 0 0 1 6.782-13.565l8.146 2.713ZM354.734 319.998a42.964 42.964 0 0 1 21.073-36.826c13.596-8.026 29.999-7.881 45.003.397 10.69 5.899 19.387 20.74 19.387 33.085v36.021h-85.463Z"/><circle cx="598.479" cy="521.204" r="30.869" fill="#ffb8b8" transform="rotate(-28.663 105.153 817.77)"/><path fill="#2f2e41" d="M363.582 321.21c-.234-.27-.781-.902 3.026-30.2l.121-.48h.344c19.3-9.494 38.882-9.733 58.205-.712a3.802 3.802 0 0 1 2.155 3.076c2.255 27.527 1.71 28.127 1.478 28.383a3.78 3.78 0 0 1-2.79 1.234h-8.562l-.18-.323a88.354 88.354 0 0 0-4.831-7.946 70.527 70.527 0 0 0-1.973 7.77l-.104.5h-44.04a3.77 3.77 0 0 1-2.849-1.302"/></svg>