<svg xmlns="http://www.w3.org/2000/svg" width="663.81" height="579.749" data-name="Layer 1"><path fill="#f2f2f2" d="M511.2 129.575H154.79a13.625 13.625 0 0 1-13.608-13.61V13.61A13.625 13.625 0 0 1 154.79 0h386.574a13.625 13.625 0 0 1 13.61 13.609v72.192a43.823 43.823 0 0 1-43.775 43.774Z"/><path fill="#fff" d="M388.26 36.403H225.506a3.51 3.51 0 1 1 0-7.02H388.26a3.51 3.51 0 0 1 0 7.02ZM470.648 50.758H225.506a3.51 3.51 0 1 1 0-7.02h245.142a3.51 3.51 0 0 1 0 7.02ZM470.648 67.236H225.506a3.51 3.51 0 1 1 0-7.02h245.142a3.51 3.51 0 0 1 0 7.02ZM470.648 83.714H225.506a3.51 3.51 0 1 1 0-7.02h245.142a3.51 3.51 0 0 1 0 7.02ZM470.648 100.191H225.506a3.51 3.51 0 1 1 0-7.02h245.142a3.51 3.51 0 0 1 0 7.02Z"/><path fill="#e6e6e6" d="M418.545 223.754H13.609A13.625 13.625 0 0 1 0 210.145V89.422a13.625 13.625 0 0 1 13.609-13.609h404.936a13.625 13.625 0 0 1 13.609 13.61v120.722a13.625 13.625 0 0 1-13.61 13.61Z"/><path fill="#fff" d="M379.2 214.575H22.79a13.625 13.625 0 0 1-13.608-13.61V98.61A13.625 13.625 0 0 1 22.79 85h386.574a13.625 13.625 0 0 1 13.61 13.609v72.192a43.823 43.823 0 0 1-43.775 43.774Z"/><path fill="#f7f6ff" d="M256.26 121.403H93.506a3.51 3.51 0 1 1 0-7.02H256.26a3.51 3.51 0 0 1 0 7.02Z"/><path fill="#e6e6e6" d="M338.648 135.758H93.506a3.51 3.51 0 1 1 0-7.02h245.142a3.51 3.51 0 0 1 0 7.02ZM338.648 152.236H93.506a3.51 3.51 0 1 1 0-7.02h245.142a3.51 3.51 0 0 1 0 7.02ZM338.648 168.714H93.506a3.51 3.51 0 1 1 0-7.02h245.142a3.51 3.51 0 0 1 0 7.02ZM338.648 185.191H93.506a3.51 3.51 0 1 1 0-7.02h245.142a3.51 3.51 0 0 1 0 7.02ZM139.53 317.257a26.164 26.164 0 1 1 26.163-26.164 26.164 26.164 0 0 1-26.164 26.164Z"/><path fill="#fff" d="M149.853 288.513h-7.743v-7.743a2.58 2.58 0 0 0-5.162 0v7.743h-7.742a2.58 2.58 0 0 0 0 5.161h7.742v7.743a2.58 2.58 0 0 0 5.162 0v-7.743h7.743a2.58 2.58 0 1 0 0-5.161Z"/><path fill="#e6e6e6" d="M216.077 317.257a26.164 26.164 0 1 1 26.164-26.164 26.164 26.164 0 0 1-26.164 26.164Z"/><path fill="#fff" d="M226.4 288.513h-20.647a2.58 2.58 0 0 0 0 5.161H226.4a2.58 2.58 0 1 0 0-5.161Z"/><path fill="#f7f6ff" d="M292.624 317.257a26.164 26.164 0 1 1 26.164-26.164 26.164 26.164 0 0 1-26.164 26.164Z"/><path fill="#fff" d="m307.343 289.85-7.417-10.826a2.2 2.2 0 0 0-3.63 2.487l4.798 7.001H282.3a2.58 2.58 0 1 0 0 5.162h19.029l-5.033 7.347a2.2 2.2 0 0 0 3.63 2.486l7.416-10.826a2.903 2.903 0 0 0 0-2.83Z"/><path fill="#a0616a" d="m460.467 565.314-12.085-.001-5.75-46.619 17.838.001-.003 46.619z"/><path fill="#2f2e41" d="m460.893 577.922-37.166-.002v-.47a14.467 14.467 0 0 1 14.466-14.466l6.79-5.15 12.666 5.151h3.245Z"/><path fill="#a0616a" d="m553.032 552.243-11.17 4.613-23.114-40.892 16.487-6.809 17.797 43.088z"/><path fill="#2f2e41" d="m558.24 563.733-34.352 14.189-.18-.435a14.467 14.467 0 0 1 7.847-18.893h.001l4.308-7.353 13.674-.075 2.999-1.238Z"/><path fill="#a0616a" d="M519.214 316.016s-9.363-29.531-5.482-41.62l21.589-1.31 2.47 43.575-12.34 50.382a8.594 8.594 0 1 1-14.462-3.104Z"/><path fill="#e6e6e6" d="m532.99 255.52-3.236-14.238a41.687 41.687 0 0 0-18.544-26.104 18.25 18.25 0 0 0-19.264.013 18.207 18.207 0 0 0-6.295 24.048c6.663 12.307 6.697 26.253 16.557 26.645l-.386 5.12 13.58 29.669 26.575-6.708Z"/><path fill="#2f2e41" d="M515.204 319.874s6.914 22.996 1.462 42.627-9.847 66.983-9.847 66.983l40.698 100.501-18.934 4.881-60.494-98.827-5.707 103.652-18.25.748-13.777-103.801 10.927-104.397Z"/><path fill="#e6e6e6" d="m518.261 339.943.11-.155c5.904-8.265-2.975-28.126-4.314-31.005a7.228 7.228 0 0 0 4.948-7.72l-.578-4.907-.601-4.814 4.31-4.31.013-.108 2.48-21.708 3.608-14.418a31.654 31.654 0 0 0-8.985-30.676l-8.337-1.324-10.133-9.763H484.44l-5.603 5.353c-10.46 1.834-8.256 1.235-17.24 12.017l-11.298 32.32 1.018 4.612-.003 6.254 1.604 18.45a8.954 8.954 0 0 0-2.124 7.746l.34 1.702c-2.67 1.145-5.218 21.482-5.827 24.323l-.91 4.243c-.777 1.027-5.913 7.874-5.913 9.746 0 .28.208.553.653.854 3.5 2.37 24.64 4.805 33.2 1.38 9.12-3.647 45.37 1.823 45.735 1.879Z"/><path fill="#a0616a" d="M409 276.885s26.268-16.423 38.943-15.675l6.645 20.582-41.586 13.245-51.868.598a8.594 8.594 0 1 1-.596-14.78Z"/><path fill="#e6e6e6" d="m471.02 275.16 12.984-6.68a41.687 41.687 0 0 0 20.663-24.462 18.25 18.25 0 0 0-4.81-18.653 18.207 18.207 0 0 0-24.859-.107c-10.26 9.518-23.757 13.025-21.682 22.671l-5.055.902-25.351 20.54 13.115 24.068Z"/><circle cx="492.738" cy="178.455" r="24.428" fill="#a0616a"/><path fill="#2f2e41" d="M475.987 150.25c1.75-.051 1.15-3.351 2.56-4.404l.022.096a3.438 3.438 0 0 0 6.57.28 5.225 5.225 0 0 1 3.318-3.48c.087 3.058 2.401 5.713 5.161 7.034s5.908 1.541 8.968 1.586a39.577 39.577 0 0 1 9.13.692c2.967.749 5.853 2.509 7.12 5.294 1.269 2.785.364 6.62-2.408 7.916 2.148.012 3.97 1.784 4.712 3.798a15.082 15.082 0 0 1 .466 6.374c-.604 7.899-2.075 16.403-7.827 21.851-4.384 4.152-10.659 5.825-16.696 5.8-6.038-.024-4.977-.579-10.814-2.12 6.003.673 4.365-26.149-5.555-27.235a7.392 7.392 0 0 1-.257-.726 8.26 8.26 0 0 0-5.159-5.471 6.406 6.406 0 0 0-7.002 2.12c-6.392-5.996-2.426-19.104 7.691-19.404Z"/><path fill="#f0f0f0" d="M629.316 578.724H596.13l-.143-.26a36.166 36.166 0 0 1-1.217-2.422c-3.418-7.318-4.863-15.689-6.138-23.073l-.96-5.567a3.437 3.437 0 0 1 5.41-3.362q7.566 5.505 15.137 10.999c1.91 1.39 4.093 3 6.184 4.74.201-.98.412-1.963.623-2.931a3.44 3.44 0 0 1 6.281-1.086L625.19 562c2.832 4.556 5.331 9.045 4.822 13.887a.757.757 0 0 1-.013.175 10.947 10.947 0 0 1-.564 2.331Z"/><path fill="#cacaca" d="m662.626 579.441-315.358.308a1.19 1.19 0 0 1 0-2.382l315.358-.307a1.19 1.19 0 0 1 0 2.381Z"/></svg>