<svg xmlns="http://www.w3.org/2000/svg" width="39" height="62" fill="none"><g clip-path="url(#a)"><path fill="#34E9A4" d="M19.022 32.674c3.089 0 5.593-2.454 5.593-5.481 0-3.027-2.504-5.482-5.593-5.482-3.09 0-5.594 2.455-5.594 5.482s2.504 5.481 5.594 5.481ZM5.417 40.53a.728.728 0 0 1-.292-.248.708.708 0 0 1-.122-.36l-.082-1.51a.709.709 0 0 1 .187-.517.738.738 0 0 1 .505-.236l12.84-.665a.742.742 0 0 1 .527.183.712.712 0 0 1 .241.495l.082 1.51a.709.709 0 0 1-.187.517.738.738 0 0 1-.505.236L5.77 40.6a.74.74 0 0 1-.354-.07Z"/><path fill="#2F2E41" d="M14.268 40.56a.728.728 0 0 1-.304-.267.708.708 0 0 1-.11-.385l-.016-2.842a.704.704 0 0 1 .219-.506.731.731 0 0 1 .519-.206l5.857.507c.155 0 .351.236.508.425.05.06.092.11.123.141a.707.707 0 0 1 .21.509l-.012 1.512a.71.71 0 0 1-.22.505.74.74 0 0 1-.518.206l-5.94.472a.749.749 0 0 1-.316-.07Z"/><path fill="#34E9A4" d="M17.931 62H16.39a.74.74 0 0 1-.518-.21.71.71 0 0 1-.214-.507V48.479a.71.71 0 0 1 .214-.507.74.74 0 0 1 .518-.21h1.542a.74.74 0 0 1 .517.21.71.71 0 0 1 .215.507v12.804a.71.71 0 0 1-.215.507.74.74 0 0 1-.517.21ZM22 62h-1.542a.74.74 0 0 1-.517-.21.71.71 0 0 1-.215-.507V48.479a.71.71 0 0 1 .215-.507.74.74 0 0 1 .517-.21H22a.74.74 0 0 1 .517.21.71.71 0 0 1 .215.507v12.804a.71.71 0 0 1-.215.507A.74.74 0 0 1 22 62Z"/><path fill="#2F2E41" d="m19.766 29.224.006-.204c-.389-.011-.732-.035-.99-.22a.633.633 0 0 1-.248-.463.353.353 0 0 1 .12-.297c.171-.141.447-.095.647-.005l.173.078-.332-2.376-.207.028.283 2.02a.752.752 0 0 0-.698.099.562.562 0 0 0-.195.46.82.82 0 0 0 .335.622c.33.237.76.249 1.106.258ZM17.911 25.94h-1.126v.204h1.126v-.204ZM21.465 25.94h-1.126v.204h1.126v-.204ZM25.394 45.448l-5.162-10.09h.072c.18 0 .353-.07.48-.195a.66.66 0 0 0 .2-.47v-.205a.66.66 0 0 0-.2-.47.687.687 0 0 0-.48-.196h-2.3c-.18 0-.352.07-.48.195a.66.66 0 0 0-.198.471v.205c0 .163.062.32.172.44.111.122.264.2.429.218l-5.178 10.102a3.098 3.098 0 0 0 .137 3.069c.288.457.69.835 1.17 1.097.479.262 1.018.4 1.567.4h6.892c.55 0 1.09-.138 1.57-.4.48-.263.883-.64 1.171-1.099a3.104 3.104 0 0 0 .138-3.073Z"/><path fill="#34E9A4" d="m19.263 37.642 11.646-5.338a.746.746 0 0 1 .56-.024.727.727 0 0 1 .413.37l.653 1.369c.082.172.091.37.025.548a.724.724 0 0 1-.377.405L20.537 40.31a.746.746 0 0 1-.56.024.727.727 0 0 1-.413-.37l-.654-1.369a.7.7 0 0 1 .085-.743.724.724 0 0 1 .268-.21Z"/><path fill="#2F2E41" d="m18.864 37.609 5.127-2.995a.746.746 0 0 1 .559-.03.728.728 0 0 1 .417.365l1.293 2.546a.704.704 0 0 1-.116.79.732.732 0 0 1-.23.168l-5.477 2.073c-.143.068-.425-.059-.651-.16a2.388 2.388 0 0 0-.228-.095.723.723 0 0 1-.363-.345l-.67-1.362a.706.706 0 0 1 .339-.955Z"/><path fill="#3F3D56" d="M14.604 24.342a.286.286 0 0 1-.2-.082.275.275 0 0 1-.075-.26l1.462-6.31a.277.277 0 0 1 .192-.204.29.29 0 0 1 .277.06l4.847 4.399a.278.278 0 0 1 .084.265.276.276 0 0 1-.192.205l-6.31 1.914a.294.294 0 0 1-.085.013Z"/><path fill="#fff" d="m18.568 19.729-3.045-.594.048-.207 2.692.524.305.277ZM20.965 21.905l-5.82-1.135.047-.209 5.468 1.066.305.278ZM18.883 22.99l-.437.132-3.68-.718.048-.208 4.069.794Z"/><path fill="#34E9A4" d="M33.077 24.438a.91.91 0 0 0 .918-.9.91.91 0 0 0-.918-.9.91.91 0 0 0-.92.9c0 .497.412.9.92.9Z"/><path fill="#FF6584" d="M21.264 1.286a.65.65 0 0 0 .656-.643.65.65 0 0 0-.657-.643.65.65 0 0 0-.656.643.65.65 0 0 0 .657.643ZM6.957 21.223a.65.65 0 0 0 .656-.643.65.65 0 0 0-.656-.643.65.65 0 0 0-.657.643.65.65 0 0 0 .657.643Z"/><path fill="#34E9A4" d="M29.927 19.036a.65.65 0 0 0 .656-.643.65.65 0 0 0-.656-.643.65.65 0 0 0-.657.643.65.65 0 0 0 .657.643ZM9.975 27.783a.65.65 0 0 0 .657-.643.65.65 0 0 0-.657-.643.65.65 0 0 0-.656.643.65.65 0 0 0 .656.643Z"/><path fill="#E6E6E6" d="M30.714 29.584a.65.65 0 0 0 .656-.643.65.65 0 0 0-.656-.644.65.65 0 0 0-.656.643.65.65 0 0 0 .656.644Z"/><path fill="#CCC" d="M24.939 6.689a.65.65 0 0 0 .656-.644.65.65 0 0 0-.656-.643.65.65 0 0 0-.657.643.65.65 0 0 0 .657.644ZM.133 13.76a4.421 4.421 0 0 1 1.947.588c.593.343 1.093.82 1.462 1.39.103.162.238.34.166.538a.355.355 0 0 1-.143.187.367.367 0 0 1-.231.058.475.475 0 0 1-.26-.152.459.459 0 0 1 .211-.741c.477-.2.958.108 1.346.354.884.56 1.857 1.066 2.93 1.13.991.06 2.055-.322 2.606-1.165.097-.147-.143-.283-.239-.137-.547.836-1.653 1.136-2.615 1.007a5.154 5.154 0 0 1-1.636-.544c-.264-.135-.52-.284-.772-.44a4.943 4.943 0 0 0-.757-.425c-.441-.178-1.025-.164-1.334.245-.287.382-.065 1.017.416 1.124a.662.662 0 0 0 .59-.178.634.634 0 0 0 .172-.58c-.048-.224-.221-.444-.355-.628a4.604 4.604 0 0 0-1.531-1.341 4.705 4.705 0 0 0-1.973-.562c-.178-.008-.177.263 0 .272ZM38.947 21.975a3.426 3.426 0 0 1-1.12-1.148 3.346 3.346 0 0 1-.464-1.52c-.008-.152-.031-.326.097-.438a.29.29 0 0 1 .357-.027.367.367 0 0 1 .09.439.383.383 0 0 1-.41.2c-.41-.043-.621-.44-.794-.758-.393-.724-.868-1.446-1.588-1.897-.665-.418-1.554-.557-2.27-.181-.126.065-.014.251.111.186.71-.373 1.598-.162 2.214.294.363.279.675.617.921.999.13.194.25.395.362.599.102.204.221.4.358.583.236.29.647.503 1.023.336a.602.602 0 0 0 .32-.43.581.581 0 0 0-.164-.509.522.522 0 0 0-.828.237c-.04.189-.04.383-.003.571.06.538.242 1.055.533 1.514.291.459.683.848 1.148 1.139.12.073.227-.115.107-.189ZM16.3 4.168a3.517 3.517 0 0 1-1.547-.467 3.435 3.435 0 0 1-1.163-1.107c-.082-.128-.189-.27-.132-.428.02-.06.06-.113.114-.148a.292.292 0 0 1 .183-.046.365.365 0 0 1 .039.71c-.379.159-.761-.086-1.07-.281-.704-.446-1.478-.848-2.33-.9-.789-.046-1.635.257-2.073.927-.077.118.113.226.19.11.435-.666 1.315-.904 2.08-.802.455.07.895.217 1.3.433.21.107.415.226.614.35.19.13.392.243.603.339.35.14.816.13 1.06-.196a.585.585 0 0 0-.33-.894.527.527 0 0 0-.468.142.504.504 0 0 0-.138.461c.06.183.156.353.282.5.32.44.736.805 1.218 1.067a3.743 3.743 0 0 0 1.569.446c.142.007.141-.21 0-.216ZM16.8 11.006h-.655v2.113h.656v-2.113Z"/><path fill="#B3B3B3" d="m6.19 9.532.456-.447-1.499-1.469-.456.447L6.19 9.532ZM24.642 13.973l.456.446 1.499-1.468-.456-.447-1.499 1.469Z"/><path fill="#FF6584" d="m6.004 32.237.456.447 1.498-1.468-.456-.447-1.498 1.468Z"/></g><defs><clipPath id="a"><path fill="#fff" d="M0 0h39v62H0z"/></clipPath></defs></svg>