<?xml version="1.0" standalone="no"?>
<!DOCTYPE svg PUBLIC "-//W3C//DTD SVG 20010904//EN"
 "http://www.w3.org/TR/2001/REC-SVG-20010904/DTD/svg10.dtd">
<svg version="1.0" xmlns="http://www.w3.org/2000/svg"
 width="1280.000000pt" height="166.000000pt" viewBox="0 0 1280.000000 166.000000"
 preserveAspectRatio="xMidYMid meet">

<g transform="translate(0.000000,166.000000) scale(0.100000,-0.100000)"
fill="#000000" stroke="none">
<path d="M10927 1273 c18 -2 50 -2 70 0 21 2 7 4 -32 4 -38 0 -55 -2 -38 -4z"/>
<path d="M11253 1254 c4 -4 59 -11 122 -15 136 -9 174 -23 94 -33 -30 -4 -75
-14 -102 -23 -26 -8 -56 -13 -67 -10 -10 3 -21 0 -24 -7 -3 -7 -10 -4 -21 9
-15 18 -15 18 -9 -12 6 -28 4 -32 -25 -38 -34 -7 -52 -25 -26 -25 14 0 14 -2
2 -14 -7 -8 -40 -17 -73 -20 -32 -4 -74 -9 -93 -12 -33 -5 -33 -6 -12 -20 23
-16 29 -50 9 -51 -7 -1 -39 -5 -70 -10 l-58 -10 0 39 c0 21 -4 38 -9 38 -5 0
-11 14 -13 30 -4 26 2 35 38 66 24 19 67 46 96 59 55 25 190 51 208 40 5 -3
10 -1 10 6 0 18 -137 4 -200 -20 -28 -11 -76 -38 -107 -61 -85 -65 -217 -196
-209 -209 4 -7 39 -11 86 -11 74 0 79 -1 82 -22 2 -18 10 -23 33 -23 24 0 31
5 33 23 6 39 11 40 542 121 155 24 250 49 250 66 0 25 -141 103 -230 129 -60
16 -270 33 -257 20z m-397 -226 c-6 -4 -22 -8 -35 -8 l-25 0 30 31 29 30 6
-23 c3 -13 1 -26 -5 -30z"/>
<path d="M10614 1220 c-23 -5 -73 -24 -110 -43 -38 -18 -100 -46 -137 -62 -38
-16 -85 -44 -105 -62 -20 -18 -42 -33 -49 -33 -8 0 -16 -6 -19 -14 -7 -17 -81
-49 -95 -41 -5 4 -17 1 -26 -4 -40 -23 514 -19 556 4 14 8 60 46 101 86 41 39
102 92 135 117 33 25 64 49 70 54 12 10 -266 9 -321 -2z m256 -20 c-19 -13
-30 -13 -30 0 0 6 10 10 23 10 18 0 19 -2 7 -10z m-456 -145 c-4 -9 -16 -20
-27 -26 -16 -9 -19 -9 -14 4 3 8 0 20 -6 26 -8 8 -3 11 21 11 24 0 30 -4 26
-15z m46 1 c0 -2 -7 -6 -15 -10 -8 -3 -15 -1 -15 4 0 6 7 10 15 10 8 0 15 -2
15 -4z m-221 -60 c-2 -2 -14 -9 -26 -15 -19 -10 -22 -9 -17 4 4 8 15 15 27 15
11 0 18 -2 16 -4z"/>
<path d="M11922 1048 c-5 -7 -12 -22 -14 -33 -2 -17 3 -20 32 -20 25 0 36 5
38 18 7 36 -34 61 -56 35z"/>
<path d="M10120 990 c-14 -11 -20 -20 -14 -20 7 0 22 9 35 20 31 25 12 26 -21
0z"/>
<path d="M11767 860 c-39 -31 -76 -116 -83 -190 -8 -77 -18 -100 -44 -100 -47
0 6 -90 60 -102 102 -22 178 25 200 124 7 32 17 55 21 53 25 -16 20 125 -7
177 -30 58 -99 76 -147 38z m53 -128 c23 29 37 17 16 -14 -23 -33 -19 -48 5
-19 25 31 35 19 38 -49 4 -90 -50 -151 -104 -116 -21 14 -23 20 -15 36 16 29
12 42 -10 35 -25 -8 -26 3 -2 21 20 15 46 19 37 5 -3 -5 -1 -12 5 -16 5 -3 10
-1 10 6 0 8 4 8 15 -1 17 -14 21 -35 5 -25 -6 4 -10 -5 -10 -20 0 -15 4 -24
10 -20 6 3 10 12 10 20 0 8 8 18 18 24 13 8 14 12 5 22 -9 9 -8 17 3 34 14 22
14 23 -18 20 -42 -3 -61 16 -51 52 7 26 8 26 11 5 l3 -22 19 22z m-40 -72
c-22 -14 -33 -12 -26 6 3 9 6 21 6 27 0 6 8 3 18 -6 15 -16 15 -19 2 -27z"/>
<path d="M11777 571 c-5 -22 1 -33 14 -25 12 7 12 44 0 44 -5 0 -11 -9 -14
-19z"/>
<path d="M10246 774 c-170 -40 -265 -53 -466 -61 -140 -5 -157 -4 -173 12 -26
26 -33 10 -14 -30 9 -20 17 -42 17 -50 0 -7 7 -21 16 -30 15 -15 19 -14 46 12
26 25 43 30 143 43 l115 16 -27 -28 -27 -28 60 1 c34 0 51 3 41 8 -17 6 -17 8
1 25 11 9 26 19 34 20 28 6 68 26 68 34 0 5 33 14 73 20 39 6 83 14 97 17 24
6 24 6 -2 -10 -16 -8 -28 -20 -28 -25 0 -5 -10 -19 -22 -31 -13 -12 -16 -18
-8 -14 33 18 200 127 200 131 0 2 -1 3 -2 3 -2 -1 -66 -16 -142 -35z"/>
<path d="M10525 711 c-97 -44 -158 -159 -159 -303 -1 -49 -4 -88 -8 -88 -21 0
-4 -32 34 -64 69 -59 151 -69 250 -29 41 16 92 83 103 134 5 23 14 31 37 36
l30 6 -6 69 c-4 38 -14 90 -22 117 -15 51 -69 116 -111 132 -38 14 -104 10
-148 -10z m133 -137 c53 -34 69 -152 32 -225 -22 -43 -71 -79 -108 -79 -36 0
-80 28 -98 61 -8 17 -11 29 -6 25 9 -5 40 24 56 52 11 19 -46 3 -61 -17 -11
-14 -12 -11 -13 17 0 29 3 32 29 32 17 0 32 4 35 9 7 11 -30 44 -42 37 -6 -3
-8 2 -5 14 7 25 11 25 40 -2 24 -23 27 -19 23 32 -3 33 -6 35 -27 19 -17 -13
-17 -12 -4 4 8 10 22 22 31 27 13 7 16 3 18 -23 4 -47 19 -55 30 -16 6 23 5
39 -2 48 -9 12 -6 13 19 7 17 -4 41 -14 53 -22z"/>
<path d="M10625 570 c-13 -20 -24 -70 -16 -70 12 0 27 22 34 47 5 24 -7 40
-18 23z"/>
<path d="M10648 496 c-33 -26 -35 -36 -9 -36 23 0 44 24 39 44 -2 11 -9 10
-30 -8z"/>
<path d="M10572 473 c2 -12 -3 -17 -14 -15 -10 2 -18 -2 -18 -8 0 -5 5 -10 10
-10 6 0 8 -11 4 -25 -4 -15 -2 -25 5 -25 6 0 11 5 11 10 0 19 17 10 30 -17 25
-50 30 -54 48 -37 14 14 12 19 -17 46 -18 17 -30 33 -27 36 3 3 14 -2 24 -11
25 -23 49 -21 55 3 4 16 0 20 -17 20 -33 0 -77 23 -71 38 2 6 -2 12 -11 12 -9
0 -14 -7 -12 -17z"/>
<path d="M10527 362 c-21 -23 -22 -52 -3 -52 17 0 21 5 30 43 7 31 -4 35 -27
9z"/>
<path d="M10576 354 c-11 -28 -6 -54 9 -54 10 0 15 11 15 35 0 36 -13 47 -24
19z"/>
<path d="M10113 690 c-3 -12 -14 -20 -27 -20 -11 0 -28 -4 -35 -9 -9 -6 -22
-6 -32 0 -10 5 -20 5 -23 0 -7 -10 43 -21 88 -20 30 1 30 1 6 10 -21 7 -18 8
17 6 23 -1 39 1 37 5 -2 3 0 10 6 13 8 5 7 11 -1 21 -16 20 -30 17 -36 -6z"/>
<path d="M9526 607 c-15 -11 -16 -22 -7 -97 6 -46 11 -87 11 -91 0 -13 81 -39
168 -54 96 -18 234 -21 270 -8 23 9 23 9 -26 84 -28 40 -65 88 -82 104 -30 29
-35 30 -150 36 -84 4 -126 11 -143 22 -20 13 -28 14 -41 4z"/>
<path d="M10020 590 c14 -4 38 -11 53 -14 23 -5 33 -18 53 -62 29 -66 30 -81
5 -89 -35 -11 -46 -33 -27 -54 17 -19 15 -19 -48 -26 -102 -11 -82 -29 22 -20
137 11 147 34 77 180 -32 66 -39 75 -73 85 -20 5 -48 10 -62 9 l-25 -1 25 -8z"/>
<path d="M9621 356 c8 -9 202 -46 241 -46 54 0 26 9 -78 24 -54 9 -115 18
-134 22 -19 4 -32 4 -29 0z"/>
</g>
</svg>
